SplineFontDB: 3.0
FontName: Trochut-Bold
FullName: Trochut Bold
FamilyName: Trochut
Weight: Bold
Copyright: Copyright (c) 2011, Andreu Balius (www.andreubalius.com|mail@andreubalius.com), with Reserved Font Name Trochut
Version: 1.001
ItalicAngle: 0
UnderlinePosition: -113
UnderlineWidth: 20
Ascent: 800
Descent: 200
sfntRevision: 0x00010042
LayerCount: 2
Layer: 0 1 "Back"  1
Layer: 1 1 "Fore"  0
XUID: [1021 378 1461060826 510192]
FSType: 0
OS2Version: 2
OS2_WeightWidthSlopeOnly: 0
OS2_UseTypoMetrics: 1
CreationTime: 1325880234
ModificationTime: 1325881675
PfmFamily: 17
TTFWeight: 700
TTFWidth: 5
LineGap: 0
VLineGap: 0
Panose: 2 0 8 5 8 0 0 2 0 3
OS2TypoAscent: 167
OS2TypoAOffset: 1
OS2TypoDescent: -10
OS2TypoDOffset: 1
OS2TypoLinegap: 0
OS2WinAscent: 0
OS2WinAOffset: 1
OS2WinDescent: 0
OS2WinDOffset: 1
HheadAscent: 0
HheadAOffset: 1
HheadDescent: 0
HheadDOffset: 1
OS2SubXSize: 700
OS2SubYSize: 650
OS2SubXOff: 0
OS2SubYOff: 140
OS2SupXSize: 700
OS2SupYSize: 650
OS2SupXOff: 0
OS2SupYOff: 477
OS2StrikeYSize: 50
OS2StrikeYPos: 250
OS2Vendor: 'TYRE'
OS2CodePages: 00000001.00000000
OS2UnicodeRanges: 8000002f.4000004a.00000000.00000000
Lookup: 258 0 0 "'kern' Horizontal Kerning in Latin lookup 0"  {"'kern' Horizontal Kerning in Latin lookup 0 subtable"  } ['kern' ('DFLT' <'dflt' > 'latn' <'dflt' > ) ]
DEI: 91125
TtTable: prep
PUSHW_1
 511
SCANCTRL
PUSHB_1
 4
SCANTYPE
EndTTInstrs
ShortTable: maxp 16
  1
  0
  222
  85
  7
  0
  0
  2
  0
  1
  1
  0
  64
  0
  0
  0
EndShort
LangName: 1033 "" "" "" "AndreuBalius: Trochut Bold: 2011" "" "Version 1.001" "" "Trochut is a trademark of Andreu Balius." "Andreu Balius" "Andreu Balius" "" "www.typerepublic.com" "www.andreubalius.com" "This Font Software is licensed under the SIL Open Font License, Version 1.1. This license is available with a FAQ at: http://scripts.sil.org/OFL" "http://scripts.sil.org/OFL" 
GaspTable: 1 65535 15 1
Encoding: UnicodeBmp
UnicodeInterp: none
NameList: Adobe Glyph List
DisplaySize: -24
AntiAlias: 1

StartChar: exclam
Encoding: 33 33 4
Width: 269
GlyphClass: 2
Flags: W
LayerCount: 2
Fore
SplineSet
83 685 m 128,-1,1
 106 700 106 700 134.5 700 c 128,-1,2
 163 700 163 700 186 685.5 c 128,-1,3
 209 671 209 671 209 646 c 1,4,-1
 168 154 l 1,5,-1
 101 154 l 1,6,-1
 60 646 l 1,7,0
 60 670 60 670 83 685 c 128,-1,1
75 43 m 128,-1,9
 75 66 75 66 90.5 81 c 128,-1,10
 106 96 106 96 134 96 c 128,-1,11
 162 96 162 96 177.5 81 c 128,-1,12
 193 66 193 66 193 43 c 128,-1,13
 193 20 193 20 177.5 5 c 128,-1,14
 162 -10 162 -10 134 -10 c 128,-1,15
 106 -10 106 -10 90.5 5 c 128,-1,8
 75 20 75 20 75 43 c 128,-1,9
EndSplineSet
EndChar

StartChar: quotedbl
Encoding: 34 34 5
Width: 416
GlyphClass: 2
Flags: W
LayerCount: 2
Fore
SplineSet
180 690 m 1,0,-1
 180 640 l 1,1,-1
 160 480 l 1,2,-1
 80 480 l 1,3,-1
 60 640 l 1,4,-1
 60 690 l 1,5,-1
 180 690 l 1,0,-1
356 690 m 1,6,-1
 356 640 l 1,7,-1
 336 480 l 1,8,-1
 256 480 l 1,9,-1
 236 640 l 1,10,-1
 236 690 l 1,11,-1
 356 690 l 1,6,-1
EndSplineSet
EndChar

StartChar: numbersign
Encoding: 35 35 6
Width: 780
GlyphClass: 2
Flags: W
LayerCount: 2
Fore
SplineSet
671 218 m 1,0,-1
 532 218 l 1,1,-1
 494 0 l 1,2,-1
 368 0 l 1,3,-1
 407 218 l 1,4,-1
 322 218 l 1,5,-1
 284 0 l 1,6,-1
 158 0 l 1,7,-1
 196 218 l 1,8,-1
 60 218 l 1,9,-1
 69 268 l 1,10,-1
 205 268 l 1,11,-1
 237 450 l 1,12,-1
 100 450 l 1,13,-1
 109 500 l 1,14,-1
 246 500 l 1,15,-1
 281 700 l 1,16,-1
 407 700 l 1,17,-1
 372 500 l 1,18,-1
 456 500 l 1,19,-1
 491 700 l 1,20,-1
 616 700 l 1,21,-1
 581 500 l 1,22,-1
 720 500 l 1,23,-1
 711 450 l 1,24,-1
 573 450 l 1,25,-1
 541 268 l 1,26,-1
 680 268 l 1,27,-1
 671 218 l 1,0,-1
332 268 m 1,28,-1
 415 268 l 1,29,-1
 447 450 l 1,30,-1
 363 450 l 1,31,-1
 332 268 l 1,28,-1
EndSplineSet
EndChar

StartChar: dollar
Encoding: 36 36 7
Width: 641
GlyphClass: 2
Flags: W
LayerCount: 2
Fore
SplineSet
311 -55 m 1,0,-1
 311 -10 l 1,1,-1
 308 -10 l 2,2,3
 208 -10 208 -10 134 42.5 c 128,-1,4
 60 95 60 95 60 193 c 2,5,-1
 60 204 l 1,6,-1
 187 204 l 1,7,-1
 187 182 l 2,8,9
 187 117 187 117 223 72.5 c 128,-1,10
 259 28 259 28 311 26 c 1,11,-1
 311 280 l 1,12,-1
 168 367 l 2,13,14
 85 417 85 417 85 507 c 0,15,16
 85 579 85 579 149.5 637.5 c 128,-1,17
 214 696 214 696 311 700 c 1,18,-1
 311 755 l 1,19,-1
 351 755 l 1,20,-1
 351 698 l 1,21,22
 395 694 395 694 429 677 c 128,-1,23
 463 660 463 660 480 638 c 0,24,25
 512 596 512 596 512 569 c 2,26,-1
 512 563 l 1,27,-1
 478 563 l 1,28,29
 478 597 478 597 440.5 630.5 c 128,-1,30
 403 664 403 664 351 665 c 1,31,-1
 351 419 l 1,32,-1
 504 325 l 1,33,34
 581 276 581 276 581 193 c 0,35,36
 581 123 581 123 512.5 64.5 c 128,-1,37
 444 6 444 6 351 -7 c 1,38,-1
 351 -55 l 1,39,-1
 311 -55 l 1,0,-1
415 73.5 m 128,-1,41
 438 106 438 106 438 154 c 128,-1,42
 438 202 438 202 368 245 c 1,43,-1
 351 255 l 1,44,-1
 351 30 l 1,45,40
 392 41 392 41 415 73.5 c 128,-1,41
245.5 619 m 128,-1,47
 220 589 220 589 220 552.5 c 128,-1,48
 220 516 220 516 242 494 c 0,49,50
 259 476 259 476 311 443 c 1,51,-1
 311 660 l 1,52,46
 271 649 271 649 245.5 619 c 128,-1,47
EndSplineSet
EndChar

StartChar: percent
Encoding: 37 37 8
Width: 941
GlyphClass: 2
Flags: W
LayerCount: 2
Fore
SplineSet
231 -40 m 1,0,-1
 599 730 l 1,1,-1
 711 730 l 1,2,-1
 343 -40 l 1,3,-1
 231 -40 l 1,0,-1
881 146 m 2,4,5
 881 73 881 73 838 31.5 c 128,-1,6
 795 -10 795 -10 708 -10 c 128,-1,7
 621 -10 621 -10 578 31.5 c 128,-1,8
 535 73 535 73 535 146 c 2,9,-1
 535 183 l 2,10,11
 535 256 535 256 578 298 c 128,-1,12
 621 340 621 340 708 340 c 128,-1,13
 795 340 795 340 838 298 c 128,-1,14
 881 256 881 256 881 183 c 2,15,-1
 881 146 l 2,4,5
754 117 m 2,16,-1
 754 212 l 2,17,18
 754 244 754 244 752 262 c 128,-1,19
 750 280 750 280 739 295 c 128,-1,20
 728 310 728 310 703.5 310 c 128,-1,21
 679 310 679 310 670 285 c 128,-1,22
 661 260 661 260 661 212 c 2,23,-1
 661 117 l 2,24,25
 661 86 661 86 663.5 67.5 c 128,-1,26
 666 49 666 49 677 34.5 c 128,-1,27
 688 20 688 20 708 20 c 128,-1,28
 728 20 728 20 739 35 c 128,-1,29
 750 50 750 50 752 67.5 c 128,-1,30
 754 85 754 85 754 117 c 2,16,-1
406 506 m 2,31,32
 406 433 406 433 363 391.5 c 128,-1,33
 320 350 320 350 233 350 c 128,-1,34
 146 350 146 350 103 391.5 c 128,-1,35
 60 433 60 433 60 506 c 2,36,-1
 60 543 l 2,37,38
 60 616 60 616 103 658 c 128,-1,39
 146 700 146 700 233 700 c 128,-1,40
 320 700 320 700 363 658 c 128,-1,41
 406 616 406 616 406 543 c 2,42,-1
 406 506 l 2,31,32
279 477 m 2,43,-1
 279 572 l 2,44,45
 279 604 279 604 277 622 c 128,-1,46
 275 640 275 640 264 655 c 128,-1,47
 253 670 253 670 228.5 670 c 128,-1,48
 204 670 204 670 195 645 c 128,-1,49
 186 620 186 620 186 572 c 2,50,-1
 186 477 l 2,51,52
 186 446 186 446 188.5 427.5 c 128,-1,53
 191 409 191 409 202 394.5 c 128,-1,54
 213 380 213 380 233 380 c 128,-1,55
 253 380 253 380 264 395 c 128,-1,56
 275 410 275 410 277 427.5 c 128,-1,57
 279 445 279 445 279 477 c 2,43,-1
EndSplineSet
EndChar

StartChar: ampersand
Encoding: 38 38 9
Width: 712
GlyphClass: 2
Flags: W
LayerCount: 2
Fore
SplineSet
605 40 m 0,0,1
 625 40 625 40 637 72 c 1,2,-1
 656 69 l 1,3,4
 656 59 656 59 648.5 43.5 c 128,-1,5
 641 28 641 28 631 18 c 0,6,7
 605 -10 605 -10 545 -10 c 128,-1,8
 485 -10 485 -10 460 31 c 1,9,10
 411 -10 411 -10 333 -10 c 0,11,12
 212 -10 212 -10 136 69.5 c 128,-1,13
 60 149 60 149 60 263 c 2,14,-1
 60 436 l 2,15,16
 60 549 60 549 135.5 624.5 c 128,-1,17
 211 700 211 700 333 700 c 0,18,19
 429 700 429 700 505.5 646.5 c 128,-1,20
 582 593 582 593 582 499 c 2,21,-1
 582 486 l 1,22,-1
 446 486 l 1,23,-1
 446 508 l 2,24,25
 446 578 446 578 417 621.5 c 128,-1,26
 388 665 388 665 332.5 665 c 128,-1,27
 277 665 277 665 248 622 c 128,-1,28
 219 579 219 579 219 508 c 2,29,-1
 219 347 l 1,30,-1
 446 347 l 1,31,-1
 446 409 l 1,32,-1
 582 409 l 1,33,-1
 582 347 l 1,34,-1
 687 347 l 1,35,-1
 687 300 l 1,36,-1
 582 300 l 1,37,-1
 582 74 l 2,38,39
 582 40 582 40 605 40 c 0,0,1
446 182 m 2,40,-1
 446 300 l 1,41,-1
 219 300 l 1,42,-1
 219 182 l 2,43,44
 219 111 219 111 248 68 c 128,-1,45
 277 25 277 25 332.5 25 c 128,-1,46
 388 25 388 25 417 68.5 c 128,-1,47
 446 112 446 112 446 182 c 2,40,-1
EndSplineSet
EndChar

StartChar: quotesingle
Encoding: 39 39 10
Width: 235
GlyphClass: 2
Flags: W
LayerCount: 2
Fore
SplineSet
175 690 m 1,0,-1
 175 640 l 1,1,-1
 155 480 l 1,2,-1
 80 480 l 1,3,-1
 60 640 l 1,4,-1
 60 690 l 1,5,-1
 175 690 l 1,0,-1
EndSplineSet
EndChar

StartChar: parenleft
Encoding: 40 40 11
Width: 408
GlyphClass: 2
Flags: W
LayerCount: 2
Fore
SplineSet
348 -40 m 1,0,-1
 323 -40 l 2,1,2
 205 -40 205 -40 132.5 48 c 128,-1,3
 60 136 60 136 60 254 c 2,4,-1
 60 440 l 2,5,6
 60 557 60 557 139.5 643.5 c 128,-1,7
 219 730 219 730 348 730 c 1,8,-1
 348 700 l 1,9,10
 286 700 286 700 252.5 643.5 c 128,-1,11
 219 587 219 587 219 513 c 2,12,-1
 219 182 l 2,13,14
 219 106 219 106 252.5 48 c 128,-1,15
 286 -10 286 -10 348 -10 c 1,16,-1
 348 -40 l 1,0,-1
EndSplineSet
EndChar

StartChar: parenright
Encoding: 41 41 12
Width: 408
GlyphClass: 2
Flags: W
LayerCount: 2
Fore
SplineSet
60 -40 m 1,0,-1
 60 -10 l 1,1,2
 122 -10 122 -10 155.5 48 c 128,-1,3
 189 106 189 106 189 182 c 2,4,-1
 189 513 l 2,5,6
 189 587 189 587 155.5 643.5 c 128,-1,7
 122 700 122 700 60 700 c 1,8,-1
 60 730 l 1,9,10
 189 730 189 730 268.5 643.5 c 128,-1,11
 348 557 348 557 348 440 c 2,12,-1
 348 254 l 2,13,14
 348 136 348 136 268.5 48 c 128,-1,15
 189 -40 189 -40 60 -40 c 1,0,-1
EndSplineSet
EndChar

StartChar: asterisk
Encoding: 42 42 13
Width: 500
GlyphClass: 2
Flags: W
LayerCount: 2
Fore
SplineSet
299 658 m 0,0,1
 299 655 299 655 289 595 c 1,2,3
 319 640 319 640 328 649 c 128,-1,4
 337 658 337 658 355 658 c 128,-1,5
 373 658 373 658 389 644 c 1,6,7
 405 628 405 628 405 609.5 c 128,-1,8
 405 591 405 591 398 584 c 128,-1,9
 391 577 391 577 343 541 c 1,10,11
 396 551 396 551 410.5 551 c 128,-1,12
 425 551 425 551 437 537.5 c 128,-1,13
 449 524 449 524 449.5 505 c 128,-1,14
 450 486 450 486 438 470.5 c 128,-1,15
 426 455 426 455 409.5 455 c 128,-1,16
 393 455 393 455 343 463 c 1,17,18
 389 433 389 433 399 423 c 128,-1,19
 409 413 409 413 409 395 c 128,-1,20
 409 377 409 377 395 361 c 1,21,22
 379 345 379 345 360.5 345 c 128,-1,23
 342 345 342 345 332 355 c 128,-1,24
 322 365 322 365 291 408 c 1,25,26
 301 346 301 346 301 342 c 0,27,28
 301 324 301 324 286.5 312 c 128,-1,29
 272 300 272 300 253.5 300 c 128,-1,30
 235 300 235 300 220.5 312 c 128,-1,31
 206 324 206 324 206 340.5 c 128,-1,32
 206 357 206 357 214 407 c 1,33,34
 184 362 184 362 174 352 c 128,-1,35
 164 342 164 342 146 342 c 128,-1,36
 128 342 128 342 111 356 c 1,37,38
 96 371 96 371 96 391 c 128,-1,39
 96 411 96 411 108 420 c 1,40,41
 116 428 116 428 163 462 c 1,42,43
 104 451 104 451 90 451 c 128,-1,44
 76 451 76 451 63 465.5 c 128,-1,45
 50 480 50 480 50 498.5 c 128,-1,46
 50 517 50 517 62 531.5 c 128,-1,47
 74 546 74 546 90 546 c 128,-1,48
 106 546 106 546 157 538 c 1,49,50
 113 568 113 568 103.5 577.5 c 128,-1,51
 94 587 94 587 94 607 c 128,-1,52
 94 627 94 627 106 641 c 128,-1,53
 118 655 118 655 139.5 655 c 128,-1,54
 161 655 161 655 170.5 645.5 c 128,-1,55
 180 636 180 636 213 589 c 1,56,57
 203 653 203 653 203 658 c 0,58,59
 203 676 203 676 217.5 688 c 128,-1,60
 232 700 232 700 250.5 700 c 128,-1,61
 269 700 269 700 284 688 c 128,-1,62
 299 676 299 676 299 658 c 0,0,1
EndSplineSet
EndChar

StartChar: plus
Encoding: 43 43 14
Width: 420
GlyphClass: 2
Flags: W
LayerCount: 2
Fore
SplineSet
263 360 m 1,0,-1
 263 265 l 1,1,-1
 360 265 l 1,2,-1
 360 205 l 1,3,-1
 263 205 l 1,4,-1
 263 110 l 1,5,-1
 157 110 l 1,6,-1
 157 205 l 1,7,-1
 60 205 l 1,8,-1
 60 265 l 1,9,-1
 157 265 l 1,10,-1
 157 360 l 1,11,-1
 263 360 l 1,0,-1
EndSplineSet
EndChar

StartChar: comma
Encoding: 44 44 15
Width: 222
GlyphClass: 2
Flags: W
LayerCount: 2
Fore
SplineSet
172 110 m 1,0,1
 172 40 172 40 150 -10 c 128,-1,2
 128 -60 128 -60 66 -109 c 1,3,-1
 35 -86 l 1,4,5
 47 -71 47 -71 53.5 -36.5 c 128,-1,6
 60 -2 60 -2 62 51 c 1,7,-1
 62 110 l 1,8,-1
 172 110 l 1,0,1
EndSplineSet
EndChar

StartChar: hyphen
Encoding: 45 45 16
Width: 325
GlyphClass: 2
Flags: W
LayerCount: 2
Fore
SplineSet
275 300 m 1,0,-1
 275 225 l 1,1,-1
 50 225 l 1,2,-1
 50 300 l 1,3,-1
 275 300 l 1,0,-1
EndSplineSet
EndChar

StartChar: period
Encoding: 46 46 17
Width: 218
GlyphClass: 2
Flags: W
LayerCount: 2
Fore
SplineSet
50 48 m 128,-1,1
 50 71 50 71 66 88.5 c 128,-1,2
 82 106 82 106 109 106 c 128,-1,3
 136 106 136 106 152 88.5 c 128,-1,4
 168 71 168 71 168 48 c 128,-1,5
 168 25 168 25 152 7.5 c 128,-1,6
 136 -10 136 -10 109 -10 c 128,-1,7
 82 -10 82 -10 66 7.5 c 128,-1,0
 50 25 50 25 50 48 c 128,-1,1
EndSplineSet
EndChar

StartChar: slash
Encoding: 47 47 18
Width: 374
GlyphClass: 2
Flags: W
LayerCount: 2
Fore
SplineSet
198 729 m 1,0,-1
 314 729 l 1,1,-1
 176 -39 l 1,2,-1
 60 -39 l 1,3,-1
 198 729 l 1,0,-1
EndSplineSet
EndChar

StartChar: zero
Encoding: 48 48 19
Width: 610
GlyphClass: 2
Flags: W
LayerCount: 2
Fore
SplineSet
550 260 m 2,0,1
 550 -10 550 -10 305 -10 c 128,-1,2
 60 -10 60 -10 60 260 c 2,3,-1
 60 429 l 2,4,5
 60 700 60 700 305 700 c 128,-1,6
 550 700 550 700 550 429 c 2,7,-1
 550 260 l 2,0,1
390 182 m 2,8,-1
 390 508 l 2,9,10
 390 559 390 559 385 589.5 c 128,-1,11
 380 620 380 620 360.5 642.5 c 128,-1,12
 341 665 341 665 305 665 c 0,13,14
 253 665 253 665 236 625.5 c 128,-1,15
 219 586 219 586 219 508 c 2,16,-1
 219 182 l 2,17,18
 219 104 219 104 236 64.5 c 128,-1,19
 253 25 253 25 305 25 c 128,-1,20
 357 25 357 25 373.5 64.5 c 128,-1,21
 390 104 390 104 390 182 c 2,8,-1
EndSplineSet
EndChar

StartChar: one
Encoding: 49 49 20
Width: 356
GlyphClass: 2
Flags: W
LayerCount: 2
Fore
SplineSet
286 0 m 1,0,-1
 127 0 l 1,1,-1
 127 562 l 1,2,-1
 30 452 l 1,3,-1
 30 565 l 1,4,-1
 133 690 l 1,5,-1
 286 690 l 1,6,-1
 286 0 l 1,0,-1
EndSplineSet
EndChar

StartChar: two
Encoding: 50 50 21
Width: 493
GlyphClass: 2
Flags: W
LayerCount: 2
Fore
SplineSet
225 700 m 0,0,1
 322 700 322 700 383 650.5 c 128,-1,2
 444 601 444 601 444 530 c 2,3,-1
 444 481 l 2,4,5
 444 399 444 399 347 314 c 0,6,7
 328 297 328 297 275.5 253.5 c 128,-1,8
 223 210 223 210 192.5 180 c 128,-1,9
 162 150 162 150 136 115 c 1,10,-1
 432 115 l 1,11,-1
 432 0 l 1,12,-1
 10 0 l 1,13,14
 10 27 10 27 34.5 79.5 c 128,-1,15
 59 132 59 132 91 177 c 128,-1,16
 123 222 123 222 175 281.5 c 128,-1,17
 227 341 227 341 244 363 c 0,18,19
 284 413 284 413 284 474 c 2,20,-1
 284 565 l 2,21,22
 284 610 284 610 265 637.5 c 128,-1,23
 246 665 246 665 208 665 c 0,24,25
 121 665 121 665 65 572 c 1,26,-1
 40 585 l 1,27,28
 103 700 103 700 225 700 c 0,0,1
EndSplineSet
EndChar

StartChar: three
Encoding: 51 51 22
Width: 485
GlyphClass: 2
Flags: W
LayerCount: 2
Fore
SplineSet
271 476 m 2,0,-1
 271 565 l 2,1,2
 271 618 271 618 253.5 641.5 c 128,-1,3
 236 665 236 665 200 665 c 0,4,5
 112 665 112 665 62 576 c 1,6,-1
 33 591 l 1,7,8
 41 612 41 612 70 642 c 0,9,10
 127 700 127 700 216.5 700 c 128,-1,11
 306 700 306 700 363 651 c 128,-1,12
 420 602 420 602 420 530 c 2,13,-1
 420 515 l 2,14,15
 420 466 420 466 390 426.5 c 128,-1,16
 360 387 360 387 306 365 c 1,17,18
 363 343 363 343 396.5 302.5 c 128,-1,19
 430 262 430 262 430 214 c 2,20,-1
 430 202 l 2,21,22
 430 99 430 99 371.5 44.5 c 128,-1,23
 313 -10 313 -10 201 -10 c 0,24,25
 135 -10 135 -10 85.5 27.5 c 128,-1,26
 36 65 36 65 20 109 c 1,27,-1
 51 120 l 1,28,29
 64 88 64 88 102.5 56.5 c 128,-1,30
 141 25 141 25 191 25 c 0,31,32
 281 25 281 25 281 147 c 2,33,-1
 281 253 l 2,34,35
 281 295 281 295 258.5 322.5 c 128,-1,36
 236 350 236 350 189 350 c 1,37,-1
 191 379 l 1,38,39
 238 380 238 380 254.5 404 c 128,-1,40
 271 428 271 428 271 476 c 2,0,-1
EndSplineSet
EndChar

StartChar: four
Encoding: 52 52 23
Width: 534
GlyphClass: 2
Flags: W
LayerCount: 2
Fore
SplineSet
474 232 m 1,0,-1
 474 182 l 1,1,-1
 447 182 l 1,2,-1
 447 0 l 1,3,-1
 298 0 l 1,4,-1
 298 183 l 1,5,-1
 20 183 l 1,6,-1
 291 690 l 1,7,-1
 434 690 l 1,8,-1
 188 232 l 1,9,-1
 298 232 l 1,10,-1
 298 369 l 1,11,-1
 447 369 l 1,12,-1
 447 232 l 1,13,-1
 474 232 l 1,0,-1
EndSplineSet
EndChar

StartChar: five
Encoding: 53 53 24
Width: 527
GlyphClass: 2
Flags: W
LayerCount: 2
Fore
SplineSet
482 238 m 2,0,-1
 482 212 l 1,1,2
 480 -10 480 -10 253 -10 c 0,3,4
 189 -10 189 -10 140 26.5 c 128,-1,5
 91 63 91 63 74 109 c 1,6,-1
 104 120 l 1,7,8
 116 88 116 88 154.5 56.5 c 128,-1,9
 193 25 193 25 242.5 25 c 128,-1,10
 292 25 292 25 313 58 c 128,-1,11
 334 91 334 91 334 159 c 2,12,-1
 334 269 l 2,13,14
 334 425 334 425 248 425 c 0,15,16
 175 425 175 425 160 317 c 1,17,-1
 70 317 l 1,18,-1
 70 690 l 1,19,-1
 463 690 l 1,20,-1
 463 582 l 1,21,-1
 160 582 l 1,22,-1
 160 421 l 1,23,24
 201 460 201 460 259.5 460 c 128,-1,25
 318 460 318 460 356.5 446.5 c 128,-1,26
 395 433 395 433 418 411.5 c 128,-1,27
 441 390 441 390 456 360 c 0,28,29
 482 308 482 308 482 238 c 2,0,-1
EndSplineSet
EndChar

StartChar: six
Encoding: 54 54 25
Width: 552
GlyphClass: 2
Flags: W
LayerCount: 2
Fore
SplineSet
507 157 m 2,0,1
 507 87 507 87 443 38.5 c 128,-1,2
 379 -10 379 -10 285.5 -10 c 128,-1,3
 192 -10 192 -10 126 38.5 c 128,-1,4
 60 87 60 87 60 157 c 2,5,-1
 60 477 l 2,6,7
 60 586 60 586 122.5 643 c 128,-1,8
 185 700 185 700 299 700 c 0,9,10
 434 700 434 700 478 577 c 1,11,-1
 452 568 l 1,12,13
 439 602 439 602 404 633.5 c 128,-1,14
 369 665 369 665 319 665 c 0,15,16
 208 665 208 665 208 530 c 2,17,-1
 208 443 l 1,18,19
 250 460 250 460 298 460 c 0,20,21
 379 460 379 460 443 413 c 128,-1,22
 507 366 507 366 507 294 c 2,23,-1
 507 157 l 2,0,1
358 118 m 2,24,-1
 358 333 l 2,25,26
 358 430 358 430 281 430 c 0,27,28
 244 430 244 430 226 409.5 c 128,-1,29
 208 389 208 389 208 358 c 2,30,-1
 208 118 l 2,31,32
 208 20 208 20 286 20 c 0,33,34
 358 20 358 20 358 118 c 2,24,-1
EndSplineSet
EndChar

StartChar: seven
Encoding: 55 55 26
Width: 473
GlyphClass: 2
Flags: W
LayerCount: 2
Fore
SplineSet
88 337 m 1,0,-1
 88 384 l 1,1,-1
 173 384 l 1,2,3
 211 476 211 476 270 545 c 0,4,5
 321 606 321 606 363 640 c 1,6,-1
 165 640 l 2,7,8
 121 640 121 640 108 588 c 1,9,-1
 10 588 l 1,10,-1
 10 690 l 1,11,-1
 471 690 l 1,12,-1
 473 680 l 1,13,14
 437 644 437 644 400 586 c 0,15,16
 339 491 339 491 307 384 c 1,17,-1
 395 384 l 1,18,-1
 395 337 l 1,19,-1
 294 337 l 1,20,21
 255 174 255 174 255 0 c 1,22,-1
 99 0 l 1,23,24
 99 164 99 164 156 337 c 1,25,-1
 88 337 l 1,0,-1
EndSplineSet
EndChar

StartChar: eight
Encoding: 56 56 27
Width: 562
GlyphClass: 2
Flags: W
LayerCount: 2
Fore
SplineSet
507 515 m 2,0,1
 507 468 507 468 473 427.5 c 128,-1,2
 439 387 439 387 383 365 c 1,3,4
 441 343 441 343 476.5 302 c 128,-1,5
 512 261 512 261 512 214 c 2,6,-1
 512 157 l 2,7,8
 512 87 512 87 444.5 38.5 c 128,-1,9
 377 -10 377 -10 281 -10 c 128,-1,10
 185 -10 185 -10 117.5 38.5 c 128,-1,11
 50 87 50 87 50 157 c 2,12,-1
 50 214 l 2,13,14
 50 261 50 261 85 302 c 128,-1,15
 120 343 120 343 178 365 c 1,16,17
 122 387 122 387 88.5 427.5 c 128,-1,18
 55 468 55 468 55 515 c 2,19,-1
 55 534 l 2,20,21
 55 604 55 604 121 652 c 128,-1,22
 187 700 187 700 281 700 c 128,-1,23
 375 700 375 700 441 652 c 128,-1,24
 507 604 507 604 507 534 c 2,25,-1
 507 515 l 2,0,1
363 118 m 2,26,-1
 363 253 l 2,27,28
 363 350 363 350 280.5 350 c 128,-1,29
 198 350 198 350 198 253 c 2,30,-1
 198 118 l 2,31,32
 198 75 198 75 218 47.5 c 128,-1,33
 238 20 238 20 281 20 c 0,34,35
 363 20 363 20 363 118 c 2,26,-1
361 476 m 2,36,-1
 361 573 l 2,37,38
 361 670 361 670 280.5 670 c 128,-1,39
 200 670 200 670 200 573 c 2,40,-1
 200 476 l 2,41,42
 200 381 200 381 274 380 c 1,43,-1
 289 380 l 1,44,45
 361 381 361 381 361 476 c 2,36,-1
EndSplineSet
EndChar

StartChar: nine
Encoding: 57 57 28
Width: 552
GlyphClass: 2
Flags: W
LayerCount: 2
Fore
SplineSet
45 533 m 2,0,1
 45 603 45 603 109 651.5 c 128,-1,2
 173 700 173 700 266.5 700 c 128,-1,3
 360 700 360 700 426 651.5 c 128,-1,4
 492 603 492 603 492 533 c 2,5,-1
 492 213 l 2,6,7
 492 104 492 104 429.5 47 c 128,-1,8
 367 -10 367 -10 253 -10 c 0,9,10
 118 -10 118 -10 74 113 c 1,11,-1
 100 122 l 1,12,13
 113 88 113 88 148 56.5 c 128,-1,14
 183 25 183 25 233 25 c 0,15,16
 344 25 344 25 344 160 c 2,17,-1
 344 247 l 1,18,19
 301 230 301 230 254 230 c 0,20,21
 173 230 173 230 109 277 c 128,-1,22
 45 324 45 324 45 396 c 2,23,-1
 45 533 l 2,0,1
194 572 m 2,24,-1
 194 357 l 2,25,26
 194 260 194 260 271 260 c 0,27,28
 308 260 308 260 326 280.5 c 128,-1,29
 344 301 344 301 344 332 c 2,30,-1
 344 572 l 2,31,32
 344 670 344 670 266 670 c 0,33,34
 194 670 194 670 194 572 c 2,24,-1
EndSplineSet
EndChar

StartChar: colon
Encoding: 58 58 29
Width: 218
GlyphClass: 2
Flags: W
LayerCount: 2
Fore
SplineSet
50 48 m 128,-1,1
 50 71 50 71 66 88.5 c 128,-1,2
 82 106 82 106 109 106 c 128,-1,3
 136 106 136 106 152 88.5 c 128,-1,4
 168 71 168 71 168 48 c 128,-1,5
 168 25 168 25 152 7.5 c 128,-1,6
 136 -10 136 -10 109 -10 c 128,-1,7
 82 -10 82 -10 66 7.5 c 128,-1,0
 50 25 50 25 50 48 c 128,-1,1
50 358 m 128,-1,9
 50 381 50 381 66 398.5 c 128,-1,10
 82 416 82 416 109 416 c 128,-1,11
 136 416 136 416 152 398.5 c 128,-1,12
 168 381 168 381 168 358 c 128,-1,13
 168 335 168 335 152 317.5 c 128,-1,14
 136 300 136 300 109 300 c 128,-1,15
 82 300 82 300 66 317.5 c 128,-1,8
 50 335 50 335 50 358 c 128,-1,9
EndSplineSet
EndChar

StartChar: semicolon
Encoding: 59 59 30
Width: 223
GlyphClass: 2
Flags: W
LayerCount: 2
Fore
SplineSet
172 110 m 1,0,1
 172 40 172 40 150 -10 c 128,-1,2
 128 -60 128 -60 66 -109 c 1,3,-1
 35 -86 l 1,4,5
 47 -71 47 -71 53.5 -36.5 c 128,-1,6
 60 -2 60 -2 62 51 c 1,7,-1
 62 110 l 1,8,-1
 172 110 l 1,0,1
55 358 m 128,-1,10
 55 381 55 381 71 398.5 c 128,-1,11
 87 416 87 416 114 416 c 128,-1,12
 141 416 141 416 157 398.5 c 128,-1,13
 173 381 173 381 173 358 c 128,-1,14
 173 335 173 335 157 317.5 c 128,-1,15
 141 300 141 300 114 300 c 128,-1,16
 87 300 87 300 71 317.5 c 128,-1,9
 55 335 55 335 55 358 c 128,-1,10
EndSplineSet
EndChar

StartChar: less
Encoding: 60 60 31
Width: 515
GlyphClass: 2
Flags: W
LayerCount: 2
Fore
SplineSet
380 -17 m 1,0,-1
 80 282 l 1,1,-1
 381 583 l 1,2,-1
 434 530 l 1,3,-1
 187 282 l 1,4,-1
 435 35 l 1,5,-1
 380 -17 l 1,0,-1
EndSplineSet
EndChar

StartChar: equal
Encoding: 61 61 32
Width: 500
GlyphClass: 2
Flags: W
LayerCount: 2
Fore
SplineSet
450 290 m 1,0,-1
 50 290 l 1,1,-1
 50 350 l 1,2,-1
 450 350 l 1,3,-1
 450 290 l 1,0,-1
450 150 m 1,4,-1
 50 150 l 1,5,-1
 50 210 l 1,6,-1
 450 210 l 1,7,-1
 450 150 l 1,4,-1
EndSplineSet
EndChar

StartChar: greater
Encoding: 62 62 33
Width: 515
GlyphClass: 2
Flags: W
LayerCount: 2
Fore
SplineSet
435 282 m 1,0,-1
 135 -17 l 1,1,-1
 80 35 l 1,2,-1
 328 282 l 1,3,-1
 81 530 l 1,4,-1
 134 583 l 1,5,-1
 435 282 l 1,0,-1
EndSplineSet
EndChar

StartChar: question
Encoding: 63 63 34
Width: 527
GlyphClass: 2
Flags: W
LayerCount: 2
Fore
SplineSet
314 516 m 2,0,-1
 314 571 l 2,1,2
 314 665 314 665 250 665 c 0,3,4
 222 665 222 665 206 639.5 c 128,-1,5
 190 614 190 614 190 576 c 2,6,-1
 190 507 l 1,7,-1
 60 507 l 1,8,-1
 60 523 l 2,9,10
 60 597 60 597 118 648.5 c 128,-1,11
 176 700 176 700 268.5 700 c 128,-1,12
 361 700 361 700 414 649 c 128,-1,13
 467 598 467 598 467 524 c 2,14,-1
 467 508 l 2,15,16
 467 437 467 437 395 353 c 2,17,-1
 276 214 l 1,18,19
 263 195 263 195 263 164 c 2,20,-1
 263 142 l 1,21,-1
 196 142 l 1,22,-1
 196 165 l 2,23,24
 196 207 196 207 205 229.5 c 128,-1,25
 214 252 214 252 247 327.5 c 128,-1,26
 280 403 280 403 289 421.5 c 128,-1,27
 298 440 298 440 302 450 c 0,28,29
 314 483 314 483 314 516 c 2,0,-1
167 43 m 128,-1,31
 167 66 167 66 182.5 81 c 128,-1,32
 198 96 198 96 226 96 c 128,-1,33
 254 96 254 96 269.5 81 c 128,-1,34
 285 66 285 66 285 43 c 128,-1,35
 285 20 285 20 269.5 5 c 128,-1,36
 254 -10 254 -10 226 -10 c 128,-1,37
 198 -10 198 -10 182.5 5 c 128,-1,30
 167 20 167 20 167 43 c 128,-1,31
EndSplineSet
EndChar

StartChar: at
Encoding: 64 64 35
Width: 1069
GlyphClass: 2
Flags: W
LayerCount: 2
Fore
SplineSet
589 334 m 2,0,1
 589 376 589 376 567 413 c 128,-1,2
 545 450 545 450 516.5 450 c 128,-1,3
 488 450 488 450 477.5 426 c 128,-1,4
 467 402 467 402 467 356 c 2,5,-1
 467 115 l 2,6,7
 467 66 467 66 478 44 c 128,-1,8
 489 22 489 22 517 22 c 128,-1,9
 545 22 545 22 567 57 c 128,-1,10
 589 92 589 92 589 137 c 2,11,-1
 589 334 l 2,0,1
755 -10 m 2,12,-1
 716 -10 l 2,13,14
 603 -10 603 -10 591 64 c 1,15,16
 583 37 583 37 557 13.5 c 128,-1,17
 531 -10 531 -10 491 -10 c 0,18,19
 413 -10 413 -10 371.5 32.5 c 128,-1,20
 330 75 330 75 330 149 c 2,21,-1
 330 322 l 2,22,23
 330 394 330 394 374.5 437 c 128,-1,24
 419 480 419 480 491 480 c 0,25,26
 530 480 530 480 556.5 459 c 128,-1,27
 583 438 583 438 589 414 c 1,28,-1
 589 470 l 1,29,-1
 725 470 l 1,30,-1
 725 74 l 2,31,32
 725 40 725 40 759 40 c 0,33,34
 849 40 849 40 849 182 c 2,35,-1
 849 498 l 2,36,37
 849 568 849 568 823 611.5 c 128,-1,38
 797 655 797 655 746 655 c 2,39,-1
 323 655 l 2,40,41
 271 655 271 655 245 612 c 128,-1,42
 219 569 219 569 219 498 c 2,43,-1
 219 47 l 2,44,45
 219 -24 219 -24 245 -67 c 128,-1,46
 271 -110 271 -110 323 -110 c 2,47,-1
 850 -110 l 1,48,-1
 850 -145 l 1,49,-1
 323 -145 l 2,50,51
 194 -145 194 -145 127 -72 c 128,-1,52
 60 1 60 1 60 125 c 2,53,-1
 60 419 l 2,54,55
 60 544 60 544 127.5 617 c 128,-1,56
 195 690 195 690 323 690 c 2,57,-1
 746 690 l 2,58,59
 874 690 874 690 941.5 616.5 c 128,-1,60
 1009 543 1009 543 1009 419 c 2,61,-1
 1009 260 l 2,62,63
 1009 139 1009 139 939.5 64.5 c 128,-1,64
 870 -10 870 -10 755 -10 c 2,12,-1
EndSplineSet
EndChar

StartChar: A
Encoding: 65 65 36
Width: 681
GlyphClass: 2
Flags: W
LayerCount: 2
Fore
SplineSet
451 227 m 2,0,-1
 451 468 l 2,1,2
 451 543 451 543 411.5 604 c 128,-1,3
 372 665 372 665 308 665 c 0,4,5
 279 665 279 665 259.5 646 c 128,-1,6
 240 627 240 627 232 596 c 1,7,8
 218 548 218 548 218 497 c 2,9,-1
 218 197 l 2,10,11
 218 109 218 109 244.5 67 c 128,-1,12
 271 25 271 25 314 25 c 0,13,14
 377 25 377 25 414 85 c 128,-1,15
 451 145 451 145 451 227 c 2,0,-1
611 0 m 1,16,-1
 452 0 l 1,17,-1
 452 110 l 1,18,19
 429 50 429 50 386 20 c 128,-1,20
 343 -10 343 -10 296 -10 c 0,21,22
 188 -10 188 -10 124 57.5 c 128,-1,23
 60 125 60 125 60 247 c 2,24,-1
 60 446 l 2,25,26
 60 569 60 569 131 634.5 c 128,-1,27
 202 700 202 700 298 700 c 0,28,29
 354 700 354 700 395 663.5 c 128,-1,30
 436 627 436 627 452 575 c 1,31,-1
 452 690 l 1,32,-1
 611 690 l 1,33,-1
 611 0 l 1,16,-1
EndSplineSet
EndChar

StartChar: B
Encoding: 66 66 37
Width: 612
GlyphClass: 2
Flags: W
LayerCount: 2
Fore
SplineSet
572 189 m 0,0,1
 572 0 572 0 301 0 c 2,2,-1
 70 0 l 1,3,-1
 70 700 l 1,4,-1
 278 700 l 2,5,6
 390 700 390 700 464 672 c 0,7,8
 551 638 551 638 551 528 c 0,9,10
 551 470 551 470 514 435 c 128,-1,11
 477 400 477 400 407 375 c 1,12,13
 572 319 572 319 572 189 c 0,0,1
380 73.5 m 128,-1,15
 417 113 417 113 417 193 c 128,-1,16
 417 273 417 273 381 315 c 128,-1,17
 345 357 345 357 292 357 c 2,18,-1
 228 357 l 1,19,-1
 228 34 l 1,20,-1
 263 34 l 2,21,14
 343 34 343 34 380 73.5 c 128,-1,15
398 534 m 0,22,23
 398 623 398 623 352 646 c 0,24,25
 313 666 313 666 249 666 c 2,26,-1
 228 666 l 1,27,-1
 228 388 l 1,28,-1
 270 388 l 2,29,30
 398 388 398 388 398 534 c 0,22,23
EndSplineSet
EndChar

StartChar: C
Encoding: 67 67 38
Width: 632
GlyphClass: 2
Flags: W
LayerCount: 2
Fore
SplineSet
582 194 m 2,0,1
 582 140 582 140 557 98.5 c 128,-1,2
 532 57 532 57 492 34 c 0,3,4
 414 -10 414 -10 333 -10 c 0,5,6
 211 -10 211 -10 135.5 65.5 c 128,-1,7
 60 141 60 141 60 254 c 2,8,-1
 60 436 l 2,9,10
 60 549 60 549 135.5 624.5 c 128,-1,11
 211 700 211 700 333 700 c 0,12,13
 429 700 429 700 505.5 646.5 c 128,-1,14
 582 593 582 593 582 499 c 2,15,-1
 582 486 l 1,16,-1
 446 486 l 1,17,-1
 446 509 l 2,18,19
 446 579 446 579 417 622 c 128,-1,20
 388 665 388 665 332.5 665 c 128,-1,21
 277 665 277 665 248 622 c 128,-1,22
 219 579 219 579 219 509 c 2,23,-1
 219 182 l 2,24,25
 219 111 219 111 248 68 c 128,-1,26
 277 25 277 25 332.5 25 c 128,-1,27
 388 25 388 25 417 68.5 c 128,-1,28
 446 112 446 112 446 182 c 2,29,-1
 446 204 l 1,30,-1
 582 204 l 1,31,-1
 582 194 l 2,0,1
EndSplineSet
EndChar

StartChar: D
Encoding: 68 68 39
Width: 651
GlyphClass: 2
Flags: W
LayerCount: 2
Fore
SplineSet
591 421 m 2,0,-1
 591 269 l 2,1,2
 591 153 591 153 513 76.5 c 128,-1,3
 435 0 435 0 311 0 c 2,4,-1
 70 0 l 1,5,-1
 70 690 l 1,6,-1
 311 690 l 2,7,8
 435 690 435 690 513 613.5 c 128,-1,9
 591 537 591 537 591 421 c 2,0,-1
433 468 m 2,10,11
 433 559 433 559 390.5 607.5 c 128,-1,12
 348 656 348 656 274 656 c 2,13,-1
 228 656 l 1,14,-1
 228 34 l 1,15,-1
 274 34 l 2,16,17
 348 34 348 34 390.5 82.5 c 128,-1,18
 433 131 433 131 433 222 c 2,19,-1
 433 468 l 2,10,11
EndSplineSet
EndChar

StartChar: E
Encoding: 69 69 40
Width: 622
GlyphClass: 2
Flags: W
LayerCount: 2
Fore
SplineSet
582 194 m 2,0,1
 582 140 582 140 557 98.5 c 128,-1,2
 532 57 532 57 492 34 c 0,3,4
 414 -10 414 -10 333 -10 c 0,5,6
 211 -10 211 -10 135.5 65.5 c 128,-1,7
 60 141 60 141 60 254 c 2,8,-1
 60 436 l 2,9,10
 60 549 60 549 135.5 624.5 c 128,-1,11
 211 700 211 700 333 700 c 0,12,13
 429 700 429 700 505.5 646.5 c 128,-1,14
 582 593 582 593 582 499 c 2,15,-1
 582 486 l 1,16,-1
 446 486 l 1,17,-1
 446 508 l 2,18,19
 446 578 446 578 417 621.5 c 128,-1,20
 388 665 388 665 332.5 665 c 128,-1,21
 277 665 277 665 248 622 c 128,-1,22
 219 579 219 579 219 508 c 2,23,-1
 219 388 l 1,24,-1
 483 388 l 1,25,-1
 483 341 l 1,26,-1
 219 341 l 1,27,-1
 219 182 l 2,28,29
 219 111 219 111 248 68 c 128,-1,30
 277 25 277 25 332.5 25 c 128,-1,31
 388 25 388 25 417 68.5 c 128,-1,32
 446 112 446 112 446 182 c 2,33,-1
 446 204 l 1,34,-1
 582 204 l 1,35,-1
 582 194 l 2,0,1
EndSplineSet
EndChar

StartChar: F
Encoding: 70 70 41
Width: 524
GlyphClass: 2
Flags: W
LayerCount: 2
Fore
SplineSet
504 486 m 1,0,-1
 373 486 l 1,1,-1
 373 583 l 2,2,3
 373 621 373 621 356.5 643 c 128,-1,4
 340 665 340 665 309 665 c 128,-1,5
 278 665 278 665 261 642.5 c 128,-1,6
 244 620 244 620 244 583 c 2,7,-1
 244 388 l 1,8,-1
 396 388 l 1,9,-1
 396 341 l 1,10,-1
 244 341 l 1,11,-1
 244 0 l 1,12,-1
 85 0 l 1,13,-1
 85 341 l 1,14,-1
 45 341 l 1,15,-1
 45 388 l 1,16,-1
 85 388 l 1,17,-1
 85 527 l 2,18,19
 85 607 85 607 150.5 653.5 c 128,-1,20
 216 700 216 700 296.5 700 c 128,-1,21
 377 700 377 700 440.5 650.5 c 128,-1,22
 504 601 504 601 504 521 c 2,23,-1
 504 486 l 1,0,-1
EndSplineSet
EndChar

StartChar: G
Encoding: 71 71 42
Width: 654
GlyphClass: 2
Flags: W
LayerCount: 2
Fore
SplineSet
604 79 m 2,0,1
 604 -45 604 -45 566 -104 c 0,2,3
 522 -173 522 -173 448 -196 c 0,4,5
 403 -210 403 -210 344 -210 c 0,6,7
 203 -210 203 -210 111 -132 c 1,8,-1
 132 -103 l 1,9,10
 218 -170 218 -170 310 -170 c 0,11,12
 454 -170 454 -170 454 12 c 2,13,-1
 454 68 l 1,14,15
 439 37 439 37 406.5 13.5 c 128,-1,16
 374 -10 374 -10 326 -10 c 0,17,18
 205 -10 205 -10 132.5 63.5 c 128,-1,19
 60 137 60 137 60 252 c 2,20,-1
 60 437 l 2,21,22
 60 549 60 549 135 624.5 c 128,-1,23
 210 700 210 700 331 700 c 0,24,25
 426 700 426 700 502 646.5 c 128,-1,26
 578 593 578 593 578 500 c 2,27,-1
 578 486 l 1,28,-1
 444 486 l 1,29,-1
 443 510 l 2,30,31
 440 580 440 580 412 622.5 c 128,-1,32
 384 665 384 665 330 665 c 128,-1,33
 276 665 276 665 247 622 c 128,-1,34
 218 579 218 579 218 510 c 2,35,-1
 218 181 l 2,36,37
 218 111 218 111 247 68 c 128,-1,38
 276 25 276 25 332 25 c 128,-1,39
 388 25 388 25 416.5 68.5 c 128,-1,40
 445 112 445 112 445 181 c 2,41,-1
 445 202 l 1,42,-1
 604 202 l 1,43,-1
 604 79 l 2,0,1
EndSplineSet
EndChar

StartChar: H
Encoding: 72 72 43
Width: 681
GlyphClass: 2
Flags: W
LayerCount: 2
Fore
SplineSet
611 0 m 1,0,-1
 452 0 l 1,1,-1
 452 340 l 1,2,-1
 228 340 l 1,3,-1
 228 0 l 1,4,-1
 70 0 l 1,5,-1
 70 690 l 1,6,-1
 228 690 l 1,7,-1
 228 388 l 1,8,-1
 452 388 l 1,9,-1
 452 690 l 1,10,-1
 611 690 l 1,11,-1
 611 0 l 1,0,-1
EndSplineSet
EndChar

StartChar: I
Encoding: 73 73 44
Width: 299
GlyphClass: 2
Flags: W
LayerCount: 2
Fore
SplineSet
229 690 m 1,0,-1
 229 0 l 1,1,-1
 70 0 l 1,2,-1
 70 690 l 1,3,-1
 229 690 l 1,0,-1
EndSplineSet
EndChar

StartChar: J
Encoding: 74 74 45
Width: 528
GlyphClass: 2
Flags: W
LayerCount: 2
Fore
SplineSet
468 690 m 1,0,-1
 468 167 l 2,1,2
 468 94 468 94 403.5 42 c 128,-1,3
 339 -10 339 -10 239.5 -10 c 128,-1,4
 140 -10 140 -10 80 41.5 c 128,-1,5
 20 93 20 93 20 168 c 2,6,-1
 20 204 l 1,7,-1
 150 204 l 1,8,-1
 150 115 l 2,9,10
 150 77 150 77 173 51.5 c 128,-1,11
 196 26 196 26 234 26 c 0,12,13
 309 26 309 26 309 121 c 2,14,-1
 309 690 l 1,15,-1
 468 690 l 1,0,-1
EndSplineSet
EndChar

StartChar: K
Encoding: 75 75 46
Width: 578
GlyphClass: 2
Flags: W
LayerCount: 2
Fore
SplineSet
528 0 m 1,0,-1
 377 0 l 1,1,-1
 377 135 l 2,2,3
 377 353 377 353 228 369 c 1,4,-1
 228 0 l 1,5,-1
 70 0 l 1,6,-1
 70 690 l 1,7,-1
 228 690 l 1,8,-1
 228 411 l 1,9,10
 277 422 277 422 316.5 465 c 128,-1,11
 356 508 356 508 356 565 c 2,12,-1
 356 690 l 1,13,-1
 515 690 l 1,14,-1
 515 638 l 2,15,16
 515 565 515 565 470.5 498.5 c 128,-1,17
 426 432 426 432 355 401 c 1,18,19
 521 359 521 359 528 153 c 0,20,21
 528 137 528 137 528 111 c 2,22,-1
 528 0 l 1,0,-1
EndSplineSet
EndChar

StartChar: L
Encoding: 76 76 47
Width: 417
GlyphClass: 2
Flags: W
LayerCount: 2
Fore
SplineSet
412 0 m 1,0,-1
 70 0 l 1,1,-1
 70 690 l 1,2,-1
 228 690 l 1,3,-1
 228 47 l 1,4,-1
 412 47 l 1,5,-1
 412 0 l 1,0,-1
EndSplineSet
EndChar

StartChar: M
Encoding: 77 77 48
Width: 1028
GlyphClass: 2
Flags: W
LayerCount: 2
Fore
SplineSet
598 0 m 1,0,-1
 438 0 l 1,1,-1
 438 513 l 2,2,3
 438 604 438 604 418.5 634.5 c 128,-1,4
 399 665 399 665 364 665 c 0,5,6
 310 665 310 665 269 605 c 128,-1,7
 228 545 228 545 228 464 c 2,8,-1
 228 0 l 1,9,-1
 70 0 l 1,10,-1
 70 690 l 1,11,-1
 228 690 l 1,12,-1
 228 575 l 1,13,14
 248 634 248 634 289.5 667 c 128,-1,15
 331 700 331 700 387 700 c 0,16,17
 553 700 553 700 588 551 c 1,18,19
 608 618 608 618 651.5 659 c 128,-1,20
 695 700 695 700 757 700 c 0,21,22
 968 700 968 700 968 462 c 2,23,-1
 968 0 l 1,24,-1
 808 0 l 1,25,-1
 808 513 l 2,26,27
 808 604 808 604 788.5 634.5 c 128,-1,28
 769 665 769 665 734 665 c 0,29,30
 680 665 680 665 639 605 c 128,-1,31
 598 545 598 545 598 464 c 2,32,-1
 598 0 l 1,0,-1
EndSplineSet
EndChar

StartChar: N
Encoding: 78 78 49
Width: 676
GlyphClass: 2
Flags: W
LayerCount: 2
Fore
SplineSet
616 0 m 1,0,-1
 456 0 l 1,1,-1
 456 503 l 2,2,3
 456 665 456 665 364 665 c 0,4,5
 310 665 310 665 269 605 c 128,-1,6
 228 545 228 545 228 464 c 2,7,-1
 228 0 l 1,8,-1
 70 0 l 1,9,-1
 70 690 l 1,10,-1
 228 690 l 1,11,-1
 228 575 l 1,12,13
 248 634 248 634 289 667 c 128,-1,14
 330 700 330 700 386 700 c 0,15,16
 487 700 487 700 551.5 638 c 128,-1,17
 616 576 616 576 616 452 c 2,18,-1
 616 0 l 1,0,-1
EndSplineSet
EndChar

StartChar: O
Encoding: 79 79 50
Width: 666
GlyphClass: 2
Flags: W
LayerCount: 2
Fore
SplineSet
606 260 m 2,0,1
 606 137 606 137 534 63.5 c 128,-1,2
 462 -10 462 -10 332.5 -10 c 128,-1,3
 203 -10 203 -10 131.5 63.5 c 128,-1,4
 60 137 60 137 60 260 c 2,5,-1
 60 429 l 2,6,7
 60 552 60 552 131.5 626 c 128,-1,8
 203 700 203 700 332.5 700 c 128,-1,9
 462 700 462 700 534 626 c 128,-1,10
 606 552 606 552 606 429 c 2,11,-1
 606 260 l 2,0,1
446 182 m 2,12,-1
 446 508 l 2,13,14
 446 578 446 578 417 621.5 c 128,-1,15
 388 665 388 665 332.5 665 c 128,-1,16
 277 665 277 665 248 621.5 c 128,-1,17
 219 578 219 578 219 508 c 2,18,-1
 219 182 l 2,19,20
 219 111 219 111 248 68 c 128,-1,21
 277 25 277 25 332.5 25 c 128,-1,22
 388 25 388 25 417 68.5 c 128,-1,23
 446 112 446 112 446 182 c 2,12,-1
EndSplineSet
EndChar

StartChar: P
Encoding: 80 80 51
Width: 681
GlyphClass: 2
Flags: W
LayerCount: 2
Fore
SplineSet
230 468 m 2,0,-1
 230 231 l 2,1,2
 230 150 230 150 268 87.5 c 128,-1,3
 306 25 306 25 367 25 c 0,4,5
 410 25 410 25 436.5 67 c 128,-1,6
 463 109 463 109 463 197 c 2,7,-1
 463 497 l 2,8,9
 463 546 463 546 452 586 c 0,10,11
 429 665 429 665 367 665 c 128,-1,12
 305 665 305 665 267.5 605 c 128,-1,13
 230 545 230 545 230 468 c 2,0,-1
229 -200 m 1,14,-1
 70 -200 l 1,15,-1
 70 690 l 1,16,-1
 229 690 l 1,17,-1
 229 580 l 1,18,19
 247 630 247 630 289.5 665 c 128,-1,20
 332 700 332 700 385 700 c 0,21,22
 481 700 481 700 551 634.5 c 128,-1,23
 621 569 621 569 621 446 c 2,24,-1
 621 247 l 2,25,26
 621 125 621 125 557 57.5 c 128,-1,27
 493 -10 493 -10 385 -10 c 0,28,29
 336 -10 336 -10 294.5 21 c 128,-1,30
 253 52 253 52 229 114 c 1,31,-1
 229 -200 l 1,14,-1
EndSplineSet
EndChar

StartChar: Q
Encoding: 81 81 52
Width: 681
GlyphClass: 2
Flags: W
LayerCount: 2
Fore
SplineSet
451 227 m 2,0,-1
 451 468 l 2,1,2
 451 543 451 543 411.5 604 c 128,-1,3
 372 665 372 665 308 665 c 0,4,5
 279 665 279 665 259.5 646 c 128,-1,6
 240 627 240 627 232 596 c 1,7,8
 218 548 218 548 218 497 c 2,9,-1
 218 197 l 2,10,11
 218 109 218 109 244.5 67 c 128,-1,12
 271 25 271 25 314 25 c 0,13,14
 377 25 377 25 414 85 c 128,-1,15
 451 145 451 145 451 227 c 2,0,-1
611 -200 m 1,16,-1
 452 -200 l 1,17,-1
 452 110 l 1,18,19
 429 50 429 50 386 20 c 128,-1,20
 343 -10 343 -10 296 -10 c 0,21,22
 188 -10 188 -10 124 57.5 c 128,-1,23
 60 125 60 125 60 247 c 2,24,-1
 60 446 l 2,25,26
 60 569 60 569 131 634.5 c 128,-1,27
 202 700 202 700 298 700 c 0,28,29
 354 700 354 700 395 663.5 c 128,-1,30
 436 627 436 627 452 575 c 1,31,-1
 452 690 l 1,32,-1
 611 690 l 1,33,-1
 611 -200 l 1,16,-1
EndSplineSet
EndChar

StartChar: R
Encoding: 82 82 53
Width: 558
GlyphClass: 2
Flags: W
LayerCount: 2
Fore
SplineSet
337.5 623.5 m 128,-1,1
 304 657 304 657 233 657 c 2,2,-1
 178 657 l 1,3,-1
 178 0 l 1,4,-1
 20 0 l 1,5,-1
 20 690 l 1,6,-1
 265 690 l 2,7,8
 524 690 524 690 524 512 c 0,9,10
 524 393 524 393 343 339 c 1,11,12
 535 301 535 301 535 135 c 2,13,-1
 535 0 l 1,14,-1
 377 0 l 1,15,-1
 377 169 l 2,16,17
 377 245 377 245 346 285 c 128,-1,18
 315 325 315 325 259 325 c 0,19,20
 243 325 243 325 216 323 c 1,21,-1
 216 349 l 1,22,23
 270 351 270 351 316 384 c 1,24,25
 371 422 371 422 371 506 c 128,-1,0
 371 590 371 590 337.5 623.5 c 128,-1,1
EndSplineSet
EndChar

StartChar: S
Encoding: 83 83 54
Width: 570
GlyphClass: 2
Flags: W
LayerCount: 2
Fore
SplineSet
469 325 m 1,0,1
 546 276 546 276 546 195.5 c 128,-1,2
 546 115 546 115 462.5 52.5 c 128,-1,3
 379 -10 379 -10 276 -10 c 128,-1,4
 173 -10 173 -10 99 42.5 c 128,-1,5
 25 95 25 95 25 193 c 2,6,-1
 25 204 l 1,7,-1
 152 204 l 1,8,-1
 152 182 l 2,9,10
 152 115 152 115 189.5 70.5 c 128,-1,11
 227 26 227 26 281.5 26 c 128,-1,12
 336 26 336 26 369.5 60.5 c 128,-1,13
 403 95 403 95 403 156 c 0,14,15
 403 202 403 202 333 245 c 2,16,-1
 133 367 l 2,17,18
 50 417 50 417 50 507 c 0,19,20
 50 580 50 580 118 640 c 128,-1,21
 186 700 186 700 286 700 c 0,22,23
 339 700 339 700 379.5 684 c 128,-1,24
 420 668 420 668 440 644 c 0,25,26
 477 599 477 599 477 569 c 2,27,-1
 477 563 l 1,28,-1
 443 563 l 1,29,30
 443 597 443 597 405.5 631 c 128,-1,31
 368 665 368 665 314.5 665 c 128,-1,32
 261 665 261 665 223 632 c 128,-1,33
 185 599 185 599 185 547 c 0,34,35
 185 516 185 516 206.5 494 c 128,-1,36
 228 472 228 472 265 450 c 2,37,-1
 469 325 l 1,0,1
EndSplineSet
EndChar

StartChar: T
Encoding: 84 84 55
Width: 713
GlyphClass: 2
Flags: W
LayerCount: 2
Fore
SplineSet
693 500 m 1,0,-1
 539 500 l 1,1,-1
 539 518 l 2,2,3
 539 576 539 576 513.5 606.5 c 128,-1,4
 488 637 488 637 446 655 c 1,5,-1
 436 656 l 1,6,-1
 436 0 l 1,7,-1
 277 0 l 1,8,-1
 277 656 l 1,9,-1
 267 656 l 1,10,11
 173 619 173 619 173 517 c 2,12,-1
 173 500 l 1,13,-1
 20 500 l 1,14,-1
 20 517 l 2,15,16
 20 570 20 570 49 607.5 c 128,-1,17
 78 645 78 645 128.5 664.5 c 128,-1,18
 179 684 179 684 234.5 692 c 128,-1,19
 290 700 290 700 356 700 c 128,-1,20
 422 700 422 700 477.5 692 c 128,-1,21
 533 684 533 684 584 664.5 c 128,-1,22
 635 645 635 645 664 607.5 c 128,-1,23
 693 570 693 570 693 517 c 2,24,-1
 693 500 l 1,0,-1
EndSplineSet
EndChar

StartChar: U
Encoding: 85 85 56
Width: 681
GlyphClass: 2
Flags: W
LayerCount: 2
Fore
SplineSet
611 0 m 1,0,-1
 452 0 l 1,1,-1
 452 110 l 1,2,3
 433 55 433 55 390.5 22.5 c 128,-1,4
 348 -10 348 -10 296 -10 c 0,5,6
 188 -10 188 -10 124 57.5 c 128,-1,7
 60 125 60 125 60 247 c 2,8,-1
 60 690 l 1,9,-1
 218 690 l 1,10,-1
 218 197 l 2,11,12
 218 25 218 25 319 25 c 0,13,14
 375 25 375 25 413 84 c 128,-1,15
 451 143 451 143 451 230 c 2,16,-1
 451 690 l 1,17,-1
 611 690 l 1,18,-1
 611 0 l 1,0,-1
EndSplineSet
EndChar

StartChar: V
Encoding: 86 86 57
Width: 496
GlyphClass: 2
Flags: W
LayerCount: 2
Fore
SplineSet
491 690 m 1,0,-1
 318 0 l 1,1,-1
 167 0 l 1,2,-1
 5 690 l 1,3,-1
 165 690 l 1,4,-1
 297 125 l 1,5,-1
 437 690 l 1,6,-1
 491 690 l 1,0,-1
EndSplineSet
EndChar

StartChar: W
Encoding: 87 87 58
Width: 823
GlyphClass: 2
Flags: W
LayerCount: 2
Fore
SplineSet
506 0 m 1,0,-1
 412 376 l 1,1,-1
 318 0 l 1,2,-1
 167 0 l 1,3,-1
 5 690 l 1,4,-1
 165 690 l 1,5,-1
 297 125 l 1,6,-1
 385 482 l 1,7,-1
 332 690 l 1,8,-1
 386 690 l 1,9,-1
 412 590 l 1,10,-1
 437 690 l 1,11,-1
 491 690 l 1,12,-1
 438 482 l 1,13,-1
 527 125 l 1,14,-1
 658 690 l 1,15,-1
 818 690 l 1,16,-1
 657 0 l 1,17,-1
 506 0 l 1,0,-1
EndSplineSet
EndChar

StartChar: X
Encoding: 88 88 59
Width: 808
GlyphClass: 2
Flags: W
LayerCount: 2
Fore
SplineSet
763 167 m 2,0,1
 763 95 763 95 698 42.5 c 128,-1,2
 633 -10 633 -10 543 -10 c 128,-1,3
 453 -10 453 -10 404 24 c 1,4,5
 354 -10 354 -10 264.5 -10 c 128,-1,6
 175 -10 175 -10 110 42.5 c 128,-1,7
 45 95 45 95 45 167 c 2,8,-1
 45 179 l 1,9,-1
 175 179 l 1,10,-1
 175 115 l 2,11,12
 175 77 175 77 195.5 51 c 128,-1,13
 216 25 216 25 250.5 25 c 128,-1,14
 285 25 285 25 304.5 50 c 128,-1,15
 324 75 324 75 324 119 c 2,16,-1
 324 571 l 2,17,18
 324 615 324 615 304.5 640 c 128,-1,19
 285 665 285 665 250.5 665 c 128,-1,20
 216 665 216 665 195.5 639 c 128,-1,21
 175 613 175 613 175 575 c 2,22,-1
 175 511 l 1,23,-1
 45 511 l 1,24,-1
 45 523 l 2,25,26
 45 596 45 596 110 648 c 128,-1,27
 175 700 175 700 264.5 700 c 128,-1,28
 354 700 354 700 404 666 c 1,29,30
 453 700 453 700 543 700 c 128,-1,31
 633 700 633 700 698 648 c 128,-1,32
 763 596 763 596 763 523 c 2,33,-1
 763 511 l 1,34,-1
 633 511 l 1,35,-1
 633 575 l 2,36,37
 633 613 633 613 612.5 639 c 128,-1,38
 592 665 592 665 557.5 665 c 128,-1,39
 523 665 523 665 503.5 640 c 128,-1,40
 484 615 484 615 484 571 c 2,41,-1
 484 119 l 2,42,43
 484 75 484 75 503.5 50 c 128,-1,44
 523 25 523 25 557.5 25 c 128,-1,45
 592 25 592 25 612.5 51 c 128,-1,46
 633 77 633 77 633 115 c 2,47,-1
 633 179 l 1,48,-1
 763 179 l 1,49,-1
 763 167 l 2,0,1
EndSplineSet
EndChar

StartChar: Y
Encoding: 89 89 60
Width: 615
GlyphClass: 2
Flags: W
LayerCount: 2
Fore
SplineSet
590 611 m 2,0,1
 590 521 590 521 534 451.5 c 128,-1,2
 478 382 478 382 387 357 c 1,3,-1
 387 0 l 1,4,-1
 228 0 l 1,5,-1
 228 356 l 1,6,7
 137 381 137 381 81 451 c 128,-1,8
 25 521 25 521 25 611 c 2,9,-1
 25 690 l 1,10,-1
 184 690 l 1,11,-1
 184 538 l 2,12,13
 184 471 184 471 218.5 426.5 c 128,-1,14
 253 382 253 382 307.5 382 c 128,-1,15
 362 382 362 382 396 426 c 128,-1,16
 430 470 430 470 430 538 c 2,17,-1
 430 690 l 1,18,-1
 590 690 l 1,19,-1
 590 611 l 2,0,1
EndSplineSet
EndChar

StartChar: Z
Encoding: 90 90 61
Width: 573
GlyphClass: 2
Flags: W
LayerCount: 2
Fore
SplineSet
543 0 m 1,0,-1
 30 0 l 1,1,-1
 346 643 l 1,2,-1
 36 643 l 1,3,-1
 36 690 l 1,4,-1
 528 690 l 1,5,-1
 209 47 l 1,6,-1
 543 47 l 1,7,-1
 543 0 l 1,0,-1
EndSplineSet
EndChar

StartChar: bracketleft
Encoding: 91 91 62
Width: 316
GlyphClass: 2
Flags: W
LayerCount: 2
Fore
SplineSet
196 -10 m 1,0,-1
 296 -10 l 1,1,-1
 296 -57 l 1,2,-1
 60 -57 l 1,3,-1
 60 737 l 1,4,-1
 296 737 l 1,5,-1
 296 690 l 1,6,-1
 196 690 l 1,7,-1
 196 -10 l 1,0,-1
EndSplineSet
EndChar

StartChar: backslash
Encoding: 92 92 63
Width: 405
GlyphClass: 2
Flags: W
LayerCount: 2
Fore
SplineSet
50 690 m 1,0,-1
 184 690 l 1,1,-1
 355 0 l 1,2,-1
 221 0 l 1,3,-1
 50 690 l 1,0,-1
EndSplineSet
EndChar

StartChar: bracketright
Encoding: 93 93 64
Width: 316
GlyphClass: 2
Flags: W
LayerCount: 2
Fore
SplineSet
20 -10 m 1,0,-1
 120 -10 l 1,1,-1
 120 690 l 1,2,-1
 20 690 l 1,3,-1
 20 737 l 1,4,-1
 256 737 l 1,5,-1
 256 -57 l 1,6,-1
 20 -57 l 1,7,-1
 20 -10 l 1,0,-1
EndSplineSet
EndChar

StartChar: asciicircum
Encoding: 94 94 65
Width: 566
GlyphClass: 2
Flags: W
LayerCount: 2
Fore
SplineSet
283 712 m 1,0,-1
 487 397 l 1,1,-1
 387 397 l 1,2,-1
 281 555 l 1,3,-1
 179 397 l 1,4,-1
 79 397 l 1,5,-1
 283 712 l 1,0,-1
EndSplineSet
EndChar

StartChar: underscore
Encoding: 95 95 66
Width: 500
GlyphClass: 2
Flags: W
LayerCount: 2
Fore
SplineSet
500 -10 m 1,0,-1
 500 -70 l 1,1,-1
 0 -70 l 1,2,-1
 0 -10 l 1,3,-1
 500 -10 l 1,0,-1
EndSplineSet
EndChar

StartChar: grave
Encoding: 96 96 67
Width: 281
GlyphClass: 2
Flags: W
LayerCount: 2
Fore
SplineSet
64 653 m 1,0,1
 50 667 50 667 50 684.5 c 128,-1,2
 50 702 50 702 66.5 718 c 128,-1,3
 83 734 83 734 105 734 c 128,-1,4
 127 734 127 734 138 714 c 2,5,-1
 231 543 l 1,6,-1
 210 526 l 1,7,-1
 64 653 l 1,0,1
EndSplineSet
EndChar

StartChar: a
Encoding: 97 97 68
Width: 524
GlyphClass: 2
Flags: W
LayerCount: 2
Fore
SplineSet
468 40 m 0,0,1
 488 40 488 40 500 72 c 1,2,-1
 519 69 l 1,3,4
 519 59 519 59 511.5 43.5 c 128,-1,5
 504 28 504 28 494 18 c 0,6,7
 468 -10 468 -10 416 -10 c 0,8,9
 323 -10 323 -10 311 64 c 1,10,11
 303 37 303 37 277 13.5 c 128,-1,12
 251 -10 251 -10 211 -10 c 0,13,14
 133 -10 133 -10 91.5 32.5 c 128,-1,15
 50 75 50 75 50 149 c 2,16,-1
 50 322 l 2,17,18
 50 394 50 394 94.5 437 c 128,-1,19
 139 480 139 480 211 480 c 0,20,21
 250 480 250 480 276.5 459 c 128,-1,22
 303 438 303 438 309 414 c 1,23,-1
 309 470 l 1,24,-1
 445 470 l 1,25,-1
 445 74 l 2,26,27
 445 40 445 40 468 40 c 0,0,1
309 334 m 2,28,29
 309 376 309 376 287 413 c 128,-1,30
 265 450 265 450 236.5 450 c 128,-1,31
 208 450 208 450 197.5 426 c 128,-1,32
 187 402 187 402 187 356 c 2,33,-1
 187 115 l 2,34,35
 187 66 187 66 198 44 c 128,-1,36
 209 22 209 22 237 22 c 128,-1,37
 265 22 265 22 287 57 c 128,-1,38
 309 92 309 92 309 137 c 2,39,-1
 309 334 l 2,28,29
EndSplineSet
EndChar

StartChar: b
Encoding: 98 98 69
Width: 505
GlyphClass: 2
Flags: W
LayerCount: 2
Fore
SplineSet
196 0 m 1,0,-1
 60 0 l 1,1,-1
 60 690 l 1,2,-1
 196 690 l 1,3,-1
 196 414 l 1,4,5
 202 438 202 438 228.5 459 c 128,-1,6
 255 480 255 480 294 480 c 0,7,8
 366 480 366 480 410.5 437 c 128,-1,9
 455 394 455 394 455 322 c 2,10,-1
 455 149 l 2,11,12
 455 75 455 75 413.5 32.5 c 128,-1,13
 372 -10 372 -10 294 -10 c 0,14,15
 258 -10 258 -10 232 11 c 128,-1,16
 206 32 206 32 196 58 c 1,17,-1
 196 0 l 1,0,-1
196 334 m 2,18,-1
 196 137 l 2,19,20
 196 92 196 92 218 57 c 128,-1,21
 240 22 240 22 268 22 c 128,-1,22
 296 22 296 22 307 44 c 128,-1,23
 318 66 318 66 318 115 c 2,24,-1
 318 356 l 2,25,26
 318 402 318 402 307.5 426 c 128,-1,27
 297 450 297 450 268.5 450 c 128,-1,28
 240 450 240 450 218 413 c 128,-1,29
 196 376 196 376 196 334 c 2,18,-1
EndSplineSet
EndChar

StartChar: c
Encoding: 99 99 70
Width: 404
GlyphClass: 2
Flags: W
LayerCount: 2
Fore
SplineSet
369 122 m 1,0,1
 369 79 369 79 334 34.5 c 128,-1,2
 299 -10 299 -10 237 -10 c 0,3,4
 155 -10 155 -10 102.5 36.5 c 128,-1,5
 50 83 50 83 50 157 c 2,6,-1
 50 313 l 2,7,8
 50 387 50 387 103 433.5 c 128,-1,9
 156 480 156 480 236 480 c 0,10,11
 267 480 267 480 292 468.5 c 128,-1,12
 317 457 317 457 331 441 c 128,-1,13
 345 425 345 425 354 406 c 0,14,15
 369 373 369 373 369 349 c 1,16,-1
 339 349 l 1,17,18
 339 381 339 381 314.5 415.5 c 128,-1,19
 290 450 290 450 250 450 c 0,20,21
 187 450 187 450 187 352 c 2,22,-1
 187 118 l 2,23,24
 187 73 187 73 204 46.5 c 128,-1,25
 221 20 221 20 256 20 c 128,-1,26
 291 20 291 20 315 58.5 c 128,-1,27
 339 97 339 97 339 122 c 1,28,-1
 369 122 l 1,0,1
EndSplineSet
EndChar

StartChar: d
Encoding: 100 100 71
Width: 505
GlyphClass: 2
Flags: W
LayerCount: 2
Fore
SplineSet
445 0 m 1,0,-1
 309 0 l 1,1,-1
 309 58 l 1,2,3
 299 32 299 32 273 11 c 128,-1,4
 247 -10 247 -10 211 -10 c 0,5,6
 133 -10 133 -10 91.5 32.5 c 128,-1,7
 50 75 50 75 50 149 c 2,8,-1
 50 322 l 2,9,10
 50 394 50 394 94.5 437 c 128,-1,11
 139 480 139 480 211 480 c 0,12,13
 250 480 250 480 276.5 459 c 128,-1,14
 303 438 303 438 309 414 c 1,15,-1
 309 690 l 1,16,-1
 445 690 l 1,17,-1
 445 0 l 1,0,-1
309 334 m 2,18,19
 309 376 309 376 287 413 c 128,-1,20
 265 450 265 450 236.5 450 c 128,-1,21
 208 450 208 450 197.5 426 c 128,-1,22
 187 402 187 402 187 356 c 2,23,-1
 187 115 l 2,24,25
 187 66 187 66 198 44 c 128,-1,26
 209 22 209 22 237 22 c 128,-1,27
 265 22 265 22 287 57 c 128,-1,28
 309 92 309 92 309 137 c 2,29,-1
 309 334 l 2,18,19
EndSplineSet
EndChar

StartChar: e
Encoding: 101 101 72
Width: 461
GlyphClass: 2
Flags: W
LayerCount: 2
Fore
SplineSet
416 232 m 1,0,-1
 186 232 l 1,1,-1
 186 118 l 2,2,3
 186 20 186 20 266 20 c 0,4,5
 313 20 313 20 345 55.5 c 128,-1,6
 377 91 377 91 377 115 c 1,7,-1
 401 115 l 1,8,9
 401 80 401 80 361.5 35 c 128,-1,10
 322 -10 322 -10 236 -10 c 128,-1,11
 150 -10 150 -10 100 38 c 128,-1,12
 50 86 50 86 50 157 c 2,13,-1
 50 314 l 2,14,15
 50 385 50 385 103 432.5 c 128,-1,16
 156 480 156 480 243 480 c 128,-1,17
 330 480 330 480 373 430.5 c 128,-1,18
 416 381 416 381 416 311 c 2,19,-1
 416 232 l 1,0,-1
309 262 m 1,20,-1
 309 353 l 2,21,22
 309 399 309 399 293.5 424.5 c 128,-1,23
 278 450 278 450 247 450 c 128,-1,24
 216 450 216 450 201 421.5 c 128,-1,25
 186 393 186 393 186 353 c 2,26,-1
 186 262 l 1,27,-1
 309 262 l 1,20,-1
EndSplineSet
EndChar

StartChar: f
Encoding: 102 102 73
Width: 333
GlyphClass: 2
Flags: W
LayerCount: 2
Fore
SplineSet
294 300 m 1,0,-1
 294 270 l 1,1,-1
 209 270 l 1,2,-1
 209 0 l 1,3,-1
 73 0 l 1,4,-1
 73 270 l 1,5,-1
 40 270 l 1,6,-1
 40 300 l 1,7,-1
 73 300 l 1,8,-1
 73 533 l 2,9,10
 73 610 73 610 110.5 655 c 128,-1,11
 148 700 148 700 219 700 c 0,12,13
 256 700 256 700 279.5 683 c 128,-1,14
 303 666 303 666 310 646 c 1,15,-1
 310 720 l 1,16,-1
 333 720 l 1,17,-1
 333 515 l 1,18,-1
 310 515 l 1,19,-1
 310 554 l 2,20,21
 310 604 310 604 291 634.5 c 128,-1,22
 272 665 272 665 247 665 c 0,23,24
 209 665 209 665 209 587 c 2,25,-1
 209 300 l 1,26,-1
 294 300 l 1,0,-1
EndSplineSet
EndChar

StartChar: g
Encoding: 103 103 74
Width: 505
GlyphClass: 2
Flags: W
LayerCount: 2
Fore
SplineSet
445 470 m 1,0,-1
 445 70 l 2,1,2
 445 -41 445 -41 383.5 -104 c 128,-1,3
 322 -167 322 -167 221 -167 c 0,4,5
 181 -167 181 -167 150 -149.5 c 128,-1,6
 119 -132 119 -132 108 -115 c 2,7,-1
 96 -98 l 1,8,-1
 116 -82 l 1,9,10
 119 -88 119 -88 129 -98.5 c 128,-1,11
 139 -109 139 -109 148 -116 c 0,12,13
 174 -133 174 -133 207.5 -133 c 128,-1,14
 241 -133 241 -133 262 -120.5 c 128,-1,15
 283 -108 283 -108 294 -82 c 0,16,17
 311 -39 311 -39 311 44 c 2,18,-1
 311 64 l 1,19,20
 303 37 303 37 277 13.5 c 128,-1,21
 251 -10 251 -10 211 -10 c 0,22,23
 133 -10 133 -10 91.5 32.5 c 128,-1,24
 50 75 50 75 50 149 c 2,25,-1
 50 322 l 2,26,27
 50 394 50 394 94.5 437 c 128,-1,28
 139 480 139 480 211 480 c 0,29,30
 250 480 250 480 276.5 459 c 128,-1,31
 303 438 303 438 309 414 c 1,32,-1
 309 470 l 1,33,-1
 445 470 l 1,0,-1
309 334 m 2,34,35
 309 376 309 376 287 413 c 128,-1,36
 265 450 265 450 236.5 450 c 128,-1,37
 208 450 208 450 197.5 426 c 128,-1,38
 187 402 187 402 187 356 c 2,39,-1
 187 115 l 2,40,41
 187 66 187 66 198 44 c 128,-1,42
 209 22 209 22 237 22 c 128,-1,43
 265 22 265 22 287 57 c 128,-1,44
 309 92 309 92 309 137 c 2,45,-1
 309 334 l 2,34,35
EndSplineSet
EndChar

StartChar: h
Encoding: 104 104 75
Width: 534
GlyphClass: 2
Flags: W
LayerCount: 2
Fore
SplineSet
478 40 m 0,0,1
 498 40 498 40 510 72 c 1,2,-1
 529 69 l 1,3,4
 529 59 529 59 521.5 43.5 c 128,-1,5
 514 28 514 28 504 18 c 0,6,7
 478 -10 478 -10 426 -10 c 0,8,9
 319 -10 319 -10 319 89 c 2,10,-1
 319 366 l 2,11,12
 319 406 319 406 303.5 425.5 c 128,-1,13
 288 445 288 445 261.5 445 c 128,-1,14
 235 445 235 445 215.5 411.5 c 128,-1,15
 196 378 196 378 196 334 c 2,16,-1
 196 0 l 1,17,-1
 60 0 l 1,18,-1
 60 690 l 1,19,-1
 196 690 l 1,20,-1
 196 412 l 1,21,22
 223 480 223 480 297 480 c 128,-1,23
 371 480 371 480 413 437.5 c 128,-1,24
 455 395 455 395 455 322 c 2,25,-1
 455 74 l 2,26,27
 455 40 455 40 478 40 c 0,0,1
EndSplineSet
EndChar

StartChar: i
Encoding: 105 105 76
Width: 275
GlyphClass: 2
Flags: W
LayerCount: 2
Fore
SplineSet
219 40 m 0,0,1
 239 40 239 40 251 72 c 1,2,-1
 270 69 l 1,3,4
 270 59 270 59 262.5 43.5 c 128,-1,5
 255 28 255 28 245 18 c 0,6,7
 219 -10 219 -10 167 -10 c 0,8,9
 60 -10 60 -10 60 89 c 2,10,-1
 60 470 l 1,11,-1
 196 470 l 1,12,-1
 196 74 l 2,13,14
 196 40 196 40 219 40 c 0,0,1
197 623 m 128,-1,16
 197 594 197 594 176.5 569 c 128,-1,17
 156 544 156 544 129 544 c 128,-1,18
 102 544 102 544 81 569 c 128,-1,19
 60 594 60 594 60 623 c 128,-1,20
 60 652 60 652 80.5 676 c 128,-1,21
 101 700 101 700 128.5 700 c 128,-1,22
 156 700 156 700 176.5 676 c 128,-1,15
 197 652 197 652 197 623 c 128,-1,16
EndSplineSet
EndChar

StartChar: j
Encoding: 106 106 77
Width: 270
GlyphClass: 2
Flags: W
LayerCount: 2
Fore
SplineSet
19 -128 m 1,0,1
 29 -160 29 -160 51.5 -160 c 128,-1,2
 74 -160 74 -160 74 -126 c 2,3,-1
 74 470 l 1,4,-1
 210 470 l 1,5,-1
 210 -111 l 2,6,7
 210 -210 210 -210 103 -210 c 0,8,9
 48 -210 48 -210 25 -182 c 0,10,11
 3 -156 3 -156 0 -131 c 1,12,-1
 19 -128 l 1,0,1
73 623 m 128,-1,14
 73 652 73 652 93.5 676 c 128,-1,15
 114 700 114 700 141.5 700 c 128,-1,16
 169 700 169 700 189.5 676 c 128,-1,17
 210 652 210 652 210 623 c 128,-1,18
 210 594 210 594 189 569 c 128,-1,19
 168 544 168 544 141 544 c 128,-1,20
 114 544 114 544 93.5 569 c 128,-1,13
 73 594 73 594 73 623 c 128,-1,14
EndSplineSet
EndChar

StartChar: k
Encoding: 107 107 78
Width: 444
GlyphClass: 2
Flags: W
LayerCount: 2
Fore
SplineSet
404 104 m 2,0,-1
 404 0 l 1,1,-1
 277 0 l 1,2,-1
 277 140 l 2,3,4
 277 172 277 172 263 196 c 128,-1,5
 249 220 249 220 225 228 c 1,6,-1
 196 233 l 1,7,-1
 196 0 l 1,8,-1
 60 0 l 1,9,-1
 60 690 l 1,10,-1
 196 690 l 1,11,-1
 196 309 l 1,12,-1
 324 470 l 1,13,-1
 401 470 l 1,14,-1
 232 257 l 1,15,16
 308 247 308 247 356 204.5 c 128,-1,17
 404 162 404 162 404 104 c 2,0,-1
EndSplineSet
EndChar

StartChar: l
Encoding: 108 108 79
Width: 275
GlyphClass: 2
Flags: W
LayerCount: 2
Fore
SplineSet
219 40 m 0,0,1
 239 40 239 40 251 72 c 1,2,-1
 270 69 l 1,3,4
 270 59 270 59 262.5 43.5 c 128,-1,5
 255 28 255 28 245 18 c 0,6,7
 219 -10 219 -10 167 -10 c 0,8,9
 60 -10 60 -10 60 89 c 2,10,-1
 60 690 l 1,11,-1
 196 690 l 1,12,-1
 196 74 l 2,13,14
 196 40 196 40 219 40 c 0,0,1
EndSplineSet
EndChar

StartChar: m
Encoding: 109 109 80
Width: 793
GlyphClass: 2
Flags: W
LayerCount: 2
Fore
SplineSet
737 40 m 0,0,1
 757 40 757 40 769 72 c 1,2,-1
 788 69 l 1,3,4
 788 59 788 59 780.5 43.5 c 128,-1,5
 773 28 773 28 763 18 c 0,6,7
 737 -10 737 -10 685 -10 c 0,8,9
 578 -10 578 -10 578 89 c 2,10,-1
 578 366 l 2,11,12
 578 406 578 406 562.5 425.5 c 128,-1,13
 547 445 547 445 520.5 445 c 128,-1,14
 494 445 494 445 474.5 411.5 c 128,-1,15
 455 378 455 378 455 334 c 2,16,-1
 455 0 l 1,17,-1
 319 0 l 1,18,-1
 319 366 l 2,19,20
 319 406 319 406 303.5 425.5 c 128,-1,21
 288 445 288 445 261.5 445 c 128,-1,22
 235 445 235 445 215.5 411.5 c 128,-1,23
 196 378 196 378 196 334 c 2,24,-1
 196 0 l 1,25,-1
 60 0 l 1,26,-1
 60 470 l 1,27,-1
 196 470 l 1,28,-1
 196 412 l 1,29,30
 223 480 223 480 300 480 c 0,31,32
 353 480 353 480 391 455 c 128,-1,33
 429 430 429 430 445 385 c 1,34,35
 464 439 464 439 491.5 459.5 c 128,-1,36
 519 480 519 480 559 480 c 0,37,38
 630 480 630 480 672 437.5 c 128,-1,39
 714 395 714 395 714 322 c 2,40,-1
 714 74 l 2,41,42
 714 40 714 40 737 40 c 0,0,1
EndSplineSet
EndChar

StartChar: n
Encoding: 110 110 81
Width: 534
GlyphClass: 2
Flags: W
LayerCount: 2
Fore
SplineSet
478 40 m 0,0,1
 498 40 498 40 510 72 c 1,2,-1
 529 69 l 1,3,4
 529 59 529 59 521.5 43.5 c 128,-1,5
 514 28 514 28 504 18 c 0,6,7
 478 -10 478 -10 426 -10 c 0,8,9
 319 -10 319 -10 319 89 c 2,10,-1
 319 366 l 2,11,12
 319 406 319 406 303.5 425.5 c 128,-1,13
 288 445 288 445 261.5 445 c 128,-1,14
 235 445 235 445 215.5 411.5 c 128,-1,15
 196 378 196 378 196 334 c 2,16,-1
 196 0 l 1,17,-1
 60 0 l 1,18,-1
 60 470 l 1,19,-1
 196 470 l 1,20,-1
 196 412 l 1,21,22
 223 480 223 480 297 480 c 128,-1,23
 371 480 371 480 413 437.5 c 128,-1,24
 455 395 455 395 455 322 c 2,25,-1
 455 74 l 2,26,27
 455 40 455 40 478 40 c 0,0,1
EndSplineSet
EndChar

StartChar: o
Encoding: 111 111 82
Width: 496
GlyphClass: 2
Flags: W
LayerCount: 2
Fore
SplineSet
446 157 m 2,0,1
 446 86 446 86 391 38 c 128,-1,2
 336 -10 336 -10 248 -10 c 128,-1,3
 160 -10 160 -10 105 38 c 128,-1,4
 50 86 50 86 50 157 c 2,5,-1
 50 314 l 2,6,7
 50 385 50 385 105 432.5 c 128,-1,8
 160 480 160 480 248 480 c 128,-1,9
 336 480 336 480 391 432.5 c 128,-1,10
 446 385 446 385 446 314 c 2,11,-1
 446 157 l 2,0,1
309 118 m 2,12,-1
 309 353 l 2,13,14
 309 450 309 450 247.5 450 c 128,-1,15
 186 450 186 450 186 353 c 2,16,-1
 186 118 l 2,17,18
 186 20 186 20 247.5 20 c 128,-1,19
 309 20 309 20 309 118 c 2,12,-1
EndSplineSet
EndChar

StartChar: p
Encoding: 112 112 83
Width: 505
GlyphClass: 2
Flags: W
LayerCount: 2
Fore
SplineSet
196 -145 m 1,0,-1
 60 -145 l 1,1,-1
 60 470 l 1,2,-1
 196 470 l 1,3,-1
 196 414 l 1,4,5
 202 438 202 438 228.5 459 c 128,-1,6
 255 480 255 480 294 480 c 0,7,8
 366 480 366 480 410.5 437 c 128,-1,9
 455 394 455 394 455 322 c 2,10,-1
 455 149 l 2,11,12
 455 75 455 75 413.5 32.5 c 128,-1,13
 372 -10 372 -10 294 -10 c 0,14,15
 258 -10 258 -10 232 11 c 128,-1,16
 206 32 206 32 196 58 c 1,17,-1
 196 -145 l 1,0,-1
196 334 m 2,18,-1
 196 137 l 2,19,20
 196 92 196 92 218 57 c 128,-1,21
 240 22 240 22 268 22 c 128,-1,22
 296 22 296 22 307 44 c 128,-1,23
 318 66 318 66 318 115 c 2,24,-1
 318 356 l 2,25,26
 318 402 318 402 307.5 426 c 128,-1,27
 297 450 297 450 268.5 450 c 128,-1,28
 240 450 240 450 218 413 c 128,-1,29
 196 376 196 376 196 334 c 2,18,-1
EndSplineSet
EndChar

StartChar: q
Encoding: 113 113 84
Width: 505
GlyphClass: 2
Flags: W
LayerCount: 2
Fore
SplineSet
445 -145 m 1,0,-1
 309 -145 l 1,1,-1
 309 58 l 1,2,3
 299 32 299 32 273 11 c 128,-1,4
 247 -10 247 -10 211 -10 c 0,5,6
 133 -10 133 -10 91.5 32.5 c 128,-1,7
 50 75 50 75 50 149 c 2,8,-1
 50 322 l 2,9,10
 50 394 50 394 94.5 437 c 128,-1,11
 139 480 139 480 211 480 c 0,12,13
 250 480 250 480 276.5 459 c 128,-1,14
 303 438 303 438 309 414 c 1,15,-1
 309 470 l 1,16,-1
 445 470 l 1,17,-1
 445 -145 l 1,0,-1
309 334 m 2,18,19
 309 376 309 376 287 413 c 128,-1,20
 265 450 265 450 236.5 450 c 128,-1,21
 208 450 208 450 197.5 426 c 128,-1,22
 187 402 187 402 187 356 c 2,23,-1
 187 115 l 2,24,25
 187 66 187 66 198 44 c 128,-1,26
 209 22 209 22 237 22 c 128,-1,27
 265 22 265 22 287 57 c 128,-1,28
 309 92 309 92 309 137 c 2,29,-1
 309 334 l 2,18,19
EndSplineSet
EndChar

StartChar: r
Encoding: 114 114 85
Width: 401
GlyphClass: 2
Flags: W
LayerCount: 2
Fore
SplineSet
366 260 m 1,0,-1
 272 260 l 1,1,-1
 272 352 l 2,2,3
 272 444 272 444 196 444 c 1,4,-1
 196 0 l 1,5,-1
 60 0 l 1,6,-1
 60 470 l 1,7,-1
 191 470 l 2,8,9
 306 470 306 470 343 396 c 1,10,-1
 343 460 l 1,11,-1
 366 460 l 1,12,-1
 366 260 l 1,0,-1
EndSplineSet
EndChar

StartChar: s
Encoding: 115 115 86
Width: 396
GlyphClass: 2
Flags: W
LayerCount: 2
Fore
SplineSet
322 206 m 2,0,1
 361 172 361 172 361 117.5 c 128,-1,2
 361 63 361 63 312 26.5 c 128,-1,3
 263 -10 263 -10 184.5 -10 c 128,-1,4
 106 -10 106 -10 70.5 29.5 c 128,-1,5
 35 69 35 69 35 113 c 1,6,-1
 65 113 l 1,7,8
 65 72 65 72 95.5 46 c 128,-1,9
 126 20 126 20 157.5 20 c 128,-1,10
 189 20 189 20 213.5 39.5 c 128,-1,11
 238 59 238 59 238 89 c 128,-1,12
 238 119 238 119 207 148 c 2,13,-1
 80 262 l 2,14,15
 38 300 38 300 38 355.5 c 128,-1,16
 38 411 38 411 85.5 445.5 c 128,-1,17
 133 480 133 480 201 480 c 128,-1,18
 269 480 269 480 303 446 c 128,-1,19
 337 412 337 412 337 365 c 1,20,-1
 307 365 l 1,21,-1
 307 372 l 2,22,23
 307 403 307 403 285 426.5 c 128,-1,24
 263 450 263 450 232 450 c 128,-1,25
 201 450 201 450 180 432 c 128,-1,26
 159 414 159 414 159 383.5 c 128,-1,27
 159 353 159 353 187 327 c 2,28,-1
 322 206 l 2,0,1
EndSplineSet
EndChar

StartChar: t
Encoding: 116 116 87
Width: 304
GlyphClass: 2
Flags: W
LayerCount: 2
Fore
SplineSet
228 40 m 0,0,1
 248 40 248 40 260 72 c 1,2,-1
 279 69 l 1,3,4
 279 59 279 59 271.5 43.5 c 128,-1,5
 264 28 264 28 254 18 c 0,6,7
 228 -10 228 -10 176 -10 c 0,8,9
 69 -10 69 -10 69 89 c 2,10,-1
 69 441 l 1,11,-1
 25 441 l 1,12,-1
 25 470 l 1,13,-1
 69 470 l 1,14,-1
 69 640 l 1,15,-1
 205 640 l 1,16,-1
 205 470 l 1,17,-1
 277 470 l 1,18,-1
 277 441 l 1,19,-1
 205 441 l 1,20,-1
 205 74 l 2,21,22
 205 40 205 40 228 40 c 0,0,1
EndSplineSet
EndChar

StartChar: u
Encoding: 117 117 88
Width: 534
GlyphClass: 2
Flags: W
LayerCount: 2
Fore
SplineSet
478 40 m 0,0,1
 498 40 498 40 510 72 c 1,2,-1
 529 69 l 1,3,4
 529 59 529 59 521.5 43.5 c 128,-1,5
 514 28 514 28 504 18 c 0,6,7
 478 -10 478 -10 426 -10 c 0,8,9
 333 -10 333 -10 321 63 c 1,10,-1
 319 58 l 2,11,12
 292 -10 292 -10 218 -10 c 128,-1,13
 144 -10 144 -10 102 32.5 c 128,-1,14
 60 75 60 75 60 148 c 2,15,-1
 60 470 l 1,16,-1
 196 470 l 1,17,-1
 196 104 l 2,18,19
 196 64 196 64 211.5 44.5 c 128,-1,20
 227 25 227 25 253.5 25 c 128,-1,21
 280 25 280 25 299.5 58.5 c 128,-1,22
 319 92 319 92 319 136 c 2,23,-1
 319 470 l 1,24,-1
 455 470 l 1,25,-1
 455 74 l 2,26,27
 455 40 455 40 478 40 c 0,0,1
EndSplineSet
EndChar

StartChar: v
Encoding: 118 118 89
Width: 385
GlyphClass: 2
Flags: W
LayerCount: 2
Fore
SplineSet
380 470 m 1,0,-1
 256 0 l 1,1,-1
 121 0 l 1,2,-1
 5 470 l 1,3,-1
 139 470 l 1,4,-1
 240 62 l 1,5,-1
 348 470 l 1,6,-1
 380 470 l 1,0,-1
EndSplineSet
EndChar

StartChar: w
Encoding: 119 119 90
Width: 630
GlyphClass: 2
Flags: W
LayerCount: 2
Fore
SplineSet
374 0 m 1,0,-1
 315 224 l 1,1,-1
 256 0 l 1,2,-1
 121 0 l 1,3,-1
 5 470 l 1,4,-1
 139 470 l 1,5,-1
 240 62 l 1,6,-1
 299 284 l 1,7,-1
 250 470 l 1,8,-1
 282 470 l 1,9,-1
 315 345 l 1,10,-1
 348 470 l 1,11,-1
 380 470 l 1,12,-1
 331 284 l 1,13,-1
 390 62 l 1,14,-1
 491 470 l 1,15,-1
 625 470 l 1,16,-1
 509 0 l 1,17,-1
 374 0 l 1,0,-1
EndSplineSet
EndChar

StartChar: x
Encoding: 120 120 91
Width: 468
GlyphClass: 2
Flags: W
LayerCount: 2
Fore
SplineSet
320 -10 m 0,0,1
 283 -10 283 -10 234 21 c 1,2,3
 185 -10 185 -10 147 -10 c 0,4,5
 87 -10 87 -10 56.5 24 c 128,-1,6
 26 58 26 58 20 115 c 1,7,-1
 43 115 l 1,8,9
 47 76 47 76 67 49 c 128,-1,10
 87 22 87 22 112 22 c 0,11,12
 165 22 165 22 165 115 c 2,13,-1
 165 355 l 2,14,15
 165 450 165 450 112 450 c 0,16,17
 87 450 87 450 67 422.5 c 128,-1,18
 47 395 47 395 43 356 c 1,19,-1
 20 356 l 1,20,21
 32 480 32 480 147 480 c 0,22,23
 187 480 187 480 234 450 c 1,24,25
 281 480 281 480 320 480 c 0,26,27
 432 480 432 480 448 356 c 1,28,-1
 425 356 l 1,29,30
 420 395 420 395 400 422.5 c 128,-1,31
 380 450 380 450 355 450 c 0,32,33
 302 450 302 450 302 355 c 2,34,-1
 302 115 l 2,35,36
 302 22 302 22 355 22 c 0,37,38
 380 22 380 22 400 49.5 c 128,-1,39
 420 77 420 77 425 115 c 1,40,-1
 448 115 l 1,41,42
 432 -10 432 -10 320 -10 c 0,0,1
EndSplineSet
EndChar

StartChar: y
Encoding: 121 121 92
Width: 471
GlyphClass: 2
Flags: W
LayerCount: 2
Fore
SplineSet
446 424 m 2,0,1
 446 373 446 373 407 333.5 c 128,-1,2
 368 294 368 294 303 277 c 1,3,-1
 303 0 l 1,4,-1
 167 0 l 1,5,-1
 167 277 l 1,6,7
 103 294 103 294 64 333.5 c 128,-1,8
 25 373 25 373 25 424 c 2,9,-1
 25 470 l 1,10,-1
 154 470 l 1,11,-1
 154 388 l 2,12,13
 154 348 154 348 176.5 321.5 c 128,-1,14
 199 295 199 295 235 295 c 128,-1,15
 271 295 271 295 294 322 c 128,-1,16
 317 349 317 349 317 388 c 2,17,-1
 317 470 l 1,18,-1
 446 470 l 1,19,-1
 446 424 l 2,0,1
EndSplineSet
EndChar

StartChar: z
Encoding: 122 122 93
Width: 401
GlyphClass: 2
Flags: W
LayerCount: 2
Fore
SplineSet
361 30 m 1,0,-1
 361 0 l 1,1,-1
 30 0 l 1,2,-1
 226 440 l 1,3,-1
 39 440 l 1,4,-1
 39 470 l 1,5,-1
 371 470 l 1,6,-1
 175 30 l 1,7,-1
 361 30 l 1,0,-1
EndSplineSet
EndChar

StartChar: braceleft
Encoding: 123 123 94
Width: 426
GlyphClass: 2
Flags: W
LayerCount: 2
Fore
SplineSet
406 700 m 1,0,1
 365 700 365 700 346.5 676 c 128,-1,2
 328 652 328 652 328 595 c 2,3,-1
 328 499 l 2,4,5
 328 434 328 434 297 407 c 0,6,7
 280 392 280 392 263 383.5 c 128,-1,8
 246 375 246 375 215 363 c 1,9,10
 328 321 328 321 328 197 c 2,11,-1
 328 95 l 2,12,13
 328 39 328 39 346.5 14.5 c 128,-1,14
 365 -10 365 -10 406 -10 c 1,15,-1
 406 -40 l 1,16,17
 276 -40 276 -40 222 2.5 c 128,-1,18
 168 45 168 45 168 164 c 2,19,-1
 168 189 l 2,20,21
 168 265 168 265 144.5 306.5 c 128,-1,22
 121 348 121 348 60 348 c 1,23,-1
 60 378 l 1,24,25
 124 378 124 378 146 407 c 128,-1,26
 168 436 168 436 168 507 c 2,27,-1
 168 527 l 2,28,29
 168 646 168 646 222 688 c 128,-1,30
 276 730 276 730 406 730 c 1,31,-1
 406 700 l 1,0,1
EndSplineSet
EndChar

StartChar: bar
Encoding: 124 124 95
Width: 256
GlyphClass: 2
Flags: W
LayerCount: 2
Fore
SplineSet
196 690 m 1,0,-1
 196 -145 l 1,1,-1
 60 -145 l 1,2,-1
 60 690 l 1,3,-1
 196 690 l 1,0,-1
EndSplineSet
EndChar

StartChar: braceright
Encoding: 125 125 96
Width: 426
GlyphClass: 2
Flags: W
LayerCount: 2
Fore
SplineSet
20 700 m 1,0,-1
 20 730 l 1,1,2
 150 730 150 730 204 688 c 128,-1,3
 258 646 258 646 258 527 c 2,4,-1
 258 507 l 2,5,6
 258 436 258 436 280 407 c 128,-1,7
 302 378 302 378 366 378 c 1,8,-1
 366 348 l 1,9,10
 305 348 305 348 281.5 306.5 c 128,-1,11
 258 265 258 265 258 189 c 2,12,-1
 258 164 l 2,13,14
 258 45 258 45 204 2.5 c 128,-1,15
 150 -40 150 -40 20 -40 c 1,16,-1
 20 -10 l 1,17,18
 61 -10 61 -10 79.5 14.5 c 128,-1,19
 98 39 98 39 98 95 c 2,20,-1
 98 197 l 2,21,22
 98 321 98 321 211 363 c 1,23,24
 180 375 180 375 163 383.5 c 128,-1,25
 146 392 146 392 129 407 c 0,26,27
 98 434 98 434 98 499 c 2,28,-1
 98 595 l 2,29,30
 98 652 98 652 79.5 676 c 128,-1,31
 61 700 61 700 20 700 c 1,0,-1
EndSplineSet
EndChar

StartChar: asciitilde
Encoding: 126 126 97
Width: 462
GlyphClass: 2
Flags: W
LayerCount: 2
Fore
SplineSet
286.5 370 m 128,-1,1
 258 370 258 370 215.5 394.5 c 128,-1,2
 173 419 173 419 153 419 c 0,3,4
 112 419 112 419 78 394 c 1,5,-1
 60 409 l 1,6,7
 124 480 124 480 194 480 c 0,8,9
 215 480 215 480 255 459 c 128,-1,10
 295 438 295 438 326 438 c 128,-1,11
 357 438 357 438 383 456 c 1,12,-1
 402 438 l 1,13,14
 380 408 380 408 347.5 389 c 128,-1,0
 315 370 315 370 286.5 370 c 128,-1,1
EndSplineSet
EndChar

StartChar: exclamdown
Encoding: 161 161 98
Width: 269
GlyphClass: 2
Flags: W
LayerCount: 2
Fore
SplineSet
186 -130.5 m 128,-1,1
 163 -145 163 -145 134.5 -145 c 128,-1,2
 106 -145 106 -145 83 -130 c 128,-1,3
 60 -115 60 -115 60 -91 c 1,4,-1
 101 401 l 1,5,-1
 168 401 l 1,6,-1
 209 -91 l 1,7,0
 209 -116 209 -116 186 -130.5 c 128,-1,1
75 512 m 128,-1,9
 75 535 75 535 90.5 550 c 128,-1,10
 106 565 106 565 134 565 c 128,-1,11
 162 565 162 565 177.5 550 c 128,-1,12
 193 535 193 535 193 512 c 128,-1,13
 193 489 193 489 177.5 474 c 128,-1,14
 162 459 162 459 134 459 c 128,-1,15
 106 459 106 459 90.5 474 c 128,-1,8
 75 489 75 489 75 512 c 128,-1,9
EndSplineSet
EndChar

StartChar: cent
Encoding: 162 162 99
Width: 439
GlyphClass: 2
Flags: W
LayerCount: 2
Fore
SplineSet
283 529 m 1,0,-1
 283 475 l 1,1,2
 319 466 319 466 342 438 c 0,3,4
 379 393 379 393 379 349 c 1,5,-1
 349 349 l 1,6,7
 349 375 349 375 331 405.5 c 128,-1,8
 313 436 313 436 283 446 c 1,9,-1
 283 23 l 1,10,11
 313 34 313 34 331 68 c 128,-1,12
 349 102 349 102 349 122 c 1,13,-1
 379 122 l 1,14,15
 379 86 379 86 353.5 46.5 c 128,-1,16
 328 7 328 7 283 -5 c 1,17,-1
 283 -59 l 1,18,-1
 253 -59 l 1,19,-1
 253 -10 l 1,20,-1
 247 -10 l 2,21,22
 165 -10 165 -10 112.5 36.5 c 128,-1,23
 60 83 60 83 60 157 c 2,24,-1
 60 313 l 2,25,26
 60 387 60 387 113 433.5 c 128,-1,27
 166 480 166 480 246 480 c 2,28,-1
 253 480 l 1,29,-1
 253 529 l 1,30,-1
 283 529 l 1,0,-1
197 118 m 2,31,32
 197 77 197 77 212 50.5 c 128,-1,33
 227 24 227 24 253 20 c 1,34,-1
 253 449 l 1,35,36
 197 444 197 444 197 352 c 2,37,-1
 197 118 l 2,31,32
EndSplineSet
EndChar

StartChar: sterling
Encoding: 163 163 100
Width: 674
GlyphClass: 2
Flags: W
LayerCount: 2
Fore
SplineSet
60 347 m 1,0,-1
 112 347 l 1,1,-1
 112 436 l 2,2,3
 112 550 112 550 183 625 c 128,-1,4
 254 700 254 700 375 700 c 0,5,6
 470 700 470 700 542 646.5 c 128,-1,7
 614 593 614 593 614 499 c 2,8,-1
 614 486 l 1,9,-1
 478 486 l 1,10,-1
 478 508 l 2,11,12
 478 579 478 579 452 622 c 128,-1,13
 426 665 426 665 374.5 665 c 128,-1,14
 323 665 323 665 297 622 c 128,-1,15
 271 579 271 579 271 508 c 2,16,-1
 271 347 l 1,17,-1
 481 347 l 1,18,-1
 481 300 l 1,19,-1
 271 300 l 1,20,-1
 271 47 l 1,21,-1
 594 47 l 1,22,-1
 594 0 l 1,23,-1
 60 0 l 1,24,-1
 60 47 l 1,25,-1
 112 47 l 1,26,-1
 112 300 l 1,27,-1
 60 300 l 1,28,-1
 60 347 l 1,0,-1
EndSplineSet
EndChar

StartChar: yen
Encoding: 165 165 101
Width: 725
GlyphClass: 2
Flags: W
LayerCount: 2
Fore
SplineSet
188 309 m 1,0,-1
 188 374 l 1,1,-1
 234 374 l 1,2,3
 163 407 163 407 121.5 470.5 c 128,-1,4
 80 534 80 534 80 611 c 2,5,-1
 80 690 l 1,6,-1
 239 690 l 1,7,-1
 239 538 l 2,8,9
 239 471 239 471 273.5 426.5 c 128,-1,10
 308 382 308 382 362.5 382 c 128,-1,11
 417 382 417 382 451 426 c 128,-1,12
 485 470 485 470 485 538 c 2,13,-1
 485 690 l 1,14,-1
 645 690 l 1,15,-1
 645 611 l 2,16,17
 645 533 645 533 602.5 470 c 128,-1,18
 560 407 560 407 489 374 c 1,19,-1
 537 374 l 1,20,-1
 537 309 l 1,21,-1
 442 309 l 1,22,-1
 442 245 l 1,23,-1
 537 245 l 1,24,-1
 537 180 l 1,25,-1
 442 180 l 1,26,-1
 442 0 l 1,27,-1
 283 0 l 1,28,-1
 283 180 l 1,29,-1
 188 180 l 1,30,-1
 188 245 l 1,31,-1
 283 245 l 1,32,-1
 283 309 l 1,33,-1
 188 309 l 1,0,-1
EndSplineSet
EndChar

StartChar: section
Encoding: 167 167 102
Width: 523
GlyphClass: 2
Flags: W
LayerCount: 2
Fore
SplineSet
443 358 m 0,0,1
 443 316 443 316 414.5 284 c 128,-1,2
 386 252 386 252 334 238 c 1,3,-1
 375 212 l 2,4,5
 423 181 423 181 423 122 c 128,-1,6
 423 63 423 63 374 26.5 c 128,-1,7
 325 -10 325 -10 246.5 -10 c 128,-1,8
 168 -10 168 -10 132.5 29.5 c 128,-1,9
 97 69 97 69 97 113 c 1,10,-1
 127 113 l 1,11,12
 127 72 127 72 157.5 46 c 128,-1,13
 188 20 188 20 219.5 20 c 128,-1,14
 251 20 251 20 275.5 39.5 c 128,-1,15
 300 59 300 59 300 94 c 128,-1,16
 300 129 300 129 268 150 c 2,17,-1
 135 235 l 2,18,19
 106 254 106 254 93 276.5 c 128,-1,20
 80 299 80 299 80 339 c 128,-1,21
 80 379 80 379 110 410 c 128,-1,22
 140 441 140 441 189 453 c 1,23,-1
 155 475 l 2,24,25
 126 494 126 494 113 516.5 c 128,-1,26
 100 539 100 539 100 577 c 0,27,28
 100 631 100 631 147.5 665.5 c 128,-1,29
 195 700 195 700 263 700 c 128,-1,30
 331 700 331 700 365 666 c 128,-1,31
 399 632 399 632 399 585 c 1,32,-1
 369 585 l 1,33,-1
 369 592 l 2,34,35
 369 623 369 623 347 646.5 c 128,-1,36
 325 670 325 670 294 670 c 128,-1,37
 263 670 263 670 242 652 c 128,-1,38
 221 634 221 634 221 600 c 128,-1,39
 221 566 221 566 252 545 c 2,40,-1
 395 452 l 2,41,42
 443 421 443 421 443 358 c 0,0,1
237 422 m 1,43,44
 201 404 201 404 201 365 c 128,-1,45
 201 326 201 326 232 305 c 2,46,-1
 284 271 l 1,47,48
 320 291 320 291 320 330 c 128,-1,49
 320 369 320 369 288 390 c 2,50,-1
 237 422 l 1,43,44
EndSplineSet
EndChar

StartChar: dieresis
Encoding: 168 168 103
Width: 420
GlyphClass: 2
Flags: W
LayerCount: 2
Fore
SplineSet
344 661 m 128,-1,1
 360 646 360 646 360 622.5 c 128,-1,2
 360 599 360 599 344 583.5 c 128,-1,3
 328 568 328 568 301 568 c 128,-1,4
 274 568 274 568 258 583.5 c 128,-1,5
 242 599 242 599 242 622.5 c 128,-1,6
 242 646 242 646 258 661 c 128,-1,7
 274 676 274 676 301 676 c 128,-1,0
 328 676 328 676 344 661 c 128,-1,1
162 661 m 128,-1,9
 178 646 178 646 178 622.5 c 128,-1,10
 178 599 178 599 162 583.5 c 128,-1,11
 146 568 146 568 119 568 c 128,-1,12
 92 568 92 568 76 583.5 c 128,-1,13
 60 599 60 599 60 622.5 c 128,-1,14
 60 646 60 646 76 661 c 128,-1,15
 92 676 92 676 119 676 c 128,-1,8
 146 676 146 676 162 661 c 128,-1,9
EndSplineSet
EndChar

StartChar: copyright
Encoding: 169 169 104
Width: 1010
GlyphClass: 2
Flags: W
LayerCount: 2
Fore
SplineSet
676 224 m 2,0,1
 676 181 676 181 646 152 c 1,2,3
 595 100 595 100 514 100 c 128,-1,4
 433 100 433 100 382.5 146.5 c 128,-1,5
 332 193 332 193 332 261 c 2,6,-1
 332 414 l 2,7,8
 332 482 332 482 382.5 528.5 c 128,-1,9
 433 575 433 575 503.5 575 c 128,-1,10
 574 575 574 575 625 542 c 128,-1,11
 676 509 676 509 676 452 c 2,12,-1
 676 444 l 1,13,-1
 574 444 l 1,14,-1
 574 458 l 2,15,16
 574 553 574 553 511 553 c 128,-1,17
 448 553 448 553 448 458 c 2,18,-1
 448 217 l 2,19,20
 448 122 448 122 511 122 c 128,-1,21
 574 122 574 122 574 217 c 2,22,-1
 574 230 l 1,23,-1
 676 230 l 1,24,-1
 676 224 l 2,0,1
910 270 m 2,25,26
 910 146 910 146 842.5 73 c 128,-1,27
 775 0 775 0 647 0 c 2,28,-1
 363 0 l 2,29,30
 234 0 234 0 167 73 c 128,-1,31
 100 146 100 146 100 270 c 2,32,-1
 100 418 l 2,33,34
 100 543 100 543 167.5 616.5 c 128,-1,35
 235 690 235 690 363 690 c 2,36,-1
 647 690 l 2,37,38
 775 690 775 690 842.5 616 c 128,-1,39
 910 542 910 542 910 418 c 2,40,-1
 910 270 l 2,25,26
750 192 m 2,41,-1
 750 497 l 2,42,43
 750 568 750 568 724 611.5 c 128,-1,44
 698 655 698 655 647 655 c 2,45,-1
 363 655 l 2,46,47
 311 655 311 655 285 611.5 c 128,-1,48
 259 568 259 568 259 497 c 2,49,-1
 259 192 l 2,50,51
 259 121 259 121 285 78 c 128,-1,52
 311 35 311 35 363 35 c 2,53,-1
 647 35 l 2,54,55
 698 35 698 35 724 78 c 128,-1,56
 750 121 750 121 750 192 c 2,41,-1
EndSplineSet
EndChar

StartChar: ordfeminine
Encoding: 170 170 105
Width: 335
GlyphClass: 2
Flags: W
LayerCount: 2
Fore
SplineSet
248 452 m 2,0,1
 248 435 248 435 259 435 c 128,-1,2
 270 435 270 435 276 451 c 1,3,-1
 285 450 l 1,4,5
 285 435 285 435 270 422.5 c 128,-1,6
 255 410 255 410 234 410 c 0,7,8
 187 410 187 410 181 447 c 1,9,10
 177 434 177 434 164 422 c 128,-1,11
 151 410 151 410 131 410 c 0,12,13
 92 410 92 410 71 431.5 c 128,-1,14
 50 453 50 453 50 490 c 2,15,-1
 50 576 l 2,16,17
 50 612 50 612 72.5 633.5 c 128,-1,18
 95 655 95 655 123 655 c 128,-1,19
 151 655 151 655 164 644.5 c 128,-1,20
 177 634 177 634 180 622 c 1,21,-1
 180 650 l 1,22,-1
 248 650 l 1,23,-1
 248 452 l 2,0,1
180 582 m 2,24,25
 180 603 180 603 169 621.5 c 128,-1,26
 158 640 158 640 144 640 c 0,27,28
 119 640 119 640 119 593 c 2,29,-1
 119 473 l 2,30,31
 119 426 119 426 143 426 c 0,32,33
 158 426 158 426 169 443.5 c 128,-1,34
 180 461 180 461 180 484 c 2,35,-1
 180 582 l 2,24,25
EndSplineSet
EndChar

StartChar: guillemotleft
Encoding: 171 171 106
Width: 561
GlyphClass: 2
Flags: W
LayerCount: 2
Fore
SplineSet
276 461 m 128,-1,1
 287 452 287 452 287 448 c 128,-1,2
 287 444 287 444 286 442 c 2,3,-1
 174 300 l 1,4,-1
 283 153 l 2,5,6
 287 148 287 148 287 144 c 128,-1,7
 287 140 287 140 276 130.5 c 128,-1,8
 265 121 265 121 257.5 121 c 128,-1,9
 250 121 250 121 246 125 c 2,10,-1
 55 287 l 2,11,12
 50 292 50 292 50 300 c 128,-1,13
 50 308 50 308 55 311 c 2,14,-1
 245 464 l 2,15,16
 252 470 252 470 258.5 470 c 128,-1,0
 265 470 265 470 276 461 c 128,-1,1
500 461 m 128,-1,18
 511 452 511 452 511 448 c 128,-1,19
 511 444 511 444 510 442 c 2,20,-1
 398 300 l 1,21,-1
 507 153 l 2,22,23
 511 148 511 148 511 144 c 128,-1,24
 511 140 511 140 500 130.5 c 128,-1,25
 489 121 489 121 481.5 121 c 128,-1,26
 474 121 474 121 470 125 c 2,27,-1
 279 287 l 2,28,29
 274 292 274 292 274 300 c 128,-1,30
 274 308 274 308 279 311 c 2,31,-1
 469 464 l 2,32,33
 477 470 477 470 483 470 c 128,-1,17
 489 470 489 470 500 461 c 128,-1,18
EndSplineSet
EndChar

StartChar: registered
Encoding: 174 174 107
Width: 1006
GlyphClass: 2
Flags: W
LayerCount: 2
Fore
SplineSet
910 270 m 2,0,1
 910 146 910 146 842.5 73 c 128,-1,2
 775 0 775 0 647 0 c 2,3,-1
 363 0 l 2,4,5
 234 0 234 0 167 73 c 128,-1,6
 100 146 100 146 100 270 c 2,7,-1
 100 418 l 2,8,9
 100 543 100 543 167.5 616.5 c 128,-1,10
 235 690 235 690 363 690 c 2,11,-1
 647 690 l 2,12,13
 775 690 775 690 842.5 616 c 128,-1,14
 910 542 910 542 910 418 c 2,15,-1
 910 270 l 2,0,1
750 192 m 2,16,-1
 750 497 l 2,17,18
 750 568 750 568 724 611.5 c 128,-1,19
 698 655 698 655 647 655 c 2,20,-1
 363 655 l 2,21,22
 311 655 311 655 285 611.5 c 128,-1,23
 259 568 259 568 259 497 c 2,24,-1
 259 192 l 2,25,26
 259 121 259 121 285 78 c 128,-1,27
 311 35 311 35 363 35 c 2,28,-1
 647 35 l 2,29,30
 698 35 698 35 724 78 c 128,-1,31
 750 121 750 121 750 192 c 2,16,-1
669 112 m 1,32,-1
 554 112 l 1,33,-1
 554 239 l 2,34,35
 554 288 554 288 537.5 314 c 128,-1,36
 521 340 521 340 492 340 c 0,37,38
 480 340 480 340 467 337 c 1,39,-1
 467 112 l 1,40,-1
 352 112 l 1,41,-1
 352 574 l 1,42,-1
 495 574 l 2,43,44
 569 574 569 574 616 547.5 c 128,-1,45
 663 521 663 521 663 460 c 0,46,47
 663 422 663 422 630.5 393 c 128,-1,48
 598 364 598 364 545 348 c 1,49,50
 603 337 603 337 636 304.5 c 128,-1,51
 669 272 669 272 669 218 c 2,52,-1
 669 112 l 1,32,-1
467 554 m 1,53,-1
 467 355 l 1,54,55
 500 360 500 360 525 386 c 128,-1,56
 550 412 550 412 550 461 c 0,57,58
 550 554 550 554 476 554 c 2,59,-1
 467 554 l 1,53,-1
EndSplineSet
EndChar

StartChar: macron
Encoding: 175 175 108
Width: 322
GlyphClass: 2
Flags: W
LayerCount: 2
Fore
SplineSet
272 630 m 1,0,-1
 50 630 l 1,1,-1
 50 690 l 1,2,-1
 272 690 l 1,3,-1
 272 630 l 1,0,-1
EndSplineSet
EndChar

StartChar: degree
Encoding: 176 176 109
Width: 425
GlyphClass: 2
Flags: W
LayerCount: 2
Fore
SplineSet
321 662 m 128,-1,1
 365 624 365 624 365 565.5 c 128,-1,2
 365 507 365 507 321.5 469.5 c 128,-1,3
 278 432 278 432 213 432 c 128,-1,4
 148 432 148 432 104 469 c 128,-1,5
 60 506 60 506 60 565 c 128,-1,6
 60 624 60 624 104 662 c 128,-1,7
 148 700 148 700 212.5 700 c 128,-1,0
 277 700 277 700 321 662 c 128,-1,1
278 565 m 128,-1,9
 278 600 278 600 259.5 624.5 c 128,-1,10
 241 649 241 649 213 649 c 128,-1,11
 185 649 185 649 166 624.5 c 128,-1,12
 147 600 147 600 147 565 c 128,-1,13
 147 530 147 530 166 506.5 c 128,-1,14
 185 483 185 483 213 483 c 128,-1,15
 241 483 241 483 259.5 506.5 c 128,-1,8
 278 530 278 530 278 565 c 128,-1,9
EndSplineSet
EndChar

StartChar: acute
Encoding: 180 180 110
Width: 281
GlyphClass: 2
Flags: W
LayerCount: 2
Fore
SplineSet
214.5 718 m 128,-1,1
 231 702 231 702 231 683 c 128,-1,2
 231 664 231 664 217 653 c 2,3,-1
 71 526 l 1,4,-1
 50 543 l 1,5,-1
 143 714 l 2,6,7
 154 734 154 734 176 734 c 128,-1,0
 198 734 198 734 214.5 718 c 128,-1,1
EndSplineSet
EndChar

StartChar: paragraph
Encoding: 182 182 111
Width: 607
GlyphClass: 2
Flags: W
LayerCount: 2
Fore
SplineSet
383 0 m 1,0,-1
 269 0 l 1,1,-1
 269 200 l 1,2,-1
 243 200 l 2,3,4
 157 200 157 200 108.5 247 c 128,-1,5
 60 294 60 294 60 367 c 2,6,-1
 60 524 l 2,7,8
 60 597 60 597 108.5 643.5 c 128,-1,9
 157 690 157 690 243 690 c 2,10,-1
 547 690 l 1,11,-1
 547 0 l 1,12,-1
 435 0 l 1,13,-1
 435 200 l 1,14,-1
 383 200 l 1,15,-1
 383 0 l 1,0,-1
269 230 m 1,16,-1
 269 661 l 1,17,-1
 243 661 l 2,18,19
 196 661 196 661 196 563 c 2,20,-1
 196 328 l 2,21,22
 196 230 196 230 243 230 c 2,23,-1
 269 230 l 1,16,-1
383 660 m 1,24,-1
 383 230 l 1,25,-1
 435 230 l 1,26,-1
 435 660 l 1,27,-1
 383 660 l 1,24,-1
EndSplineSet
EndChar

StartChar: periodcentered
Encoding: 183 183 112
Width: 138
GlyphClass: 2
Flags: W
LayerCount: 2
Fore
SplineSet
5 247 m 128,-1,1
 5 270 5 270 23.5 287.5 c 128,-1,2
 42 305 42 305 69 305 c 128,-1,3
 96 305 96 305 114.5 287.5 c 128,-1,4
 133 270 133 270 133 247 c 128,-1,5
 133 224 133 224 114.5 206.5 c 128,-1,6
 96 189 96 189 69 189 c 128,-1,7
 42 189 42 189 23.5 206.5 c 128,-1,0
 5 224 5 224 5 247 c 128,-1,1
EndSplineSet
EndChar

StartChar: cedilla
Encoding: 184 184 113
Width: 247
GlyphClass: 2
Flags: W
LayerCount: 2
Fore
SplineSet
197 0 m 1,0,1
 197 -69 197 -69 81 -160 c 1,2,-1
 50 -136 l 1,3,4
 62 -121 62 -121 69 -91.5 c 128,-1,5
 76 -62 76 -62 77 -19 c 1,6,-1
 77 0 l 1,7,-1
 197 0 l 1,0,1
EndSplineSet
EndChar

StartChar: ordmasculine
Encoding: 186 186 114
Width: 298
GlyphClass: 2
Flags: W
LayerCount: 2
Fore
SplineSet
248 493 m 2,0,1
 248 458 248 458 220 433.5 c 128,-1,2
 192 409 192 409 148.5 409 c 128,-1,3
 105 409 105 409 77.5 433.5 c 128,-1,4
 50 458 50 458 50 493 c 2,5,-1
 50 572 l 2,6,7
 50 607 50 607 77.5 631 c 128,-1,8
 105 655 105 655 149 655 c 128,-1,9
 193 655 193 655 220.5 631 c 128,-1,10
 248 607 248 607 248 572 c 2,11,-1
 248 493 l 2,0,1
179 474 m 2,12,-1
 179 591 l 2,13,14
 179 640 179 640 148.5 640 c 128,-1,15
 118 640 118 640 118 591 c 2,16,-1
 118 474 l 2,17,18
 118 425 118 425 148.5 425 c 128,-1,19
 179 425 179 425 179 474 c 2,12,-1
EndSplineSet
EndChar

StartChar: guillemotright
Encoding: 187 187 115
Width: 561
GlyphClass: 2
Flags: W
LayerCount: 2
Fore
SplineSet
506 311 m 2,0,1
 511 308 511 308 511 300 c 128,-1,2
 511 292 511 292 506 287 c 2,3,-1
 315 125 l 2,4,5
 311 121 311 121 303.5 121 c 128,-1,6
 296 121 296 121 285 130.5 c 128,-1,7
 274 140 274 140 274 144 c 128,-1,8
 274 148 274 148 278 153 c 2,9,-1
 387 300 l 1,10,-1
 275 442 l 2,11,12
 274 444 274 444 274 448 c 128,-1,13
 274 452 274 452 285 461 c 128,-1,14
 296 470 296 470 302 470 c 128,-1,15
 308 470 308 470 316 464 c 2,16,-1
 506 311 l 2,0,1
282 311 m 2,17,18
 287 308 287 308 287 300 c 128,-1,19
 287 292 287 292 282 287 c 2,20,-1
 91 125 l 2,21,22
 87 121 87 121 79.5 121 c 128,-1,23
 72 121 72 121 61 130.5 c 128,-1,24
 50 140 50 140 50 144 c 128,-1,25
 50 148 50 148 54 153 c 2,26,-1
 163 300 l 1,27,-1
 51 442 l 2,28,29
 50 444 50 444 50 448 c 128,-1,30
 50 452 50 452 61 461 c 128,-1,31
 72 470 72 470 78 470 c 128,-1,32
 84 470 84 470 92 464 c 2,33,-1
 282 311 l 2,17,18
EndSplineSet
EndChar

StartChar: questiondown
Encoding: 191 191 116
Width: 527
GlyphClass: 2
Flags: W
LayerCount: 2
Fore
SplineSet
213 39 m 2,0,-1
 213 -16 l 2,1,2
 213 -110 213 -110 277 -110 c 0,3,4
 305 -110 305 -110 321 -84.5 c 128,-1,5
 337 -59 337 -59 337 -21 c 2,6,-1
 337 48 l 1,7,-1
 467 48 l 1,8,-1
 467 32 l 2,9,10
 467 -42 467 -42 409 -93.5 c 128,-1,11
 351 -145 351 -145 258.5 -145 c 128,-1,12
 166 -145 166 -145 113 -94 c 128,-1,13
 60 -43 60 -43 60 31 c 2,14,-1
 60 47 l 2,15,16
 60 118 60 118 132 202 c 2,17,-1
 251 341 l 1,18,19
 264 360 264 360 264 391 c 2,20,-1
 264 413 l 1,21,-1
 331 413 l 1,22,-1
 331 390 l 2,23,24
 331 348 331 348 322 325.5 c 128,-1,25
 313 303 313 303 280 227.5 c 128,-1,26
 247 152 247 152 238 133.5 c 128,-1,27
 229 115 229 115 226 106 c 0,28,29
 213 72 213 72 213 39 c 2,0,-1
360 512 m 128,-1,31
 360 489 360 489 344.5 474 c 128,-1,32
 329 459 329 459 301 459 c 128,-1,33
 273 459 273 459 257.5 474 c 128,-1,34
 242 489 242 489 242 512 c 128,-1,35
 242 535 242 535 257.5 550 c 128,-1,36
 273 565 273 565 301 565 c 128,-1,37
 329 565 329 565 344.5 550 c 128,-1,30
 360 535 360 535 360 512 c 128,-1,31
EndSplineSet
EndChar

StartChar: Agrave
Encoding: 192 192 117
Width: 681
GlyphClass: 2
Flags: W
LayerCount: 2
Fore
SplineSet
451 468 m 2,0,1
 451 543 451 543 411.5 604 c 128,-1,2
 372 665 372 665 308 665 c 0,3,4
 279 665 279 665 260 646 c 0,5,6
 218 606 218 606 218 497 c 2,7,-1
 218 197 l 2,8,9
 218 109 218 109 244.5 67 c 128,-1,10
 271 25 271 25 314 25 c 0,11,12
 377 25 377 25 414 85 c 128,-1,13
 451 145 451 145 451 227 c 2,14,-1
 451 468 l 2,0,1
452 0 m 1,15,-1
 452 110 l 1,16,17
 429 50 429 50 386 20 c 128,-1,18
 343 -10 343 -10 296 -10 c 0,19,20
 188 -10 188 -10 124 57.5 c 128,-1,21
 60 125 60 125 60 247 c 2,22,-1
 60 446 l 2,23,24
 60 569 60 569 131 634.5 c 128,-1,25
 202 700 202 700 298 700 c 0,26,27
 354 700 354 700 395 663.5 c 128,-1,28
 436 627 436 627 452 575 c 1,29,-1
 452 690 l 1,30,-1
 611 690 l 1,31,-1
 611 0 l 1,32,-1
 452 0 l 1,15,-1
172 885 m 1,33,34
 158 899 158 899 158 916.5 c 128,-1,35
 158 934 158 934 174.5 950 c 128,-1,36
 191 966 191 966 213 966 c 128,-1,37
 235 966 235 966 246 946 c 2,38,-1
 339 775 l 1,39,-1
 318 758 l 1,40,-1
 172 885 l 1,33,34
EndSplineSet
EndChar

StartChar: Aacute
Encoding: 193 193 118
Width: 681
GlyphClass: 2
Flags: W
LayerCount: 2
Fore
SplineSet
451 227 m 2,0,-1
 451 468 l 2,1,2
 451 543 451 543 411.5 604 c 128,-1,3
 372 665 372 665 308 665 c 0,4,5
 279 665 279 665 259.5 646 c 128,-1,6
 240 627 240 627 232 596 c 1,7,8
 218 548 218 548 218 497 c 2,9,-1
 218 197 l 2,10,11
 218 109 218 109 244.5 67 c 128,-1,12
 271 25 271 25 314 25 c 0,13,14
 377 25 377 25 414 85 c 128,-1,15
 451 145 451 145 451 227 c 2,0,-1
611 0 m 1,16,-1
 452 0 l 1,17,-1
 452 110 l 1,18,19
 429 50 429 50 386 20 c 128,-1,20
 343 -10 343 -10 296 -10 c 0,21,22
 188 -10 188 -10 124 57.5 c 128,-1,23
 60 125 60 125 60 247 c 2,24,-1
 60 446 l 2,25,26
 60 569 60 569 131 634.5 c 128,-1,27
 202 700 202 700 298 700 c 0,28,29
 354 700 354 700 395 663.5 c 128,-1,30
 436 627 436 627 452 575 c 1,31,-1
 452 690 l 1,32,-1
 611 690 l 1,33,-1
 611 0 l 1,16,-1
427.5 948 m 128,-1,35
 444 932 444 932 444 913 c 128,-1,36
 444 894 444 894 430 883 c 2,37,-1
 284 756 l 1,38,-1
 263 773 l 1,39,-1
 356 944 l 2,40,41
 367 964 367 964 389 964 c 128,-1,34
 411 964 411 964 427.5 948 c 128,-1,35
EndSplineSet
EndChar

StartChar: Acircumflex
Encoding: 194 194 119
Width: 681
GlyphClass: 2
Flags: W
LayerCount: 2
Fore
SplineSet
451 468 m 2,0,1
 451 543 451 543 411.5 604 c 128,-1,2
 372 665 372 665 308 665 c 0,3,4
 279 665 279 665 260 646 c 0,5,6
 218 606 218 606 218 497 c 2,7,-1
 218 197 l 2,8,9
 218 109 218 109 244.5 67 c 128,-1,10
 271 25 271 25 314 25 c 0,11,12
 377 25 377 25 414 85 c 128,-1,13
 451 145 451 145 451 227 c 2,14,-1
 451 468 l 2,0,1
452 0 m 1,15,-1
 452 110 l 1,16,17
 429 50 429 50 386 20 c 128,-1,18
 343 -10 343 -10 296 -10 c 0,19,20
 188 -10 188 -10 124 57.5 c 128,-1,21
 60 125 60 125 60 247 c 2,22,-1
 60 446 l 2,23,24
 60 569 60 569 131 634.5 c 128,-1,25
 202 700 202 700 298 700 c 0,26,27
 354 700 354 700 395 663.5 c 128,-1,28
 436 627 436 627 452 575 c 1,29,-1
 452 690 l 1,30,-1
 611 690 l 1,31,-1
 611 0 l 1,32,-1
 452 0 l 1,15,-1
237 887 m 1,33,34
 261 927 261 927 299.5 927 c 128,-1,35
 338 927 338 927 359 887 c 2,36,-1
 416 778 l 1,37,-1
 388 760 l 1,38,-1
 298 857 l 1,39,-1
 207 761 l 1,40,-1
 180 778 l 1,41,-1
 237 887 l 1,33,34
EndSplineSet
EndChar

StartChar: Atilde
Encoding: 195 195 120
Width: 681
GlyphClass: 2
Flags: W
LayerCount: 2
Fore
SplineSet
451 468 m 2,0,1
 451 543 451 543 411.5 604 c 128,-1,2
 372 665 372 665 308 665 c 0,3,4
 279 665 279 665 260 646 c 0,5,6
 218 606 218 606 218 497 c 2,7,-1
 218 197 l 2,8,9
 218 109 218 109 244.5 67 c 128,-1,10
 271 25 271 25 314 25 c 0,11,12
 377 25 377 25 414 85 c 128,-1,13
 451 145 451 145 451 227 c 2,14,-1
 451 468 l 2,0,1
452 0 m 1,15,-1
 452 110 l 1,16,17
 429 50 429 50 386 20 c 128,-1,18
 343 -10 343 -10 296 -10 c 0,19,20
 188 -10 188 -10 124 57.5 c 128,-1,21
 60 125 60 125 60 247 c 2,22,-1
 60 446 l 2,23,24
 60 569 60 569 131 634.5 c 128,-1,25
 202 700 202 700 298 700 c 0,26,27
 354 700 354 700 395 663.5 c 128,-1,28
 436 627 436 627 452 575 c 1,29,-1
 452 690 l 1,30,-1
 611 690 l 1,31,-1
 611 0 l 1,32,-1
 452 0 l 1,15,-1
423.5 784 m 128,-1,34
 396 757 396 757 367 757 c 128,-1,35
 338 757 338 757 295.5 781.5 c 128,-1,36
 253 806 253 806 236 806 c 0,37,38
 200 806 200 806 168 768 c 1,39,-1
 153 783 l 1,40,41
 218 867 218 867 276 867 c 0,42,43
 295 867 295 867 330.5 845.5 c 128,-1,44
 366 824 366 824 393 824 c 128,-1,45
 420 824 420 824 447 843 c 1,46,-1
 460 830 l 1,47,33
 451 811 451 811 423.5 784 c 128,-1,34
EndSplineSet
EndChar

StartChar: Adieresis
Encoding: 196 196 121
Width: 681
GlyphClass: 2
Flags: W
LayerCount: 2
Fore
SplineSet
451 468 m 2,0,1
 451 543 451 543 411.5 604 c 128,-1,2
 372 665 372 665 308 665 c 0,3,4
 279 665 279 665 260 646 c 0,5,6
 218 606 218 606 218 497 c 2,7,-1
 218 197 l 2,8,9
 218 109 218 109 244.5 67 c 128,-1,10
 271 25 271 25 314 25 c 0,11,12
 377 25 377 25 414 85 c 128,-1,13
 451 145 451 145 451 227 c 2,14,-1
 451 468 l 2,0,1
452 0 m 1,15,-1
 452 110 l 1,16,17
 429 50 429 50 386 20 c 128,-1,18
 343 -10 343 -10 296 -10 c 0,19,20
 188 -10 188 -10 124 57.5 c 128,-1,21
 60 125 60 125 60 247 c 2,22,-1
 60 446 l 2,23,24
 60 569 60 569 131 634.5 c 128,-1,25
 202 700 202 700 298 700 c 0,26,27
 354 700 354 700 395 663.5 c 128,-1,28
 436 627 436 627 452 575 c 1,29,-1
 452 690 l 1,30,-1
 611 690 l 1,31,-1
 611 0 l 1,32,-1
 452 0 l 1,15,-1
433 853 m 128,-1,34
 449 838 449 838 449 814.5 c 128,-1,35
 449 791 449 791 433 775.5 c 128,-1,36
 417 760 417 760 390 760 c 128,-1,37
 363 760 363 760 347 775.5 c 128,-1,38
 331 791 331 791 331 814.5 c 128,-1,39
 331 838 331 838 347 853 c 128,-1,40
 363 868 363 868 390 868 c 128,-1,33
 417 868 417 868 433 853 c 128,-1,34
251 853 m 128,-1,42
 267 838 267 838 267 814.5 c 128,-1,43
 267 791 267 791 251 775.5 c 128,-1,44
 235 760 235 760 208 760 c 128,-1,45
 181 760 181 760 165 775.5 c 128,-1,46
 149 791 149 791 149 814.5 c 128,-1,47
 149 838 149 838 165 853 c 128,-1,48
 181 868 181 868 208 868 c 128,-1,41
 235 868 235 868 251 853 c 128,-1,42
EndSplineSet
EndChar

StartChar: Aring
Encoding: 197 197 122
Width: 681
GlyphClass: 2
Flags: W
LayerCount: 2
Fore
SplineSet
451 468 m 2,0,1
 451 543 451 543 411.5 604 c 128,-1,2
 372 665 372 665 308 665 c 0,3,4
 279 665 279 665 260 646 c 0,5,6
 218 606 218 606 218 497 c 2,7,-1
 218 197 l 2,8,9
 218 109 218 109 244.5 67 c 128,-1,10
 271 25 271 25 314 25 c 0,11,12
 377 25 377 25 414 85 c 128,-1,13
 451 145 451 145 451 227 c 2,14,-1
 451 468 l 2,0,1
452 0 m 1,15,-1
 452 110 l 1,16,17
 429 50 429 50 386 20 c 128,-1,18
 343 -10 343 -10 296 -10 c 0,19,20
 188 -10 188 -10 124 57.5 c 128,-1,21
 60 125 60 125 60 247 c 2,22,-1
 60 446 l 2,23,24
 60 569 60 569 131 634.5 c 128,-1,25
 202 700 202 700 298 700 c 0,26,27
 354 700 354 700 395 663.5 c 128,-1,28
 436 627 436 627 452 575 c 1,29,-1
 452 690 l 1,30,-1
 611 690 l 1,31,-1
 611 0 l 1,32,-1
 452 0 l 1,15,-1
360.5 875 m 128,-1,34
 383 856 383 856 383 826.5 c 128,-1,35
 383 797 383 797 360.5 778.5 c 128,-1,36
 338 760 338 760 305 760 c 128,-1,37
 272 760 272 760 249.5 779 c 128,-1,38
 227 798 227 798 227 827 c 128,-1,39
 227 856 227 856 249.5 875 c 128,-1,40
 272 894 272 894 305 894 c 128,-1,33
 338 894 338 894 360.5 875 c 128,-1,34
334 800.5 m 128,-1,42
 346 811 346 811 346 826.5 c 128,-1,43
 346 842 346 842 334 852.5 c 128,-1,44
 322 863 322 863 305 863 c 128,-1,45
 288 863 288 863 276.5 852.5 c 128,-1,46
 265 842 265 842 265 826.5 c 128,-1,47
 265 811 265 811 276.5 800.5 c 128,-1,48
 288 790 288 790 305 790 c 128,-1,41
 322 790 322 790 334 800.5 c 128,-1,42
EndSplineSet
EndChar

StartChar: Ccedilla
Encoding: 199 199 123
Width: 632
GlyphClass: 2
Flags: W
LayerCount: 2
Fore
SplineSet
582 486 m 1,0,-1
 446 486 l 1,1,-1
 446 509 l 2,2,3
 446 579 446 579 417 622 c 128,-1,4
 388 665 388 665 332.5 665 c 128,-1,5
 277 665 277 665 248 622 c 128,-1,6
 219 579 219 579 219 509 c 2,7,-1
 219 182 l 2,8,9
 219 111 219 111 248 68 c 128,-1,10
 277 25 277 25 332.5 25 c 128,-1,11
 388 25 388 25 417 68.5 c 128,-1,12
 446 112 446 112 446 182 c 2,13,-1
 446 204 l 1,14,-1
 582 204 l 1,15,-1
 582 194 l 2,16,17
 582 107 582 107 522 57 c 128,-1,18
 462 7 462 7 382 -6 c 1,19,20
 378 -72 378 -72 266 -160 c 1,21,-1
 235 -136 l 1,22,23
 247 -121 247 -121 253.5 -91.5 c 128,-1,24
 260 -62 260 -62 262 -19 c 1,25,-1
 262 -2 l 1,26,27
 170 19 170 19 115 89 c 128,-1,28
 60 159 60 159 60 254 c 2,29,-1
 60 436 l 2,30,31
 60 549 60 549 135.5 624.5 c 128,-1,32
 211 700 211 700 333 700 c 0,33,34
 429 700 429 700 505.5 646.5 c 128,-1,35
 582 593 582 593 582 499 c 2,36,-1
 582 486 l 1,0,-1
EndSplineSet
EndChar

StartChar: Egrave
Encoding: 200 200 124
Width: 622
GlyphClass: 2
Flags: W
LayerCount: 2
Fore
SplineSet
582 194 m 2,0,1
 582 140 582 140 557 98.5 c 128,-1,2
 532 57 532 57 492 34 c 0,3,4
 414 -10 414 -10 333 -10 c 0,5,6
 211 -10 211 -10 135.5 65.5 c 128,-1,7
 60 141 60 141 60 254 c 2,8,-1
 60 436 l 2,9,10
 60 549 60 549 135.5 624.5 c 128,-1,11
 211 700 211 700 333 700 c 0,12,13
 429 700 429 700 505.5 646.5 c 128,-1,14
 582 593 582 593 582 499 c 2,15,-1
 582 486 l 1,16,-1
 446 486 l 1,17,-1
 446 508 l 2,18,19
 446 578 446 578 417 621.5 c 128,-1,20
 388 665 388 665 332.5 665 c 128,-1,21
 277 665 277 665 248 622 c 128,-1,22
 219 579 219 579 219 508 c 2,23,-1
 219 388 l 1,24,-1
 483 388 l 1,25,-1
 483 341 l 1,26,-1
 219 341 l 1,27,-1
 219 182 l 2,28,29
 219 111 219 111 248 68 c 128,-1,30
 277 25 277 25 332.5 25 c 128,-1,31
 388 25 388 25 417 68.5 c 128,-1,32
 446 112 446 112 446 182 c 2,33,-1
 446 204 l 1,34,-1
 582 204 l 1,35,-1
 582 194 l 2,0,1
222 885 m 1,36,37
 208 899 208 899 208 916.5 c 128,-1,38
 208 934 208 934 224.5 950 c 128,-1,39
 241 966 241 966 263 966 c 128,-1,40
 285 966 285 966 296 946 c 2,41,-1
 389 775 l 1,42,-1
 368 758 l 1,43,-1
 222 885 l 1,36,37
EndSplineSet
EndChar

StartChar: Eacute
Encoding: 201 201 125
Width: 622
GlyphClass: 2
Flags: W
LayerCount: 2
Fore
SplineSet
582 194 m 2,0,1
 582 140 582 140 557 98.5 c 128,-1,2
 532 57 532 57 492 34 c 0,3,4
 414 -10 414 -10 333 -10 c 0,5,6
 211 -10 211 -10 135.5 65.5 c 128,-1,7
 60 141 60 141 60 254 c 2,8,-1
 60 436 l 2,9,10
 60 549 60 549 135.5 624.5 c 128,-1,11
 211 700 211 700 333 700 c 0,12,13
 429 700 429 700 505.5 646.5 c 128,-1,14
 582 593 582 593 582 499 c 2,15,-1
 582 486 l 1,16,-1
 446 486 l 1,17,-1
 446 508 l 2,18,19
 446 578 446 578 417 621.5 c 128,-1,20
 388 665 388 665 332.5 665 c 128,-1,21
 277 665 277 665 248 622 c 128,-1,22
 219 579 219 579 219 508 c 2,23,-1
 219 388 l 1,24,-1
 483 388 l 1,25,-1
 483 341 l 1,26,-1
 219 341 l 1,27,-1
 219 182 l 2,28,29
 219 111 219 111 248 68 c 128,-1,30
 277 25 277 25 332.5 25 c 128,-1,31
 388 25 388 25 417 68.5 c 128,-1,32
 446 112 446 112 446 182 c 2,33,-1
 446 204 l 1,34,-1
 582 204 l 1,35,-1
 582 194 l 2,0,1
454.5 950 m 128,-1,37
 471 934 471 934 471 915 c 128,-1,38
 471 896 471 896 457 885 c 2,39,-1
 311 758 l 1,40,-1
 290 775 l 1,41,-1
 383 946 l 2,42,43
 394 966 394 966 416 966 c 128,-1,36
 438 966 438 966 454.5 950 c 128,-1,37
EndSplineSet
EndChar

StartChar: Ecircumflex
Encoding: 202 202 126
Width: 622
GlyphClass: 2
Flags: W
LayerCount: 2
Fore
SplineSet
582 194 m 2,0,1
 582 140 582 140 557 98.5 c 128,-1,2
 532 57 532 57 492 34 c 0,3,4
 414 -10 414 -10 333 -10 c 0,5,6
 211 -10 211 -10 135.5 65.5 c 128,-1,7
 60 141 60 141 60 254 c 2,8,-1
 60 436 l 2,9,10
 60 549 60 549 135.5 624.5 c 128,-1,11
 211 700 211 700 333 700 c 0,12,13
 429 700 429 700 505.5 646.5 c 128,-1,14
 582 593 582 593 582 499 c 2,15,-1
 582 486 l 1,16,-1
 446 486 l 1,17,-1
 446 508 l 2,18,19
 446 578 446 578 417 621.5 c 128,-1,20
 388 665 388 665 332.5 665 c 128,-1,21
 277 665 277 665 248 622 c 128,-1,22
 219 579 219 579 219 508 c 2,23,-1
 219 388 l 1,24,-1
 483 388 l 1,25,-1
 483 341 l 1,26,-1
 219 341 l 1,27,-1
 219 182 l 2,28,29
 219 111 219 111 248 68 c 128,-1,30
 277 25 277 25 332.5 25 c 128,-1,31
 388 25 388 25 417 68.5 c 128,-1,32
 446 112 446 112 446 182 c 2,33,-1
 446 204 l 1,34,-1
 582 204 l 1,35,-1
 582 194 l 2,0,1
272 885 m 1,36,37
 296 925 296 925 334.5 925 c 128,-1,38
 373 925 373 925 394 885 c 2,39,-1
 451 776 l 1,40,-1
 423 758 l 1,41,-1
 333 855 l 1,42,-1
 242 759 l 1,43,-1
 215 776 l 1,44,-1
 272 885 l 1,36,37
EndSplineSet
EndChar

StartChar: Edieresis
Encoding: 203 203 127
Width: 622
GlyphClass: 2
Flags: W
LayerCount: 2
Fore
SplineSet
582 194 m 2,0,1
 582 140 582 140 557 98.5 c 128,-1,2
 532 57 532 57 492 34 c 0,3,4
 414 -10 414 -10 333 -10 c 0,5,6
 211 -10 211 -10 135.5 65.5 c 128,-1,7
 60 141 60 141 60 254 c 2,8,-1
 60 436 l 2,9,10
 60 549 60 549 135.5 624.5 c 128,-1,11
 211 700 211 700 333 700 c 0,12,13
 429 700 429 700 505.5 646.5 c 128,-1,14
 582 593 582 593 582 499 c 2,15,-1
 582 486 l 1,16,-1
 446 486 l 1,17,-1
 446 508 l 2,18,19
 446 578 446 578 417 621.5 c 128,-1,20
 388 665 388 665 332.5 665 c 128,-1,21
 277 665 277 665 248 622 c 128,-1,22
 219 579 219 579 219 508 c 2,23,-1
 219 388 l 1,24,-1
 483 388 l 1,25,-1
 483 341 l 1,26,-1
 219 341 l 1,27,-1
 219 182 l 2,28,29
 219 111 219 111 248 68 c 128,-1,30
 277 25 277 25 332.5 25 c 128,-1,31
 388 25 388 25 417 68.5 c 128,-1,32
 446 112 446 112 446 182 c 2,33,-1
 446 204 l 1,34,-1
 582 204 l 1,35,-1
 582 194 l 2,0,1
463 851 m 128,-1,37
 479 836 479 836 479 812.5 c 128,-1,38
 479 789 479 789 463 773.5 c 128,-1,39
 447 758 447 758 420 758 c 128,-1,40
 393 758 393 758 377 773.5 c 128,-1,41
 361 789 361 789 361 812.5 c 128,-1,42
 361 836 361 836 377 851 c 128,-1,43
 393 866 393 866 420 866 c 128,-1,36
 447 866 447 866 463 851 c 128,-1,37
281 851 m 128,-1,45
 297 836 297 836 297 812.5 c 128,-1,46
 297 789 297 789 281 773.5 c 128,-1,47
 265 758 265 758 238 758 c 128,-1,48
 211 758 211 758 195 773.5 c 128,-1,49
 179 789 179 789 179 812.5 c 128,-1,50
 179 836 179 836 195 851 c 128,-1,51
 211 866 211 866 238 866 c 128,-1,44
 265 866 265 866 281 851 c 128,-1,45
EndSplineSet
EndChar

StartChar: Igrave
Encoding: 204 204 128
Width: 249
GlyphClass: 2
Flags: W
LayerCount: 2
Fore
SplineSet
204 690 m 1,0,-1
 204 0 l 1,1,-1
 45 0 l 1,2,-1
 45 690 l 1,3,-1
 204 690 l 1,0,-1
15 882 m 1,4,5
 1 896 1 896 1 913.5 c 128,-1,6
 1 931 1 931 17.5 947 c 128,-1,7
 34 963 34 963 56 963 c 128,-1,8
 78 963 78 963 89 943 c 2,9,-1
 182 772 l 1,10,-1
 161 755 l 1,11,-1
 15 882 l 1,4,5
EndSplineSet
EndChar

StartChar: Iacute
Encoding: 205 205 129
Width: 249
GlyphClass: 2
Flags: W
LayerCount: 2
Fore
SplineSet
204 690 m 1,0,-1
 204 0 l 1,1,-1
 45 0 l 1,2,-1
 45 690 l 1,3,-1
 204 690 l 1,0,-1
230.5 947 m 128,-1,5
 247 931 247 931 247 912 c 128,-1,6
 247 893 247 893 233 882 c 2,7,-1
 87 755 l 1,8,-1
 66 772 l 1,9,-1
 159 943 l 2,10,11
 170 963 170 963 192 963 c 128,-1,4
 214 963 214 963 230.5 947 c 128,-1,5
EndSplineSet
EndChar

StartChar: Icircumflex
Encoding: 206 206 130
Width: 249
GlyphClass: 2
Flags: W
LayerCount: 2
Fore
SplineSet
204 690 m 1,0,-1
 204 0 l 1,1,-1
 45 0 l 1,2,-1
 45 690 l 1,3,-1
 204 690 l 1,0,-1
67 882 m 1,4,5
 91 922 91 922 129.5 922 c 128,-1,6
 168 922 168 922 189 882 c 2,7,-1
 246 773 l 1,8,-1
 218 755 l 1,9,-1
 128 852 l 1,10,-1
 37 756 l 1,11,-1
 10 773 l 1,12,-1
 67 882 l 1,4,5
EndSplineSet
EndChar

StartChar: Idieresis
Encoding: 207 207 131
Width: 249
GlyphClass: 2
Flags: W
LayerCount: 2
Fore
SplineSet
204 690 m 1,0,-1
 204 0 l 1,1,-1
 45 0 l 1,2,-1
 45 690 l 1,3,-1
 204 690 l 1,0,-1
262 850 m 128,-1,5
 278 835 278 835 278 811.5 c 128,-1,6
 278 788 278 788 262 772.5 c 128,-1,7
 246 757 246 757 219 757 c 128,-1,8
 192 757 192 757 176 772.5 c 128,-1,9
 160 788 160 788 160 811.5 c 128,-1,10
 160 835 160 835 176 850 c 128,-1,11
 192 865 192 865 219 865 c 128,-1,4
 246 865 246 865 262 850 c 128,-1,5
80 850 m 128,-1,13
 96 835 96 835 96 811.5 c 128,-1,14
 96 788 96 788 80 772.5 c 128,-1,15
 64 757 64 757 37 757 c 128,-1,16
 10 757 10 757 -6 772.5 c 128,-1,17
 -22 788 -22 788 -22 811.5 c 128,-1,18
 -22 835 -22 835 -6 850 c 128,-1,19
 10 865 10 865 37 865 c 128,-1,12
 64 865 64 865 80 850 c 128,-1,13
EndSplineSet
EndChar

StartChar: Eth
Encoding: 208 208 132
Width: 651
GlyphClass: 2
Flags: W
LayerCount: 2
Fore
SplineSet
0 365 m 1,0,-1
 0 430 l 1,1,-1
 70 430 l 1,2,-1
 70 690 l 1,3,-1
 311 690 l 2,4,5
 435 690 435 690 513 613.5 c 128,-1,6
 591 537 591 537 591 421 c 2,7,-1
 591 269 l 2,8,9
 591 153 591 153 513 76.5 c 128,-1,10
 435 0 435 0 311 0 c 2,11,-1
 70 0 l 1,12,-1
 70 365 l 1,13,-1
 0 365 l 1,0,-1
433 222 m 2,14,-1
 433 468 l 2,15,16
 433 559 433 559 390.5 607.5 c 128,-1,17
 348 656 348 656 274 656 c 2,18,-1
 228 656 l 1,19,-1
 228 430 l 1,20,-1
 323 430 l 1,21,-1
 323 365 l 1,22,-1
 228 365 l 1,23,-1
 228 34 l 1,24,-1
 274 34 l 2,25,26
 348 34 348 34 390.5 82.5 c 128,-1,27
 433 131 433 131 433 222 c 2,14,-1
EndSplineSet
EndChar

StartChar: Ntilde
Encoding: 209 209 133
Width: 676
GlyphClass: 2
Flags: W
LayerCount: 2
Fore
SplineSet
616 0 m 1,0,-1
 456 0 l 1,1,-1
 456 503 l 2,2,3
 456 665 456 665 364 665 c 0,4,5
 310 665 310 665 269 605 c 128,-1,6
 228 545 228 545 228 464 c 2,7,-1
 228 0 l 1,8,-1
 70 0 l 1,9,-1
 70 690 l 1,10,-1
 228 690 l 1,11,-1
 228 575 l 1,12,13
 248 634 248 634 289 667 c 128,-1,14
 330 700 330 700 386 700 c 0,15,16
 487 700 487 700 551.5 638 c 128,-1,17
 616 576 616 576 616 452 c 2,18,-1
 616 0 l 1,0,-1
493.5 794 m 128,-1,20
 466 767 466 767 437 767 c 128,-1,21
 408 767 408 767 366 791.5 c 128,-1,22
 324 816 324 816 306 816 c 0,23,24
 270 816 270 816 238 778 c 1,25,-1
 223 793 l 1,26,27
 288 877 288 877 346 877 c 0,28,29
 365 877 365 877 400.5 855.5 c 128,-1,30
 436 834 436 834 463 834 c 128,-1,31
 490 834 490 834 517 853 c 1,32,-1
 530 840 l 1,33,19
 521 821 521 821 493.5 794 c 128,-1,20
EndSplineSet
EndChar

StartChar: Ograve
Encoding: 210 210 134
Width: 666
GlyphClass: 2
Flags: W
LayerCount: 2
Fore
SplineSet
606 260 m 2,0,1
 606 137 606 137 534 63.5 c 128,-1,2
 462 -10 462 -10 332.5 -10 c 128,-1,3
 203 -10 203 -10 131.5 63.5 c 128,-1,4
 60 137 60 137 60 260 c 2,5,-1
 60 429 l 2,6,7
 60 552 60 552 131.5 626 c 128,-1,8
 203 700 203 700 332.5 700 c 128,-1,9
 462 700 462 700 534 626 c 128,-1,10
 606 552 606 552 606 429 c 2,11,-1
 606 260 l 2,0,1
446 182 m 2,12,-1
 446 508 l 2,13,14
 446 578 446 578 417 621.5 c 128,-1,15
 388 665 388 665 332.5 665 c 128,-1,16
 277 665 277 665 248 621.5 c 128,-1,17
 219 578 219 578 219 508 c 2,18,-1
 219 182 l 2,19,20
 219 111 219 111 248 68 c 128,-1,21
 277 25 277 25 332.5 25 c 128,-1,22
 388 25 388 25 417 68.5 c 128,-1,23
 446 112 446 112 446 182 c 2,12,-1
212 885 m 1,24,25
 198 899 198 899 198 916.5 c 128,-1,26
 198 934 198 934 214.5 950 c 128,-1,27
 231 966 231 966 253 966 c 128,-1,28
 275 966 275 966 286 946 c 2,29,-1
 379 775 l 1,30,-1
 358 758 l 1,31,-1
 212 885 l 1,24,25
EndSplineSet
EndChar

StartChar: Oacute
Encoding: 211 211 135
Width: 666
GlyphClass: 2
Flags: W
LayerCount: 2
Fore
SplineSet
606 260 m 2,0,1
 606 137 606 137 534 63.5 c 128,-1,2
 462 -10 462 -10 332.5 -10 c 128,-1,3
 203 -10 203 -10 131.5 63.5 c 128,-1,4
 60 137 60 137 60 260 c 2,5,-1
 60 429 l 2,6,7
 60 552 60 552 131.5 626 c 128,-1,8
 203 700 203 700 332.5 700 c 128,-1,9
 462 700 462 700 534 626 c 128,-1,10
 606 552 606 552 606 429 c 2,11,-1
 606 260 l 2,0,1
446 182 m 2,12,-1
 446 508 l 2,13,14
 446 578 446 578 417 621.5 c 128,-1,15
 388 665 388 665 332.5 665 c 128,-1,16
 277 665 277 665 248 621.5 c 128,-1,17
 219 578 219 578 219 508 c 2,18,-1
 219 182 l 2,19,20
 219 111 219 111 248 68 c 128,-1,21
 277 25 277 25 332.5 25 c 128,-1,22
 388 25 388 25 417 68.5 c 128,-1,23
 446 112 446 112 446 182 c 2,12,-1
457.5 950 m 128,-1,25
 474 934 474 934 474 915 c 128,-1,26
 474 896 474 896 460 885 c 2,27,-1
 314 758 l 1,28,-1
 293 775 l 1,29,-1
 386 946 l 2,30,31
 397 966 397 966 419 966 c 128,-1,24
 441 966 441 966 457.5 950 c 128,-1,25
EndSplineSet
EndChar

StartChar: Ocircumflex
Encoding: 212 212 136
Width: 666
GlyphClass: 2
Flags: W
LayerCount: 2
Fore
SplineSet
606 260 m 2,0,1
 606 137 606 137 534 63.5 c 128,-1,2
 462 -10 462 -10 332.5 -10 c 128,-1,3
 203 -10 203 -10 131.5 63.5 c 128,-1,4
 60 137 60 137 60 260 c 2,5,-1
 60 429 l 2,6,7
 60 552 60 552 131.5 626 c 128,-1,8
 203 700 203 700 332.5 700 c 128,-1,9
 462 700 462 700 534 626 c 128,-1,10
 606 552 606 552 606 429 c 2,11,-1
 606 260 l 2,0,1
446 182 m 2,12,-1
 446 508 l 2,13,14
 446 578 446 578 417 621.5 c 128,-1,15
 388 665 388 665 332.5 665 c 128,-1,16
 277 665 277 665 248 621.5 c 128,-1,17
 219 578 219 578 219 508 c 2,18,-1
 219 182 l 2,19,20
 219 111 219 111 248 68 c 128,-1,21
 277 25 277 25 332.5 25 c 128,-1,22
 388 25 388 25 417 68.5 c 128,-1,23
 446 112 446 112 446 182 c 2,12,-1
270 885 m 1,24,25
 294 925 294 925 332.5 925 c 128,-1,26
 371 925 371 925 392 885 c 2,27,-1
 449 776 l 1,28,-1
 421 758 l 1,29,-1
 331 855 l 1,30,-1
 240 759 l 1,31,-1
 213 776 l 1,32,-1
 270 885 l 1,24,25
EndSplineSet
EndChar

StartChar: Otilde
Encoding: 213 213 137
Width: 666
GlyphClass: 2
Flags: W
LayerCount: 2
Fore
SplineSet
606 260 m 2,0,1
 606 137 606 137 534 63.5 c 128,-1,2
 462 -10 462 -10 332.5 -10 c 128,-1,3
 203 -10 203 -10 131.5 63.5 c 128,-1,4
 60 137 60 137 60 260 c 2,5,-1
 60 429 l 2,6,7
 60 552 60 552 131.5 626 c 128,-1,8
 203 700 203 700 332.5 700 c 128,-1,9
 462 700 462 700 534 626 c 128,-1,10
 606 552 606 552 606 429 c 2,11,-1
 606 260 l 2,0,1
446 182 m 2,12,-1
 446 508 l 2,13,14
 446 578 446 578 417 621.5 c 128,-1,15
 388 665 388 665 332.5 665 c 128,-1,16
 277 665 277 665 248 621.5 c 128,-1,17
 219 578 219 578 219 508 c 2,18,-1
 219 182 l 2,19,20
 219 111 219 111 248 68 c 128,-1,21
 277 25 277 25 332.5 25 c 128,-1,22
 388 25 388 25 417 68.5 c 128,-1,23
 446 112 446 112 446 182 c 2,12,-1
453.5 784 m 128,-1,25
 426 757 426 757 397 757 c 128,-1,26
 368 757 368 757 326 781.5 c 128,-1,27
 284 806 284 806 266 806 c 0,28,29
 230 806 230 806 198 768 c 1,30,-1
 183 783 l 1,31,32
 248 867 248 867 306 867 c 0,33,34
 325 867 325 867 360.5 845.5 c 128,-1,35
 396 824 396 824 423 824 c 128,-1,36
 450 824 450 824 477 843 c 1,37,-1
 490 830 l 1,38,24
 481 811 481 811 453.5 784 c 128,-1,25
EndSplineSet
EndChar

StartChar: Odieresis
Encoding: 214 214 138
Width: 666
GlyphClass: 2
Flags: W
LayerCount: 2
Fore
SplineSet
606 260 m 2,0,1
 606 137 606 137 534 63.5 c 128,-1,2
 462 -10 462 -10 332.5 -10 c 128,-1,3
 203 -10 203 -10 131.5 63.5 c 128,-1,4
 60 137 60 137 60 260 c 2,5,-1
 60 429 l 2,6,7
 60 552 60 552 131.5 626 c 128,-1,8
 203 700 203 700 332.5 700 c 128,-1,9
 462 700 462 700 534 626 c 128,-1,10
 606 552 606 552 606 429 c 2,11,-1
 606 260 l 2,0,1
446 182 m 2,12,-1
 446 508 l 2,13,14
 446 578 446 578 417 621.5 c 128,-1,15
 388 665 388 665 332.5 665 c 128,-1,16
 277 665 277 665 248 621.5 c 128,-1,17
 219 578 219 578 219 508 c 2,18,-1
 219 182 l 2,19,20
 219 111 219 111 248 68 c 128,-1,21
 277 25 277 25 332.5 25 c 128,-1,22
 388 25 388 25 417 68.5 c 128,-1,23
 446 112 446 112 446 182 c 2,12,-1
466 852 m 128,-1,25
 482 837 482 837 482 813.5 c 128,-1,26
 482 790 482 790 466 774.5 c 128,-1,27
 450 759 450 759 423 759 c 128,-1,28
 396 759 396 759 380 774.5 c 128,-1,29
 364 790 364 790 364 813.5 c 128,-1,30
 364 837 364 837 380 852 c 128,-1,31
 396 867 396 867 423 867 c 128,-1,24
 450 867 450 867 466 852 c 128,-1,25
284 852 m 128,-1,33
 300 837 300 837 300 813.5 c 128,-1,34
 300 790 300 790 284 774.5 c 128,-1,35
 268 759 268 759 241 759 c 128,-1,36
 214 759 214 759 198 774.5 c 128,-1,37
 182 790 182 790 182 813.5 c 128,-1,38
 182 837 182 837 198 852 c 128,-1,39
 214 867 214 867 241 867 c 128,-1,32
 268 867 268 867 284 852 c 128,-1,33
EndSplineSet
EndChar

StartChar: Oslash
Encoding: 216 216 139
Width: 666
GlyphClass: 2
Flags: W
LayerCount: 2
Fore
SplineSet
606 260 m 2,0,1
 606 137 606 137 534 63.5 c 128,-1,2
 462 -10 462 -10 333 -10 c 2,3,-1
 322 -10 l 1,4,-1
 319 -48 l 1,5,-1
 270 -44 l 1,6,-1
 273 -5 l 1,7,8
 171 11 171 11 115.5 81.5 c 128,-1,9
 60 152 60 152 60 260 c 2,10,-1
 60 429 l 2,11,12
 60 552 60 552 131.5 626 c 128,-1,13
 203 700 203 700 333 700 c 2,14,-1
 344 700 l 1,15,-1
 347 730 l 1,16,-1
 397 725 l 1,17,-1
 394 695 l 1,18,19
 495 678 495 678 550.5 607 c 128,-1,20
 606 536 606 536 606 429 c 2,21,-1
 606 260 l 2,0,1
219 182 m 2,22,23
 219 76 219 76 277 40 c 1,24,-1
 341 664 l 1,25,-1
 333 665 l 1,26,27
 277 665 277 665 248 621.5 c 128,-1,28
 219 578 219 578 219 508 c 2,29,-1
 219 182 l 2,22,23
446 182 m 2,30,-1
 446 508 l 2,31,32
 446 610 446 610 390 649 c 1,33,-1
 326 25 l 1,34,-1
 333 25 l 2,35,36
 388 25 388 25 417 68.5 c 128,-1,37
 446 112 446 112 446 182 c 2,30,-1
EndSplineSet
EndChar

StartChar: Ugrave
Encoding: 217 217 140
Width: 681
GlyphClass: 2
Flags: W
LayerCount: 2
Fore
SplineSet
611 0 m 1,0,-1
 452 0 l 1,1,-1
 452 110 l 1,2,3
 433 55 433 55 390.5 22.5 c 128,-1,4
 348 -10 348 -10 296 -10 c 0,5,6
 188 -10 188 -10 124 57.5 c 128,-1,7
 60 125 60 125 60 247 c 2,8,-1
 60 690 l 1,9,-1
 218 690 l 1,10,-1
 218 197 l 2,11,12
 218 25 218 25 319 25 c 0,13,14
 375 25 375 25 413 84 c 128,-1,15
 451 143 451 143 451 230 c 2,16,-1
 451 690 l 1,17,-1
 611 690 l 1,18,-1
 611 0 l 1,0,-1
197 886 m 1,19,20
 183 900 183 900 183 917.5 c 128,-1,21
 183 935 183 935 199.5 951 c 128,-1,22
 216 967 216 967 238 967 c 128,-1,23
 260 967 260 967 271 947 c 2,24,-1
 364 776 l 1,25,-1
 343 759 l 1,26,-1
 197 886 l 1,19,20
EndSplineSet
EndChar

StartChar: Uacute
Encoding: 218 218 141
Width: 681
GlyphClass: 2
Flags: W
LayerCount: 2
Fore
SplineSet
611 0 m 1,0,-1
 452 0 l 1,1,-1
 452 110 l 1,2,3
 433 55 433 55 390.5 22.5 c 128,-1,4
 348 -10 348 -10 296 -10 c 0,5,6
 188 -10 188 -10 124 57.5 c 128,-1,7
 60 125 60 125 60 247 c 2,8,-1
 60 690 l 1,9,-1
 218 690 l 1,10,-1
 218 197 l 2,11,12
 218 25 218 25 319 25 c 0,13,14
 375 25 375 25 413 84 c 128,-1,15
 451 143 451 143 451 230 c 2,16,-1
 451 690 l 1,17,-1
 611 690 l 1,18,-1
 611 0 l 1,0,-1
452.5 950 m 128,-1,20
 469 934 469 934 469 915 c 128,-1,21
 469 896 469 896 455 885 c 2,22,-1
 309 758 l 1,23,-1
 288 775 l 1,24,-1
 381 946 l 2,25,26
 392 966 392 966 414 966 c 128,-1,19
 436 966 436 966 452.5 950 c 128,-1,20
EndSplineSet
EndChar

StartChar: Ucircumflex
Encoding: 219 219 142
Width: 681
GlyphClass: 2
Flags: W
LayerCount: 2
Fore
SplineSet
611 0 m 1,0,-1
 452 0 l 1,1,-1
 452 110 l 1,2,3
 433 55 433 55 390.5 22.5 c 128,-1,4
 348 -10 348 -10 296 -10 c 0,5,6
 188 -10 188 -10 124 57.5 c 128,-1,7
 60 125 60 125 60 247 c 2,8,-1
 60 690 l 1,9,-1
 218 690 l 1,10,-1
 218 197 l 2,11,12
 218 25 218 25 319 25 c 0,13,14
 375 25 375 25 413 84 c 128,-1,15
 451 143 451 143 451 230 c 2,16,-1
 451 690 l 1,17,-1
 611 690 l 1,18,-1
 611 0 l 1,0,-1
272 888 m 1,19,20
 296 928 296 928 334.5 928 c 128,-1,21
 373 928 373 928 394 888 c 2,22,-1
 451 779 l 1,23,-1
 423 761 l 1,24,-1
 333 858 l 1,25,-1
 242 762 l 1,26,-1
 215 779 l 1,27,-1
 272 888 l 1,19,20
EndSplineSet
EndChar

StartChar: Udieresis
Encoding: 220 220 143
Width: 681
GlyphClass: 2
Flags: W
LayerCount: 2
Fore
SplineSet
611 0 m 1,0,-1
 452 0 l 1,1,-1
 452 110 l 1,2,3
 433 55 433 55 390.5 22.5 c 128,-1,4
 348 -10 348 -10 296 -10 c 0,5,6
 188 -10 188 -10 124 57.5 c 128,-1,7
 60 125 60 125 60 247 c 2,8,-1
 60 690 l 1,9,-1
 218 690 l 1,10,-1
 218 197 l 2,11,12
 218 25 218 25 319 25 c 0,13,14
 375 25 375 25 413 84 c 128,-1,15
 451 143 451 143 451 230 c 2,16,-1
 451 690 l 1,17,-1
 611 690 l 1,18,-1
 611 0 l 1,0,-1
456 851 m 128,-1,20
 472 836 472 836 472 812.5 c 128,-1,21
 472 789 472 789 456 773.5 c 128,-1,22
 440 758 440 758 413 758 c 128,-1,23
 386 758 386 758 370 773.5 c 128,-1,24
 354 789 354 789 354 812.5 c 128,-1,25
 354 836 354 836 370 851 c 128,-1,26
 386 866 386 866 413 866 c 128,-1,19
 440 866 440 866 456 851 c 128,-1,20
274 851 m 128,-1,28
 290 836 290 836 290 812.5 c 128,-1,29
 290 789 290 789 274 773.5 c 128,-1,30
 258 758 258 758 231 758 c 128,-1,31
 204 758 204 758 188 773.5 c 128,-1,32
 172 789 172 789 172 812.5 c 128,-1,33
 172 836 172 836 188 851 c 128,-1,34
 204 866 204 866 231 866 c 128,-1,27
 258 866 258 866 274 851 c 128,-1,28
EndSplineSet
EndChar

StartChar: Yacute
Encoding: 221 221 144
Width: 615
GlyphClass: 2
Flags: W
LayerCount: 2
Fore
SplineSet
590 611 m 2,0,1
 590 521 590 521 534 451.5 c 128,-1,2
 478 382 478 382 387 357 c 1,3,-1
 387 0 l 1,4,-1
 228 0 l 1,5,-1
 228 356 l 1,6,7
 137 381 137 381 81 451 c 128,-1,8
 25 521 25 521 25 611 c 2,9,-1
 25 690 l 1,10,-1
 184 690 l 1,11,-1
 184 538 l 2,12,13
 184 471 184 471 218.5 426.5 c 128,-1,14
 253 382 253 382 307.5 382 c 128,-1,15
 362 382 362 382 396 426 c 128,-1,16
 430 470 430 470 430 538 c 2,17,-1
 430 690 l 1,18,-1
 590 690 l 1,19,-1
 590 611 l 2,0,1
444.5 950 m 128,-1,21
 461 934 461 934 461 915 c 128,-1,22
 461 896 461 896 447 885 c 2,23,-1
 301 758 l 1,24,-1
 280 775 l 1,25,-1
 373 946 l 2,26,27
 384 966 384 966 406 966 c 128,-1,20
 428 966 428 966 444.5 950 c 128,-1,21
EndSplineSet
EndChar

StartChar: Thorn
Encoding: 222 222 145
Width: 681
GlyphClass: 2
Flags: W
LayerCount: 2
Fore
SplineSet
230 388 m 2,0,-1
 230 231 l 2,1,2
 230 150 230 150 268 87.5 c 128,-1,3
 306 25 306 25 367 25 c 0,4,5
 410 25 410 25 436.5 67 c 128,-1,6
 463 109 463 109 463 197 c 2,7,-1
 463 417 l 2,8,9
 463 466 463 466 452 506 c 0,10,11
 429 585 429 585 367 585 c 128,-1,12
 305 585 305 585 267.5 525 c 128,-1,13
 230 465 230 465 230 388 c 2,0,-1
229 -200 m 1,14,-1
 70 -200 l 1,15,-1
 70 690 l 1,16,-1
 229 690 l 1,17,-1
 229 500 l 1,18,19
 247 550 247 550 289.5 585 c 128,-1,20
 332 620 332 620 385 620 c 0,21,22
 481 620 481 620 551 554.5 c 128,-1,23
 621 489 621 489 621 366 c 2,24,-1
 621 247 l 2,25,26
 621 125 621 125 557 57.5 c 128,-1,27
 493 -10 493 -10 385 -10 c 0,28,29
 336 -10 336 -10 294.5 21 c 128,-1,30
 253 52 253 52 229 114 c 1,31,-1
 229 -200 l 1,14,-1
EndSplineSet
EndChar

StartChar: germandbls
Encoding: 223 223 146
Width: 604
GlyphClass: 2
Flags: W
LayerCount: 2
Fore
SplineSet
432 495 m 1,0,1
 405 495 405 495 386 476.5 c 128,-1,2
 367 458 367 458 367 430 c 128,-1,3
 367 402 367 402 395 372 c 2,4,-1
 545 206 l 2,5,6
 584 162 584 162 584 112.5 c 128,-1,7
 584 63 584 63 535 26.5 c 128,-1,8
 486 -10 486 -10 407.5 -10 c 128,-1,9
 329 -10 329 -10 293.5 29.5 c 128,-1,10
 258 69 258 69 258 113 c 1,11,-1
 288 113 l 1,12,13
 288 72 288 72 318.5 46 c 128,-1,14
 349 20 349 20 380.5 20 c 128,-1,15
 412 20 412 20 436.5 39.5 c 128,-1,16
 461 59 461 59 461 91 c 0,17,18
 461 116 461 116 444 132 c 0,19,20
 438 139 438 139 288 307 c 0,21,22
 246 353 246 353 246 404 c 128,-1,23
 246 455 246 455 292.5 489.5 c 128,-1,24
 339 524 339 524 408 525 c 1,25,26
 403 586 403 586 365.5 625.5 c 128,-1,27
 328 665 328 665 291 665 c 128,-1,28
 254 665 254 665 231 639.5 c 128,-1,29
 208 614 208 614 208 587 c 2,30,-1
 208 0 l 1,31,-1
 73 0 l 1,32,-1
 73 300 l 1,33,-1
 40 300 l 1,34,-1
 40 330 l 1,35,-1
 73 330 l 1,36,-1
 73 557 l 2,37,38
 73 613 73 613 124 656.5 c 128,-1,39
 175 700 175 700 246.5 700 c 128,-1,40
 318 700 318 700 359 664 c 128,-1,41
 400 628 400 628 409 593 c 1,42,-1
 409 695 l 1,43,-1
 432 695 l 1,44,-1
 432 495 l 1,0,1
EndSplineSet
EndChar

StartChar: agrave
Encoding: 224 224 147
Width: 524
GlyphClass: 2
Flags: W
LayerCount: 2
Fore
SplineSet
468 40 m 0,0,1
 488 40 488 40 500 72 c 1,2,-1
 519 69 l 1,3,4
 519 59 519 59 511.5 43.5 c 128,-1,5
 504 28 504 28 494 18 c 0,6,7
 468 -10 468 -10 416 -10 c 0,8,9
 323 -10 323 -10 311 64 c 1,10,11
 303 37 303 37 277 13.5 c 128,-1,12
 251 -10 251 -10 211 -10 c 0,13,14
 133 -10 133 -10 91.5 32.5 c 128,-1,15
 50 75 50 75 50 149 c 2,16,-1
 50 322 l 2,17,18
 50 394 50 394 94.5 437 c 128,-1,19
 139 480 139 480 211 480 c 0,20,21
 250 480 250 480 276.5 459 c 128,-1,22
 303 438 303 438 309 414 c 1,23,-1
 309 470 l 1,24,-1
 445 470 l 1,25,-1
 445 74 l 2,26,27
 445 40 445 40 468 40 c 0,0,1
309 334 m 2,28,29
 309 376 309 376 287 413 c 128,-1,30
 265 450 265 450 236.5 450 c 128,-1,31
 208 450 208 450 197.5 426 c 128,-1,32
 187 402 187 402 187 356 c 2,33,-1
 187 115 l 2,34,35
 187 66 187 66 198 44 c 128,-1,36
 209 22 209 22 237 22 c 128,-1,37
 265 22 265 22 287 57 c 128,-1,38
 309 92 309 92 309 137 c 2,39,-1
 309 334 l 2,28,29
133 653 m 1,40,41
 119 667 119 667 119 684.5 c 128,-1,42
 119 702 119 702 135.5 718 c 128,-1,43
 152 734 152 734 174 734 c 128,-1,44
 196 734 196 734 207 714 c 2,45,-1
 300 543 l 1,46,-1
 279 526 l 1,47,-1
 133 653 l 1,40,41
EndSplineSet
EndChar

StartChar: aacute
Encoding: 225 225 148
Width: 524
GlyphClass: 2
Flags: W
LayerCount: 2
Fore
SplineSet
468 40 m 0,0,1
 488 40 488 40 500 72 c 1,2,-1
 519 69 l 1,3,4
 519 59 519 59 511.5 43.5 c 128,-1,5
 504 28 504 28 494 18 c 0,6,7
 468 -10 468 -10 416 -10 c 0,8,9
 323 -10 323 -10 311 64 c 1,10,11
 303 37 303 37 277 13.5 c 128,-1,12
 251 -10 251 -10 211 -10 c 0,13,14
 133 -10 133 -10 91.5 32.5 c 128,-1,15
 50 75 50 75 50 149 c 2,16,-1
 50 322 l 2,17,18
 50 394 50 394 94.5 437 c 128,-1,19
 139 480 139 480 211 480 c 0,20,21
 250 480 250 480 276.5 459 c 128,-1,22
 303 438 303 438 309 414 c 1,23,-1
 309 470 l 1,24,-1
 445 470 l 1,25,-1
 445 74 l 2,26,27
 445 40 445 40 468 40 c 0,0,1
309 334 m 2,28,29
 309 376 309 376 287 413 c 128,-1,30
 265 450 265 450 236.5 450 c 128,-1,31
 208 450 208 450 197.5 426 c 128,-1,32
 187 402 187 402 187 356 c 2,33,-1
 187 115 l 2,34,35
 187 66 187 66 198 44 c 128,-1,36
 209 22 209 22 237 22 c 128,-1,37
 265 22 265 22 287 57 c 128,-1,38
 309 92 309 92 309 137 c 2,39,-1
 309 334 l 2,28,29
359.5 718 m 128,-1,41
 376 702 376 702 376 683 c 128,-1,42
 376 664 376 664 362 653 c 2,43,-1
 216 526 l 1,44,-1
 195 543 l 1,45,-1
 288 714 l 2,46,47
 299 734 299 734 321 734 c 128,-1,40
 343 734 343 734 359.5 718 c 128,-1,41
EndSplineSet
EndChar

StartChar: acircumflex
Encoding: 226 226 149
Width: 524
GlyphClass: 2
Flags: W
LayerCount: 2
Fore
SplineSet
468 40 m 0,0,1
 488 40 488 40 500 72 c 1,2,-1
 519 69 l 1,3,4
 519 59 519 59 511.5 43.5 c 128,-1,5
 504 28 504 28 494 18 c 0,6,7
 468 -10 468 -10 416 -10 c 0,8,9
 323 -10 323 -10 311 64 c 1,10,11
 303 37 303 37 277 13.5 c 128,-1,12
 251 -10 251 -10 211 -10 c 0,13,14
 133 -10 133 -10 91.5 32.5 c 128,-1,15
 50 75 50 75 50 149 c 2,16,-1
 50 322 l 2,17,18
 50 394 50 394 94.5 437 c 128,-1,19
 139 480 139 480 211 480 c 0,20,21
 250 480 250 480 276.5 459 c 128,-1,22
 303 438 303 438 309 414 c 1,23,-1
 309 470 l 1,24,-1
 445 470 l 1,25,-1
 445 74 l 2,26,27
 445 40 445 40 468 40 c 0,0,1
309 334 m 2,28,29
 309 376 309 376 287 413 c 128,-1,30
 265 450 265 450 236.5 450 c 128,-1,31
 208 450 208 450 197.5 426 c 128,-1,32
 187 402 187 402 187 356 c 2,33,-1
 187 115 l 2,34,35
 187 66 187 66 198 44 c 128,-1,36
 209 22 209 22 237 22 c 128,-1,37
 265 22 265 22 287 57 c 128,-1,38
 309 92 309 92 309 137 c 2,39,-1
 309 334 l 2,28,29
172 660 m 1,40,41
 196 700 196 700 234.5 700 c 128,-1,42
 273 700 273 700 294 660 c 2,43,-1
 351 551 l 1,44,-1
 323 533 l 1,45,-1
 233 630 l 1,46,-1
 142 534 l 1,47,-1
 115 551 l 1,48,-1
 172 660 l 1,40,41
EndSplineSet
EndChar

StartChar: atilde
Encoding: 227 227 150
Width: 524
GlyphClass: 2
Flags: W
LayerCount: 2
Fore
SplineSet
468 40 m 0,0,1
 488 40 488 40 500 72 c 1,2,-1
 519 69 l 1,3,4
 519 59 519 59 511.5 43.5 c 128,-1,5
 504 28 504 28 494 18 c 0,6,7
 468 -10 468 -10 416 -10 c 0,8,9
 323 -10 323 -10 311 64 c 1,10,11
 303 37 303 37 277 13.5 c 128,-1,12
 251 -10 251 -10 211 -10 c 0,13,14
 133 -10 133 -10 91.5 32.5 c 128,-1,15
 50 75 50 75 50 149 c 2,16,-1
 50 322 l 2,17,18
 50 394 50 394 94.5 437 c 128,-1,19
 139 480 139 480 211 480 c 0,20,21
 250 480 250 480 276.5 459 c 128,-1,22
 303 438 303 438 309 414 c 1,23,-1
 309 470 l 1,24,-1
 445 470 l 1,25,-1
 445 74 l 2,26,27
 445 40 445 40 468 40 c 0,0,1
309 334 m 2,28,29
 309 376 309 376 287 413 c 128,-1,30
 265 450 265 450 236.5 450 c 128,-1,31
 208 450 208 450 197.5 426 c 128,-1,32
 187 402 187 402 187 356 c 2,33,-1
 187 115 l 2,34,35
 187 66 187 66 198 44 c 128,-1,36
 209 22 209 22 237 22 c 128,-1,37
 265 22 265 22 287 57 c 128,-1,38
 309 92 309 92 309 137 c 2,39,-1
 309 334 l 2,28,29
360.5 569 m 128,-1,41
 333 542 333 542 303.5 542 c 128,-1,42
 274 542 274 542 232 566.5 c 128,-1,43
 190 591 190 591 173 591 c 0,44,45
 137 591 137 591 105 553 c 1,46,-1
 90 568 l 1,47,48
 155 652 155 652 213 652 c 0,49,50
 232 652 232 652 267.5 630.5 c 128,-1,51
 303 609 303 609 330 609 c 128,-1,52
 357 609 357 609 384 628 c 1,53,-1
 397 615 l 1,54,40
 388 596 388 596 360.5 569 c 128,-1,41
EndSplineSet
EndChar

StartChar: adieresis
Encoding: 228 228 151
Width: 524
GlyphClass: 2
Flags: W
LayerCount: 2
Fore
SplineSet
468 40 m 0,0,1
 488 40 488 40 500 72 c 1,2,-1
 519 69 l 1,3,4
 519 59 519 59 511.5 43.5 c 128,-1,5
 504 28 504 28 494 18 c 0,6,7
 468 -10 468 -10 416 -10 c 0,8,9
 323 -10 323 -10 311 64 c 1,10,11
 303 37 303 37 277 13.5 c 128,-1,12
 251 -10 251 -10 211 -10 c 0,13,14
 133 -10 133 -10 91.5 32.5 c 128,-1,15
 50 75 50 75 50 149 c 2,16,-1
 50 322 l 2,17,18
 50 394 50 394 94.5 437 c 128,-1,19
 139 480 139 480 211 480 c 0,20,21
 250 480 250 480 276.5 459 c 128,-1,22
 303 438 303 438 309 414 c 1,23,-1
 309 470 l 1,24,-1
 445 470 l 1,25,-1
 445 74 l 2,26,27
 445 40 445 40 468 40 c 0,0,1
309 334 m 2,28,29
 309 376 309 376 287 413 c 128,-1,30
 265 450 265 450 236.5 450 c 128,-1,31
 208 450 208 450 197.5 426 c 128,-1,32
 187 402 187 402 187 356 c 2,33,-1
 187 115 l 2,34,35
 187 66 187 66 198 44 c 128,-1,36
 209 22 209 22 237 22 c 128,-1,37
 265 22 265 22 287 57 c 128,-1,38
 309 92 309 92 309 137 c 2,39,-1
 309 334 l 2,28,29
372 661 m 128,-1,41
 388 646 388 646 388 622.5 c 128,-1,42
 388 599 388 599 372 583.5 c 128,-1,43
 356 568 356 568 329 568 c 128,-1,44
 302 568 302 568 286 583.5 c 128,-1,45
 270 599 270 599 270 622.5 c 128,-1,46
 270 646 270 646 286 661 c 128,-1,47
 302 676 302 676 329 676 c 128,-1,40
 356 676 356 676 372 661 c 128,-1,41
190 661 m 128,-1,49
 206 646 206 646 206 622.5 c 128,-1,50
 206 599 206 599 190 583.5 c 128,-1,51
 174 568 174 568 147 568 c 128,-1,52
 120 568 120 568 104 583.5 c 128,-1,53
 88 599 88 599 88 622.5 c 128,-1,54
 88 646 88 646 104 661 c 128,-1,55
 120 676 120 676 147 676 c 128,-1,48
 174 676 174 676 190 661 c 128,-1,49
EndSplineSet
EndChar

StartChar: aring
Encoding: 229 229 152
Width: 524
GlyphClass: 2
Flags: W
LayerCount: 2
Fore
SplineSet
468 40 m 0,0,1
 488 40 488 40 500 72 c 1,2,-1
 519 69 l 1,3,4
 519 59 519 59 511.5 43.5 c 128,-1,5
 504 28 504 28 494 18 c 0,6,7
 468 -10 468 -10 416 -10 c 0,8,9
 323 -10 323 -10 311 64 c 1,10,11
 303 37 303 37 277 13.5 c 128,-1,12
 251 -10 251 -10 211 -10 c 0,13,14
 133 -10 133 -10 91.5 32.5 c 128,-1,15
 50 75 50 75 50 149 c 2,16,-1
 50 322 l 2,17,18
 50 394 50 394 94.5 437 c 128,-1,19
 139 480 139 480 211 480 c 0,20,21
 250 480 250 480 276.5 459 c 128,-1,22
 303 438 303 438 309 414 c 1,23,-1
 309 470 l 1,24,-1
 445 470 l 1,25,-1
 445 74 l 2,26,27
 445 40 445 40 468 40 c 0,0,1
309 334 m 2,28,29
 309 376 309 376 287 413 c 128,-1,30
 265 450 265 450 236.5 450 c 128,-1,31
 208 450 208 450 197.5 426 c 128,-1,32
 187 402 187 402 187 356 c 2,33,-1
 187 115 l 2,34,35
 187 66 187 66 198 44 c 128,-1,36
 209 22 209 22 237 22 c 128,-1,37
 265 22 265 22 287 57 c 128,-1,38
 309 92 309 92 309 137 c 2,39,-1
 309 334 l 2,28,29
285.5 671 m 128,-1,41
 308 652 308 652 308 622.5 c 128,-1,42
 308 593 308 593 285.5 574.5 c 128,-1,43
 263 556 263 556 230 556 c 128,-1,44
 197 556 197 556 174.5 575 c 128,-1,45
 152 594 152 594 152 623 c 128,-1,46
 152 652 152 652 174.5 671 c 128,-1,47
 197 690 197 690 230 690 c 128,-1,40
 263 690 263 690 285.5 671 c 128,-1,41
259 596.5 m 128,-1,49
 271 607 271 607 271 622.5 c 128,-1,50
 271 638 271 638 259 648.5 c 128,-1,51
 247 659 247 659 230 659 c 128,-1,52
 213 659 213 659 201.5 648.5 c 128,-1,53
 190 638 190 638 190 622.5 c 128,-1,54
 190 607 190 607 201.5 596.5 c 128,-1,55
 213 586 213 586 230 586 c 128,-1,48
 247 586 247 586 259 596.5 c 128,-1,49
EndSplineSet
EndChar

StartChar: ccedilla
Encoding: 231 231 153
Width: 404
GlyphClass: 2
Flags: W
LayerCount: 2
Fore
SplineSet
369 122 m 1,0,1
 369 90 369 90 347.5 53 c 128,-1,2
 326 16 326 16 287 0 c 1,3,4
 287 -68 287 -68 171 -160 c 1,5,-1
 140 -136 l 1,6,7
 152 -121 152 -121 159 -91.5 c 128,-1,8
 166 -62 166 -62 167 -19 c 1,9,-1
 167 0 l 1,10,11
 113 17 113 17 81.5 58.5 c 128,-1,12
 50 100 50 100 50 157 c 2,13,-1
 50 313 l 2,14,15
 50 387 50 387 103 433.5 c 128,-1,16
 156 480 156 480 236 480 c 0,17,18
 267 480 267 480 292 468.5 c 128,-1,19
 317 457 317 457 331 441 c 128,-1,20
 345 425 345 425 354 406 c 0,21,22
 369 373 369 373 369 349 c 1,23,-1
 339 349 l 1,24,25
 339 381 339 381 314.5 415.5 c 128,-1,26
 290 450 290 450 250 450 c 0,27,28
 187 450 187 450 187 352 c 2,29,-1
 187 118 l 2,30,31
 187 73 187 73 204 46.5 c 128,-1,32
 221 20 221 20 256 20 c 128,-1,33
 291 20 291 20 315 58.5 c 128,-1,34
 339 97 339 97 339 122 c 1,35,-1
 369 122 l 1,0,1
EndSplineSet
EndChar

StartChar: egrave
Encoding: 232 232 154
Width: 461
GlyphClass: 2
Flags: W
LayerCount: 2
Fore
SplineSet
416 232 m 1,0,-1
 186 232 l 1,1,-1
 186 118 l 2,2,3
 186 20 186 20 266 20 c 0,4,5
 313 20 313 20 345 55.5 c 128,-1,6
 377 91 377 91 377 115 c 1,7,-1
 401 115 l 1,8,9
 401 80 401 80 361.5 35 c 128,-1,10
 322 -10 322 -10 236 -10 c 128,-1,11
 150 -10 150 -10 100 38 c 128,-1,12
 50 86 50 86 50 157 c 2,13,-1
 50 314 l 2,14,15
 50 385 50 385 103 432.5 c 128,-1,16
 156 480 156 480 243 480 c 128,-1,17
 330 480 330 480 373 430.5 c 128,-1,18
 416 381 416 381 416 311 c 2,19,-1
 416 232 l 1,0,-1
309 262 m 1,20,-1
 309 353 l 2,21,22
 309 399 309 399 293.5 424.5 c 128,-1,23
 278 450 278 450 247 450 c 128,-1,24
 216 450 216 450 201 421.5 c 128,-1,25
 186 393 186 393 186 353 c 2,26,-1
 186 262 l 1,27,-1
 309 262 l 1,20,-1
123 653 m 1,28,29
 109 667 109 667 109 684.5 c 128,-1,30
 109 702 109 702 125.5 718 c 128,-1,31
 142 734 142 734 164 734 c 128,-1,32
 186 734 186 734 197 714 c 2,33,-1
 290 543 l 1,34,-1
 269 526 l 1,35,-1
 123 653 l 1,28,29
EndSplineSet
EndChar

StartChar: eacute
Encoding: 233 233 155
Width: 461
GlyphClass: 2
Flags: W
LayerCount: 2
Fore
SplineSet
416 232 m 1,0,-1
 186 232 l 1,1,-1
 186 118 l 2,2,3
 186 20 186 20 266 20 c 0,4,5
 313 20 313 20 345 55.5 c 128,-1,6
 377 91 377 91 377 115 c 1,7,-1
 401 115 l 1,8,9
 401 80 401 80 361.5 35 c 128,-1,10
 322 -10 322 -10 236 -10 c 128,-1,11
 150 -10 150 -10 100 38 c 128,-1,12
 50 86 50 86 50 157 c 2,13,-1
 50 314 l 2,14,15
 50 385 50 385 103 432.5 c 128,-1,16
 156 480 156 480 243 480 c 128,-1,17
 330 480 330 480 373 430.5 c 128,-1,18
 416 381 416 381 416 311 c 2,19,-1
 416 232 l 1,0,-1
309 262 m 1,20,-1
 309 353 l 2,21,22
 309 399 309 399 293.5 424.5 c 128,-1,23
 278 450 278 450 247 450 c 128,-1,24
 216 450 216 450 201 421.5 c 128,-1,25
 186 393 186 393 186 353 c 2,26,-1
 186 262 l 1,27,-1
 309 262 l 1,20,-1
369.5 718 m 128,-1,29
 386 702 386 702 386 683 c 128,-1,30
 386 664 386 664 372 653 c 2,31,-1
 226 526 l 1,32,-1
 205 543 l 1,33,-1
 298 714 l 2,34,35
 309 734 309 734 331 734 c 128,-1,28
 353 734 353 734 369.5 718 c 128,-1,29
EndSplineSet
EndChar

StartChar: ecircumflex
Encoding: 234 234 156
Width: 461
GlyphClass: 2
Flags: W
LayerCount: 2
Fore
SplineSet
416 232 m 1,0,-1
 186 232 l 1,1,-1
 186 118 l 2,2,3
 186 20 186 20 266 20 c 0,4,5
 313 20 313 20 345 55.5 c 128,-1,6
 377 91 377 91 377 115 c 1,7,-1
 401 115 l 1,8,9
 401 80 401 80 361.5 35 c 128,-1,10
 322 -10 322 -10 236 -10 c 128,-1,11
 150 -10 150 -10 100 38 c 128,-1,12
 50 86 50 86 50 157 c 2,13,-1
 50 314 l 2,14,15
 50 385 50 385 103 432.5 c 128,-1,16
 156 480 156 480 243 480 c 128,-1,17
 330 480 330 480 373 430.5 c 128,-1,18
 416 381 416 381 416 311 c 2,19,-1
 416 232 l 1,0,-1
309 262 m 1,20,-1
 309 353 l 2,21,22
 309 399 309 399 293.5 424.5 c 128,-1,23
 278 450 278 450 247 450 c 128,-1,24
 216 450 216 450 201 421.5 c 128,-1,25
 186 393 186 393 186 353 c 2,26,-1
 186 262 l 1,27,-1
 309 262 l 1,20,-1
181 660 m 1,28,29
 205 700 205 700 243.5 700 c 128,-1,30
 282 700 282 700 303 660 c 2,31,-1
 360 551 l 1,32,-1
 332 533 l 1,33,-1
 242 630 l 1,34,-1
 151 534 l 1,35,-1
 124 551 l 1,36,-1
 181 660 l 1,28,29
EndSplineSet
EndChar

StartChar: edieresis
Encoding: 235 235 157
Width: 461
GlyphClass: 2
Flags: W
LayerCount: 2
Fore
SplineSet
416 232 m 1,0,-1
 186 232 l 1,1,-1
 186 118 l 2,2,3
 186 20 186 20 266 20 c 0,4,5
 313 20 313 20 345 55.5 c 128,-1,6
 377 91 377 91 377 115 c 1,7,-1
 401 115 l 1,8,9
 401 80 401 80 361.5 35 c 128,-1,10
 322 -10 322 -10 236 -10 c 128,-1,11
 150 -10 150 -10 100 38 c 128,-1,12
 50 86 50 86 50 157 c 2,13,-1
 50 314 l 2,14,15
 50 385 50 385 103 432.5 c 128,-1,16
 156 480 156 480 243 480 c 128,-1,17
 330 480 330 480 373 430.5 c 128,-1,18
 416 381 416 381 416 311 c 2,19,-1
 416 232 l 1,0,-1
309 262 m 1,20,-1
 309 353 l 2,21,22
 309 399 309 399 293.5 424.5 c 128,-1,23
 278 450 278 450 247 450 c 128,-1,24
 216 450 216 450 201 421.5 c 128,-1,25
 186 393 186 393 186 353 c 2,26,-1
 186 262 l 1,27,-1
 309 262 l 1,20,-1
374 661 m 128,-1,29
 390 646 390 646 390 622.5 c 128,-1,30
 390 599 390 599 374 583.5 c 128,-1,31
 358 568 358 568 331 568 c 128,-1,32
 304 568 304 568 288 583.5 c 128,-1,33
 272 599 272 599 272 622.5 c 128,-1,34
 272 646 272 646 288 661 c 128,-1,35
 304 676 304 676 331 676 c 128,-1,28
 358 676 358 676 374 661 c 128,-1,29
192 661 m 128,-1,37
 208 646 208 646 208 622.5 c 128,-1,38
 208 599 208 599 192 583.5 c 128,-1,39
 176 568 176 568 149 568 c 128,-1,40
 122 568 122 568 106 583.5 c 128,-1,41
 90 599 90 599 90 622.5 c 128,-1,42
 90 646 90 646 106 661 c 128,-1,43
 122 676 122 676 149 676 c 128,-1,36
 176 676 176 676 192 661 c 128,-1,37
EndSplineSet
EndChar

StartChar: igrave
Encoding: 236 236 158
Width: 275
GlyphClass: 2
Flags: W
LayerCount: 2
Fore
SplineSet
219 40 m 0,0,1
 239 40 239 40 251 72 c 1,2,-1
 270 69 l 1,3,4
 270 59 270 59 262.5 43.5 c 128,-1,5
 255 28 255 28 245 18 c 0,6,7
 219 -10 219 -10 167 -10 c 0,8,9
 60 -10 60 -10 60 89 c 2,10,-1
 60 470 l 1,11,-1
 196 470 l 1,12,-1
 196 74 l 2,13,14
 196 40 196 40 219 40 c 0,0,1
24 653 m 1,15,16
 10 667 10 667 10 684.5 c 128,-1,17
 10 702 10 702 26.5 718 c 128,-1,18
 43 734 43 734 65 734 c 128,-1,19
 87 734 87 734 98 714 c 2,20,-1
 191 543 l 1,21,-1
 170 526 l 1,22,-1
 24 653 l 1,15,16
EndSplineSet
EndChar

StartChar: iacute
Encoding: 237 237 159
Width: 275
GlyphClass: 2
Flags: W
LayerCount: 2
Fore
SplineSet
219 40 m 0,0,1
 239 40 239 40 251 72 c 1,2,-1
 270 69 l 1,3,4
 270 59 270 59 262.5 43.5 c 128,-1,5
 255 28 255 28 245 18 c 0,6,7
 219 -10 219 -10 167 -10 c 0,8,9
 60 -10 60 -10 60 89 c 2,10,-1
 60 470 l 1,11,-1
 196 470 l 1,12,-1
 196 74 l 2,13,14
 196 40 196 40 219 40 c 0,0,1
234.5 718 m 128,-1,16
 251 702 251 702 251 683 c 128,-1,17
 251 664 251 664 237 653 c 2,18,-1
 91 526 l 1,19,-1
 70 543 l 1,20,-1
 163 714 l 2,21,22
 174 734 174 734 196 734 c 128,-1,15
 218 734 218 734 234.5 718 c 128,-1,16
EndSplineSet
EndChar

StartChar: icircumflex
Encoding: 238 238 160
Width: 275
GlyphClass: 2
Flags: W
LayerCount: 2
Fore
SplineSet
219 40 m 0,0,1
 239 40 239 40 251 72 c 1,2,-1
 270 69 l 1,3,4
 270 59 270 59 262.5 43.5 c 128,-1,5
 255 28 255 28 245 18 c 0,6,7
 219 -10 219 -10 167 -10 c 0,8,9
 60 -10 60 -10 60 89 c 2,10,-1
 60 470 l 1,11,-1
 196 470 l 1,12,-1
 196 74 l 2,13,14
 196 40 196 40 219 40 c 0,0,1
72 660 m 1,15,16
 96 700 96 700 134.5 700 c 128,-1,17
 173 700 173 700 194 660 c 2,18,-1
 251 551 l 1,19,-1
 223 533 l 1,20,-1
 133 630 l 1,21,-1
 42 534 l 1,22,-1
 15 551 l 1,23,-1
 72 660 l 1,15,16
EndSplineSet
EndChar

StartChar: idieresis
Encoding: 239 239 161
Width: 275
GlyphClass: 2
Flags: W
LayerCount: 2
Fore
SplineSet
219 40 m 0,0,1
 239 40 239 40 251 72 c 1,2,-1
 270 69 l 1,3,4
 270 59 270 59 262.5 43.5 c 128,-1,5
 255 28 255 28 245 18 c 0,6,7
 219 -10 219 -10 167 -10 c 0,8,9
 60 -10 60 -10 60 89 c 2,10,-1
 60 470 l 1,11,-1
 196 470 l 1,12,-1
 196 74 l 2,13,14
 196 40 196 40 219 40 c 0,0,1
263 661 m 128,-1,16
 279 646 279 646 279 622.5 c 128,-1,17
 279 599 279 599 263 583.5 c 128,-1,18
 247 568 247 568 220 568 c 128,-1,19
 193 568 193 568 177 583.5 c 128,-1,20
 161 599 161 599 161 622.5 c 128,-1,21
 161 646 161 646 177 661 c 128,-1,22
 193 676 193 676 220 676 c 128,-1,15
 247 676 247 676 263 661 c 128,-1,16
81 661 m 128,-1,24
 97 646 97 646 97 622.5 c 128,-1,25
 97 599 97 599 81 583.5 c 128,-1,26
 65 568 65 568 38 568 c 128,-1,27
 11 568 11 568 -5 583.5 c 128,-1,28
 -21 599 -21 599 -21 622.5 c 128,-1,29
 -21 646 -21 646 -5 661 c 128,-1,30
 11 676 11 676 38 676 c 128,-1,23
 65 676 65 676 81 661 c 128,-1,24
EndSplineSet
EndChar

StartChar: eth
Encoding: 240 240 162
Width: 509
GlyphClass: 2
Flags: W
LayerCount: 2
Fore
SplineSet
169 560 m 1,0,-1
 169 625 l 1,1,-1
 309 625 l 1,2,-1
 309 690 l 1,3,-1
 445 690 l 1,4,-1
 445 625 l 1,5,-1
 509 625 l 1,6,-1
 509 560 l 1,7,-1
 445 560 l 1,8,-1
 445 0 l 1,9,-1
 309 0 l 1,10,-1
 309 58 l 1,11,12
 299 32 299 32 273 11 c 128,-1,13
 247 -10 247 -10 211 -10 c 0,14,15
 133 -10 133 -10 91.5 32.5 c 128,-1,16
 50 75 50 75 50 149 c 2,17,-1
 50 322 l 2,18,19
 50 394 50 394 94.5 437 c 128,-1,20
 139 480 139 480 211 480 c 0,21,22
 250 480 250 480 276.5 459 c 128,-1,23
 303 438 303 438 309 414 c 1,24,-1
 309 560 l 1,25,-1
 169 560 l 1,0,-1
309 334 m 2,26,27
 309 376 309 376 287 413 c 128,-1,28
 265 450 265 450 236.5 450 c 128,-1,29
 208 450 208 450 197.5 426 c 128,-1,30
 187 402 187 402 187 356 c 2,31,-1
 187 115 l 2,32,33
 187 66 187 66 198 44 c 128,-1,34
 209 22 209 22 237 22 c 128,-1,35
 265 22 265 22 287 57 c 128,-1,36
 309 92 309 92 309 137 c 2,37,-1
 309 334 l 2,26,27
EndSplineSet
EndChar

StartChar: ntilde
Encoding: 241 241 163
Width: 534
GlyphClass: 2
Flags: W
LayerCount: 2
Fore
SplineSet
478 40 m 0,0,1
 498 40 498 40 510 72 c 1,2,-1
 529 69 l 1,3,4
 529 59 529 59 521.5 43.5 c 128,-1,5
 514 28 514 28 504 18 c 0,6,7
 478 -10 478 -10 426 -10 c 0,8,9
 319 -10 319 -10 319 89 c 2,10,-1
 319 366 l 2,11,12
 319 406 319 406 303.5 425.5 c 128,-1,13
 288 445 288 445 261.5 445 c 128,-1,14
 235 445 235 445 215.5 411.5 c 128,-1,15
 196 378 196 378 196 334 c 2,16,-1
 196 0 l 1,17,-1
 60 0 l 1,18,-1
 60 470 l 1,19,-1
 196 470 l 1,20,-1
 196 412 l 1,21,22
 223 480 223 480 297 480 c 128,-1,23
 371 480 371 480 413 437.5 c 128,-1,24
 455 395 455 395 455 322 c 2,25,-1
 455 74 l 2,26,27
 455 40 455 40 478 40 c 0,0,1
397.5 569 m 128,-1,29
 370 542 370 542 341 542 c 128,-1,30
 312 542 312 542 270 566.5 c 128,-1,31
 228 591 228 591 210 591 c 0,32,33
 174 591 174 591 142 553 c 1,34,-1
 127 568 l 1,35,36
 192 652 192 652 250 652 c 0,37,38
 269 652 269 652 304.5 630.5 c 128,-1,39
 340 609 340 609 367 609 c 128,-1,40
 394 609 394 609 421 628 c 1,41,-1
 434 615 l 1,42,28
 425 596 425 596 397.5 569 c 128,-1,29
EndSplineSet
EndChar

StartChar: ograve
Encoding: 242 242 164
Width: 496
GlyphClass: 2
Flags: W
LayerCount: 2
Fore
SplineSet
446 157 m 2,0,1
 446 86 446 86 391 38 c 128,-1,2
 336 -10 336 -10 248 -10 c 128,-1,3
 160 -10 160 -10 105 38 c 128,-1,4
 50 86 50 86 50 157 c 2,5,-1
 50 314 l 2,6,7
 50 385 50 385 105 432.5 c 128,-1,8
 160 480 160 480 248 480 c 128,-1,9
 336 480 336 480 391 432.5 c 128,-1,10
 446 385 446 385 446 314 c 2,11,-1
 446 157 l 2,0,1
309 118 m 2,12,-1
 309 353 l 2,13,14
 309 450 309 450 247.5 450 c 128,-1,15
 186 450 186 450 186 353 c 2,16,-1
 186 118 l 2,17,18
 186 20 186 20 247.5 20 c 128,-1,19
 309 20 309 20 309 118 c 2,12,-1
123 653 m 1,20,21
 109 667 109 667 109 684.5 c 128,-1,22
 109 702 109 702 125.5 718 c 128,-1,23
 142 734 142 734 164 734 c 128,-1,24
 186 734 186 734 197 714 c 2,25,-1
 290 543 l 1,26,-1
 269 526 l 1,27,-1
 123 653 l 1,20,21
EndSplineSet
EndChar

StartChar: oacute
Encoding: 243 243 165
Width: 496
GlyphClass: 2
Flags: W
LayerCount: 2
Fore
SplineSet
446 157 m 2,0,1
 446 86 446 86 391 38 c 128,-1,2
 336 -10 336 -10 248 -10 c 128,-1,3
 160 -10 160 -10 105 38 c 128,-1,4
 50 86 50 86 50 157 c 2,5,-1
 50 314 l 2,6,7
 50 385 50 385 105 432.5 c 128,-1,8
 160 480 160 480 248 480 c 128,-1,9
 336 480 336 480 391 432.5 c 128,-1,10
 446 385 446 385 446 314 c 2,11,-1
 446 157 l 2,0,1
309 118 m 2,12,-1
 309 353 l 2,13,14
 309 450 309 450 247.5 450 c 128,-1,15
 186 450 186 450 186 353 c 2,16,-1
 186 118 l 2,17,18
 186 20 186 20 247.5 20 c 128,-1,19
 309 20 309 20 309 118 c 2,12,-1
369.5 718 m 128,-1,21
 386 702 386 702 386 683 c 128,-1,22
 386 664 386 664 372 653 c 2,23,-1
 226 526 l 1,24,-1
 205 543 l 1,25,-1
 298 714 l 2,26,27
 309 734 309 734 331 734 c 128,-1,20
 353 734 353 734 369.5 718 c 128,-1,21
EndSplineSet
EndChar

StartChar: ocircumflex
Encoding: 244 244 166
Width: 496
GlyphClass: 2
Flags: W
LayerCount: 2
Fore
SplineSet
446 157 m 2,0,1
 446 86 446 86 391 38 c 128,-1,2
 336 -10 336 -10 248 -10 c 128,-1,3
 160 -10 160 -10 105 38 c 128,-1,4
 50 86 50 86 50 157 c 2,5,-1
 50 314 l 2,6,7
 50 385 50 385 105 432.5 c 128,-1,8
 160 480 160 480 248 480 c 128,-1,9
 336 480 336 480 391 432.5 c 128,-1,10
 446 385 446 385 446 314 c 2,11,-1
 446 157 l 2,0,1
309 118 m 2,12,-1
 309 353 l 2,13,14
 309 450 309 450 247.5 450 c 128,-1,15
 186 450 186 450 186 353 c 2,16,-1
 186 118 l 2,17,18
 186 20 186 20 247.5 20 c 128,-1,19
 309 20 309 20 309 118 c 2,12,-1
184 660 m 1,20,21
 208 700 208 700 246.5 700 c 128,-1,22
 285 700 285 700 306 660 c 2,23,-1
 363 551 l 1,24,-1
 335 533 l 1,25,-1
 245 630 l 1,26,-1
 154 534 l 1,27,-1
 127 551 l 1,28,-1
 184 660 l 1,20,21
EndSplineSet
EndChar

StartChar: otilde
Encoding: 245 245 167
Width: 496
GlyphClass: 2
Flags: W
LayerCount: 2
Fore
SplineSet
446 157 m 2,0,1
 446 86 446 86 391 38 c 128,-1,2
 336 -10 336 -10 248 -10 c 128,-1,3
 160 -10 160 -10 105 38 c 128,-1,4
 50 86 50 86 50 157 c 2,5,-1
 50 314 l 2,6,7
 50 385 50 385 105 432.5 c 128,-1,8
 160 480 160 480 248 480 c 128,-1,9
 336 480 336 480 391 432.5 c 128,-1,10
 446 385 446 385 446 314 c 2,11,-1
 446 157 l 2,0,1
309 118 m 2,12,-1
 309 353 l 2,13,14
 309 450 309 450 247.5 450 c 128,-1,15
 186 450 186 450 186 353 c 2,16,-1
 186 118 l 2,17,18
 186 20 186 20 247.5 20 c 128,-1,19
 309 20 309 20 309 118 c 2,12,-1
370.5 569 m 128,-1,21
 343 542 343 542 313.5 542 c 128,-1,22
 284 542 284 542 242 566.5 c 128,-1,23
 200 591 200 591 183 591 c 0,24,25
 147 591 147 591 115 553 c 1,26,-1
 100 568 l 1,27,28
 165 652 165 652 223 652 c 0,29,30
 242 652 242 652 277.5 630.5 c 128,-1,31
 313 609 313 609 340 609 c 128,-1,32
 367 609 367 609 394 628 c 1,33,-1
 407 615 l 1,34,20
 398 596 398 596 370.5 569 c 128,-1,21
EndSplineSet
EndChar

StartChar: odieresis
Encoding: 246 246 168
Width: 496
GlyphClass: 2
Flags: W
LayerCount: 2
Fore
SplineSet
446 157 m 2,0,1
 446 86 446 86 391 38 c 128,-1,2
 336 -10 336 -10 248 -10 c 128,-1,3
 160 -10 160 -10 105 38 c 128,-1,4
 50 86 50 86 50 157 c 2,5,-1
 50 314 l 2,6,7
 50 385 50 385 105 432.5 c 128,-1,8
 160 480 160 480 248 480 c 128,-1,9
 336 480 336 480 391 432.5 c 128,-1,10
 446 385 446 385 446 314 c 2,11,-1
 446 157 l 2,0,1
309 118 m 2,12,-1
 309 353 l 2,13,14
 309 450 309 450 247.5 450 c 128,-1,15
 186 450 186 450 186 353 c 2,16,-1
 186 118 l 2,17,18
 186 20 186 20 247.5 20 c 128,-1,19
 309 20 309 20 309 118 c 2,12,-1
384 661 m 128,-1,21
 400 646 400 646 400 622.5 c 128,-1,22
 400 599 400 599 384 583.5 c 128,-1,23
 368 568 368 568 341 568 c 128,-1,24
 314 568 314 568 298 583.5 c 128,-1,25
 282 599 282 599 282 622.5 c 128,-1,26
 282 646 282 646 298 661 c 128,-1,27
 314 676 314 676 341 676 c 128,-1,20
 368 676 368 676 384 661 c 128,-1,21
202 661 m 128,-1,29
 218 646 218 646 218 622.5 c 128,-1,30
 218 599 218 599 202 583.5 c 128,-1,31
 186 568 186 568 159 568 c 128,-1,32
 132 568 132 568 116 583.5 c 128,-1,33
 100 599 100 599 100 622.5 c 128,-1,34
 100 646 100 646 116 661 c 128,-1,35
 132 676 132 676 159 676 c 128,-1,28
 186 676 186 676 202 661 c 128,-1,29
EndSplineSet
EndChar

StartChar: oslash
Encoding: 248 248 169
Width: 496
GlyphClass: 2
Flags: W
LayerCount: 2
Fore
SplineSet
446 314 m 2,0,-1
 446 157 l 2,1,2
 446 86 446 86 391 38 c 128,-1,3
 336 -10 336 -10 248 -10 c 2,4,-1
 238 -10 l 1,5,-1
 233 -59 l 1,6,-1
 203 -56 l 1,7,-1
 208 -7 l 1,8,9
 136 3 136 3 93 49 c 128,-1,10
 50 95 50 95 50 157 c 2,11,-1
 50 314 l 2,12,13
 50 385 50 385 105 432.5 c 128,-1,14
 160 480 160 480 248 480 c 2,15,-1
 257 480 l 1,16,-1
 262 529 l 1,17,-1
 292 526 l 1,18,-1
 287 477 l 1,19,20
 359 467 359 467 402.5 421.5 c 128,-1,21
 446 376 446 376 446 314 c 2,0,-1
309 118 m 2,22,-1
 309 353 l 2,23,24
 309 414 309 414 283 437 c 1,25,-1
 241 20 l 1,26,-1
 248 20 l 2,27,28
 309 20 309 20 309 118 c 2,22,-1
186 118 m 2,29,30
 186 54 186 54 212 32 c 1,31,-1
 254 450 l 1,32,-1
 248 450 l 2,33,34
 186 450 186 450 186 353 c 2,35,-1
 186 118 l 2,29,30
EndSplineSet
EndChar

StartChar: ugrave
Encoding: 249 249 170
Width: 534
GlyphClass: 2
Flags: W
LayerCount: 2
Fore
SplineSet
510 72 m 1,0,-1
 529 69 l 1,1,2
 526 42 526 42 504 18 c 1,3,4
 480 -10 480 -10 426 -10 c 0,5,6
 333 -10 333 -10 321 63 c 1,7,-1
 319 58 l 2,8,9
 292 -10 292 -10 218 -10 c 128,-1,10
 144 -10 144 -10 102 32.5 c 128,-1,11
 60 75 60 75 60 148 c 2,12,-1
 60 470 l 1,13,-1
 196 470 l 1,14,-1
 196 104 l 2,15,16
 196 64 196 64 211.5 44.5 c 128,-1,17
 227 25 227 25 253.5 25 c 128,-1,18
 280 25 280 25 299.5 58.5 c 128,-1,19
 319 92 319 92 319 136 c 2,20,-1
 319 470 l 1,21,-1
 455 470 l 1,22,-1
 455 74 l 2,23,24
 455 40 455 40 477.5 40 c 128,-1,25
 500 40 500 40 510 72 c 1,0,-1
114 653 m 1,26,27
 100 667 100 667 100 684.5 c 128,-1,28
 100 702 100 702 116.5 718 c 128,-1,29
 133 734 133 734 155 734 c 128,-1,30
 177 734 177 734 188 714 c 2,31,-1
 281 543 l 1,32,-1
 260 526 l 1,33,-1
 114 653 l 1,26,27
EndSplineSet
EndChar

StartChar: uacute
Encoding: 250 250 171
Width: 534
GlyphClass: 2
Flags: W
LayerCount: 2
Fore
SplineSet
478 40 m 0,0,1
 498 40 498 40 510 72 c 1,2,-1
 529 69 l 1,3,4
 529 59 529 59 521.5 43.5 c 128,-1,5
 514 28 514 28 504 18 c 0,6,7
 478 -10 478 -10 426 -10 c 0,8,9
 333 -10 333 -10 321 63 c 1,10,-1
 319 58 l 2,11,12
 292 -10 292 -10 218 -10 c 128,-1,13
 144 -10 144 -10 102 32.5 c 128,-1,14
 60 75 60 75 60 148 c 2,15,-1
 60 470 l 1,16,-1
 196 470 l 1,17,-1
 196 104 l 2,18,19
 196 64 196 64 211.5 44.5 c 128,-1,20
 227 25 227 25 253.5 25 c 128,-1,21
 280 25 280 25 299.5 58.5 c 128,-1,22
 319 92 319 92 319 136 c 2,23,-1
 319 470 l 1,24,-1
 455 470 l 1,25,-1
 455 74 l 2,26,27
 455 40 455 40 478 40 c 0,0,1
385.5 718 m 128,-1,29
 402 702 402 702 402 683 c 128,-1,30
 402 664 402 664 388 653 c 2,31,-1
 242 526 l 1,32,-1
 221 543 l 1,33,-1
 314 714 l 2,34,35
 325 734 325 734 347 734 c 128,-1,28
 369 734 369 734 385.5 718 c 128,-1,29
EndSplineSet
EndChar

StartChar: ucircumflex
Encoding: 251 251 172
Width: 534
GlyphClass: 2
Flags: W
LayerCount: 2
Fore
SplineSet
510 72 m 1,0,-1
 529 69 l 1,1,2
 526 42 526 42 504 18 c 1,3,4
 480 -10 480 -10 426 -10 c 0,5,6
 333 -10 333 -10 321 63 c 1,7,-1
 319 58 l 2,8,9
 292 -10 292 -10 218 -10 c 128,-1,10
 144 -10 144 -10 102 32.5 c 128,-1,11
 60 75 60 75 60 148 c 2,12,-1
 60 470 l 1,13,-1
 196 470 l 1,14,-1
 196 104 l 2,15,16
 196 64 196 64 211.5 44.5 c 128,-1,17
 227 25 227 25 253.5 25 c 128,-1,18
 280 25 280 25 299.5 58.5 c 128,-1,19
 319 92 319 92 319 136 c 2,20,-1
 319 470 l 1,21,-1
 455 470 l 1,22,-1
 455 74 l 2,23,24
 455 40 455 40 477.5 40 c 128,-1,25
 500 40 500 40 510 72 c 1,0,-1
205 660 m 1,26,27
 229 700 229 700 267.5 700 c 128,-1,28
 306 700 306 700 327 660 c 2,29,-1
 384 551 l 1,30,-1
 356 533 l 1,31,-1
 266 630 l 1,32,-1
 175 534 l 1,33,-1
 148 551 l 1,34,-1
 205 660 l 1,26,27
EndSplineSet
EndChar

StartChar: udieresis
Encoding: 252 252 173
Width: 534
GlyphClass: 2
Flags: W
LayerCount: 2
Fore
SplineSet
510 72 m 1,0,-1
 529 69 l 1,1,2
 526 42 526 42 504 18 c 1,3,4
 480 -10 480 -10 426 -10 c 0,5,6
 333 -10 333 -10 321 63 c 1,7,-1
 319 58 l 2,8,9
 292 -10 292 -10 218 -10 c 128,-1,10
 144 -10 144 -10 102 32.5 c 128,-1,11
 60 75 60 75 60 148 c 2,12,-1
 60 470 l 1,13,-1
 196 470 l 1,14,-1
 196 104 l 2,15,16
 196 64 196 64 211.5 44.5 c 128,-1,17
 227 25 227 25 253.5 25 c 128,-1,18
 280 25 280 25 299.5 58.5 c 128,-1,19
 319 92 319 92 319 136 c 2,20,-1
 319 470 l 1,21,-1
 455 470 l 1,22,-1
 455 74 l 2,23,24
 455 40 455 40 477.5 40 c 128,-1,25
 500 40 500 40 510 72 c 1,0,-1
401 661 m 128,-1,27
 417 646 417 646 417 622.5 c 128,-1,28
 417 599 417 599 401 583.5 c 128,-1,29
 385 568 385 568 358 568 c 128,-1,30
 331 568 331 568 315 583.5 c 128,-1,31
 299 599 299 599 299 622.5 c 128,-1,32
 299 646 299 646 315 661 c 128,-1,33
 331 676 331 676 358 676 c 128,-1,26
 385 676 385 676 401 661 c 128,-1,27
219 661 m 128,-1,35
 235 646 235 646 235 622.5 c 128,-1,36
 235 599 235 599 219 583.5 c 128,-1,37
 203 568 203 568 176 568 c 128,-1,38
 149 568 149 568 133 583.5 c 128,-1,39
 117 599 117 599 117 622.5 c 128,-1,40
 117 646 117 646 133 661 c 128,-1,41
 149 676 149 676 176 676 c 128,-1,34
 203 676 203 676 219 661 c 128,-1,35
EndSplineSet
EndChar

StartChar: yacute
Encoding: 253 253 174
Width: 471
GlyphClass: 2
Flags: W
LayerCount: 2
Fore
SplineSet
446 424 m 2,0,1
 446 373 446 373 407 333.5 c 128,-1,2
 368 294 368 294 303 277 c 1,3,-1
 303 0 l 1,4,-1
 167 0 l 1,5,-1
 167 277 l 1,6,7
 103 294 103 294 64 333.5 c 128,-1,8
 25 373 25 373 25 424 c 2,9,-1
 25 470 l 1,10,-1
 154 470 l 1,11,-1
 154 388 l 2,12,13
 154 348 154 348 176.5 321.5 c 128,-1,14
 199 295 199 295 235 295 c 128,-1,15
 271 295 271 295 294 322 c 128,-1,16
 317 349 317 349 317 388 c 2,17,-1
 317 470 l 1,18,-1
 446 470 l 1,19,-1
 446 424 l 2,0,1
367.5 718 m 128,-1,21
 384 702 384 702 384 683 c 128,-1,22
 384 664 384 664 370 653 c 2,23,-1
 224 526 l 1,24,-1
 203 543 l 1,25,-1
 296 714 l 2,26,27
 307 734 307 734 329 734 c 128,-1,20
 351 734 351 734 367.5 718 c 128,-1,21
EndSplineSet
EndChar

StartChar: thorn
Encoding: 254 254 175
Width: 505
GlyphClass: 2
Flags: W
LayerCount: 2
Fore
SplineSet
196 -145 m 1,0,-1
 60 -145 l 1,1,-1
 60 690 l 1,2,-1
 196 690 l 1,3,-1
 196 414 l 1,4,5
 202 438 202 438 228.5 459 c 128,-1,6
 255 480 255 480 294 480 c 0,7,8
 366 480 366 480 410.5 437 c 128,-1,9
 455 394 455 394 455 322 c 2,10,-1
 455 149 l 2,11,12
 455 75 455 75 413.5 32.5 c 128,-1,13
 372 -10 372 -10 294 -10 c 0,14,15
 258 -10 258 -10 232 11 c 128,-1,16
 206 32 206 32 196 58 c 1,17,-1
 196 -145 l 1,0,-1
196 334 m 2,18,-1
 196 137 l 2,19,20
 196 92 196 92 218 57 c 128,-1,21
 240 22 240 22 268 22 c 128,-1,22
 296 22 296 22 307 44 c 128,-1,23
 318 66 318 66 318 115 c 2,24,-1
 318 356 l 2,25,26
 318 402 318 402 307.5 426 c 128,-1,27
 297 450 297 450 268.5 450 c 128,-1,28
 240 450 240 450 218 413 c 128,-1,29
 196 376 196 376 196 334 c 2,18,-1
EndSplineSet
EndChar

StartChar: ydieresis
Encoding: 255 255 176
Width: 471
GlyphClass: 2
Flags: W
LayerCount: 2
Fore
SplineSet
446 424 m 2,0,1
 446 373 446 373 407 333.5 c 128,-1,2
 368 294 368 294 303 277 c 1,3,-1
 303 0 l 1,4,-1
 167 0 l 1,5,-1
 167 277 l 1,6,7
 103 294 103 294 64 333.5 c 128,-1,8
 25 373 25 373 25 424 c 2,9,-1
 25 470 l 1,10,-1
 154 470 l 1,11,-1
 154 388 l 2,12,13
 154 348 154 348 176.5 321.5 c 128,-1,14
 199 295 199 295 235 295 c 128,-1,15
 271 295 271 295 294 322 c 128,-1,16
 317 349 317 349 317 388 c 2,17,-1
 317 470 l 1,18,-1
 446 470 l 1,19,-1
 446 424 l 2,0,1
369 661 m 128,-1,21
 385 646 385 646 385 622.5 c 128,-1,22
 385 599 385 599 369 583.5 c 128,-1,23
 353 568 353 568 326 568 c 128,-1,24
 299 568 299 568 283 583.5 c 128,-1,25
 267 599 267 599 267 622.5 c 128,-1,26
 267 646 267 646 283 661 c 128,-1,27
 299 676 299 676 326 676 c 128,-1,20
 353 676 353 676 369 661 c 128,-1,21
187 661 m 128,-1,29
 203 646 203 646 203 622.5 c 128,-1,30
 203 599 203 599 187 583.5 c 128,-1,31
 171 568 171 568 144 568 c 128,-1,32
 117 568 117 568 101 583.5 c 128,-1,33
 85 599 85 599 85 622.5 c 128,-1,34
 85 646 85 646 101 661 c 128,-1,35
 117 676 117 676 144 676 c 128,-1,28
 171 676 171 676 187 661 c 128,-1,29
EndSplineSet
EndChar

StartChar: dotlessi
Encoding: 305 305 177
Width: 275
GlyphClass: 2
Flags: W
LayerCount: 2
Fore
SplineSet
219 40 m 0,0,1
 239 40 239 40 251 72 c 1,2,-1
 270 69 l 1,3,4
 270 59 270 59 262.5 43.5 c 128,-1,5
 255 28 255 28 245 18 c 0,6,7
 219 -10 219 -10 167 -10 c 0,8,9
 60 -10 60 -10 60 89 c 2,10,-1
 60 470 l 1,11,-1
 196 470 l 1,12,-1
 196 74 l 2,13,14
 196 40 196 40 219 40 c 0,0,1
EndSplineSet
EndChar

StartChar: Lslash
Encoding: 321 321 178
Width: 417
GlyphClass: 2
Flags: W
LayerCount: 2
Fore
SplineSet
70 690 m 1,0,-1
 228 690 l 1,1,-1
 228 448 l 1,2,-1
 315 483 l 1,3,-1
 340 422 l 1,4,-1
 228 376 l 1,5,-1
 228 47 l 1,6,-1
 412 47 l 1,7,-1
 412 0 l 1,8,-1
 70 0 l 1,9,-1
 70 312 l 1,10,-1
 24 294 l 1,11,-1
 0 356 l 1,12,-1
 70 384 l 1,13,-1
 70 690 l 1,0,-1
EndSplineSet
EndChar

StartChar: lslash
Encoding: 322 322 179
Width: 291
GlyphClass: 2
Flags: W
LayerCount: 2
Fore
SplineSet
228 40 m 0,0,1
 248 40 248 40 260 72 c 1,2,-1
 279 69 l 1,3,4
 279 59 279 59 271.5 43.5 c 128,-1,5
 264 28 264 28 254 18 c 0,6,7
 228 -10 228 -10 176 -10 c 0,8,9
 69 -10 69 -10 69 89 c 2,10,-1
 69 325 l 1,11,-1
 24 307 l 1,12,-1
 0 369 l 1,13,-1
 69 397 l 1,14,-1
 69 690 l 1,15,-1
 205 690 l 1,16,-1
 205 452 l 1,17,-1
 261 475 l 1,18,-1
 286 414 l 1,19,-1
 205 381 l 1,20,-1
 205 74 l 2,21,22
 205 40 205 40 228 40 c 0,0,1
EndSplineSet
EndChar

StartChar: OE
Encoding: 338 338 180
Width: 1009
GlyphClass: 2
Flags: W
LayerCount: 2
Fore
SplineSet
969 194 m 2,0,1
 969 140 969 140 944 98.5 c 128,-1,2
 919 57 919 57 880 34 c 1,3,4
 801 -10 801 -10 720 -10 c 0,5,6
 604 -10 604 -10 529 59 c 1,7,8
 457 -10 457 -10 330 -10 c 128,-1,9
 203 -10 203 -10 131.5 63.5 c 128,-1,10
 60 137 60 137 60 260 c 2,11,-1
 60 429 l 2,12,13
 60 552 60 552 131.5 626 c 128,-1,14
 203 700 203 700 329.5 700 c 128,-1,15
 456 700 456 700 529 630 c 1,16,17
 606 700 606 700 711 700 c 128,-1,18
 816 700 816 700 892.5 646.5 c 128,-1,19
 969 593 969 593 969 499 c 2,20,-1
 969 486 l 1,21,-1
 833 486 l 1,22,-1
 833 508 l 2,23,24
 833 578 833 578 804 621.5 c 128,-1,25
 775 665 775 665 719.5 665 c 128,-1,26
 664 665 664 665 635 622 c 128,-1,27
 606 579 606 579 606 508 c 2,28,-1
 606 388 l 1,29,-1
 870 388 l 1,30,-1
 870 341 l 1,31,-1
 606 341 l 1,32,-1
 606 182 l 2,33,34
 606 111 606 111 635 68 c 128,-1,35
 664 25 664 25 719.5 25 c 128,-1,36
 775 25 775 25 804 68.5 c 128,-1,37
 833 112 833 112 833 182 c 2,38,-1
 833 204 l 1,39,-1
 969 204 l 1,40,-1
 969 194 l 2,0,1
446 182 m 2,41,-1
 446 508 l 2,42,43
 446 578 446 578 417 621.5 c 128,-1,44
 388 665 388 665 332.5 665 c 128,-1,45
 277 665 277 665 248 621.5 c 128,-1,46
 219 578 219 578 219 508 c 2,47,-1
 219 182 l 2,48,49
 219 111 219 111 248 68 c 128,-1,50
 277 25 277 25 332.5 25 c 128,-1,51
 388 25 388 25 417 68.5 c 128,-1,52
 446 112 446 112 446 182 c 2,41,-1
EndSplineSet
EndChar

StartChar: oe
Encoding: 339 339 181
Width: 721
GlyphClass: 2
Flags: W
LayerCount: 2
Fore
SplineSet
676 232 m 1,0,-1
 446 232 l 1,1,-1
 446 118 l 2,2,3
 446 20 446 20 526 20 c 0,4,5
 573 20 573 20 605 55.5 c 128,-1,6
 637 91 637 91 637 115 c 1,7,-1
 661 115 l 1,8,9
 661 80 661 80 621.5 35 c 128,-1,10
 582 -10 582 -10 503 -10 c 128,-1,11
 424 -10 424 -10 375 26 c 1,12,13
 323 -10 323 -10 241.5 -10 c 128,-1,14
 160 -10 160 -10 105 38 c 128,-1,15
 50 86 50 86 50 157 c 2,16,-1
 50 314 l 2,17,18
 50 385 50 385 105 432.5 c 128,-1,19
 160 480 160 480 241 480 c 128,-1,20
 322 480 322 480 377 443 c 1,21,22
 428 480 428 480 509 480 c 128,-1,23
 590 480 590 480 633 430.5 c 128,-1,24
 676 381 676 381 676 311 c 2,25,-1
 676 232 l 1,0,-1
309 118 m 2,26,-1
 309 353 l 2,27,28
 309 450 309 450 247.5 450 c 128,-1,29
 186 450 186 450 186 353 c 2,30,-1
 186 118 l 2,31,32
 186 20 186 20 247.5 20 c 128,-1,33
 309 20 309 20 309 118 c 2,26,-1
569 262 m 1,34,-1
 569 353 l 2,35,36
 569 399 569 399 553.5 424.5 c 128,-1,37
 538 450 538 450 507 450 c 128,-1,38
 476 450 476 450 461 421.5 c 128,-1,39
 446 393 446 393 446 353 c 2,40,-1
 446 262 l 1,41,-1
 569 262 l 1,34,-1
EndSplineSet
EndChar

StartChar: Scaron
Encoding: 352 352 182
Width: 570
GlyphClass: 2
Flags: W
LayerCount: 2
Fore
SplineSet
469 325 m 1,0,1
 546 276 546 276 546 195.5 c 128,-1,2
 546 115 546 115 462.5 52.5 c 128,-1,3
 379 -10 379 -10 276 -10 c 128,-1,4
 173 -10 173 -10 99 42.5 c 128,-1,5
 25 95 25 95 25 193 c 2,6,-1
 25 204 l 1,7,-1
 152 204 l 1,8,-1
 152 182 l 2,9,10
 152 115 152 115 189.5 70.5 c 128,-1,11
 227 26 227 26 281.5 26 c 128,-1,12
 336 26 336 26 369.5 60.5 c 128,-1,13
 403 95 403 95 403 156 c 0,14,15
 403 202 403 202 333 245 c 2,16,-1
 133 367 l 2,17,18
 50 417 50 417 50 507 c 0,19,20
 50 580 50 580 118 640 c 128,-1,21
 186 700 186 700 286 700 c 0,22,23
 339 700 339 700 379.5 684 c 128,-1,24
 420 668 420 668 440 644 c 0,25,26
 477 599 477 599 477 569 c 2,27,-1
 477 563 l 1,28,-1
 443 563 l 1,29,30
 443 597 443 597 405.5 631 c 128,-1,31
 368 665 368 665 314.5 665 c 128,-1,32
 261 665 261 665 223 632 c 128,-1,33
 185 599 185 599 185 547 c 0,34,35
 185 516 185 516 206.5 494 c 128,-1,36
 228 472 228 472 265 450 c 2,37,-1
 469 325 l 1,0,1
355 800 m 2,38,39
 334 760 334 760 295.5 760 c 128,-1,40
 257 760 257 760 233 800 c 1,41,-1
 176 909 l 1,42,-1
 203 926 l 1,43,-1
 294 830 l 1,44,-1
 384 927 l 1,45,-1
 412 909 l 1,46,-1
 355 800 l 2,38,39
EndSplineSet
EndChar

StartChar: scaron
Encoding: 353 353 183
Width: 396
GlyphClass: 2
Flags: W
LayerCount: 2
Fore
SplineSet
322 206 m 2,0,1
 361 172 361 172 361 117.5 c 128,-1,2
 361 63 361 63 312 26.5 c 128,-1,3
 263 -10 263 -10 184.5 -10 c 128,-1,4
 106 -10 106 -10 70.5 29.5 c 128,-1,5
 35 69 35 69 35 113 c 1,6,-1
 65 113 l 1,7,8
 65 72 65 72 95.5 46 c 128,-1,9
 126 20 126 20 157.5 20 c 128,-1,10
 189 20 189 20 213.5 39.5 c 128,-1,11
 238 59 238 59 238 89 c 128,-1,12
 238 119 238 119 207 148 c 2,13,-1
 80 262 l 2,14,15
 38 300 38 300 38 355.5 c 128,-1,16
 38 411 38 411 85.5 445.5 c 128,-1,17
 133 480 133 480 201 480 c 128,-1,18
 269 480 269 480 303 446 c 128,-1,19
 337 412 337 412 337 365 c 1,20,-1
 307 365 l 1,21,-1
 307 372 l 2,22,23
 307 403 307 403 285 426.5 c 128,-1,24
 263 450 263 450 232 450 c 128,-1,25
 201 450 201 450 180 432 c 128,-1,26
 159 414 159 414 159 383.5 c 128,-1,27
 159 353 159 353 187 327 c 2,28,-1
 322 206 l 2,0,1
261 578 m 2,29,30
 240 538 240 538 201.5 538 c 128,-1,31
 163 538 163 538 139 578 c 1,32,-1
 82 687 l 1,33,-1
 109 704 l 1,34,-1
 200 608 l 1,35,-1
 290 705 l 1,36,-1
 318 687 l 1,37,-1
 261 578 l 2,29,30
EndSplineSet
EndChar

StartChar: Ydieresis
Encoding: 376 376 184
Width: 615
GlyphClass: 2
Flags: W
LayerCount: 2
Fore
SplineSet
590 611 m 2,0,1
 590 521 590 521 534 451.5 c 128,-1,2
 478 382 478 382 387 357 c 1,3,-1
 387 0 l 1,4,-1
 228 0 l 1,5,-1
 228 356 l 1,6,7
 137 381 137 381 81 451 c 128,-1,8
 25 521 25 521 25 611 c 2,9,-1
 25 690 l 1,10,-1
 184 690 l 1,11,-1
 184 538 l 2,12,13
 184 471 184 471 218.5 426.5 c 128,-1,14
 253 382 253 382 307.5 382 c 128,-1,15
 362 382 362 382 396 426 c 128,-1,16
 430 470 430 470 430 538 c 2,17,-1
 430 690 l 1,18,-1
 590 690 l 1,19,-1
 590 611 l 2,0,1
466 851 m 128,-1,21
 482 836 482 836 482 812.5 c 128,-1,22
 482 789 482 789 466 773.5 c 128,-1,23
 450 758 450 758 423 758 c 128,-1,24
 396 758 396 758 380 773.5 c 128,-1,25
 364 789 364 789 364 812.5 c 128,-1,26
 364 836 364 836 380 851 c 128,-1,27
 396 866 396 866 423 866 c 128,-1,20
 450 866 450 866 466 851 c 128,-1,21
284 851 m 128,-1,29
 300 836 300 836 300 812.5 c 128,-1,30
 300 789 300 789 284 773.5 c 128,-1,31
 268 758 268 758 241 758 c 128,-1,32
 214 758 214 758 198 773.5 c 128,-1,33
 182 789 182 789 182 812.5 c 128,-1,34
 182 836 182 836 198 851 c 128,-1,35
 214 866 214 866 241 866 c 128,-1,28
 268 866 268 866 284 851 c 128,-1,29
EndSplineSet
EndChar

StartChar: Zcaron
Encoding: 381 381 185
Width: 573
GlyphClass: 2
Flags: W
LayerCount: 2
Fore
SplineSet
543 0 m 1,0,-1
 30 0 l 1,1,-1
 346 643 l 1,2,-1
 36 643 l 1,3,-1
 36 690 l 1,4,-1
 528 690 l 1,5,-1
 209 47 l 1,6,-1
 543 47 l 1,7,-1
 543 0 l 1,0,-1
380 800 m 2,8,9
 359 760 359 760 320.5 760 c 128,-1,10
 282 760 282 760 258 800 c 1,11,-1
 201 909 l 1,12,-1
 228 926 l 1,13,-1
 319 830 l 1,14,-1
 409 927 l 1,15,-1
 437 909 l 1,16,-1
 380 800 l 2,8,9
EndSplineSet
EndChar

StartChar: zcaron
Encoding: 382 382 186
Width: 401
GlyphClass: 2
Flags: W
LayerCount: 2
Fore
SplineSet
361 30 m 1,0,-1
 361 0 l 1,1,-1
 30 0 l 1,2,-1
 226 440 l 1,3,-1
 39 440 l 1,4,-1
 39 470 l 1,5,-1
 371 470 l 1,6,-1
 175 30 l 1,7,-1
 361 30 l 1,0,-1
285 578 m 2,8,9
 264 538 264 538 225.5 538 c 128,-1,10
 187 538 187 538 163 578 c 1,11,-1
 106 687 l 1,12,-1
 133 704 l 1,13,-1
 224 608 l 1,14,-1
 314 705 l 1,15,-1
 342 687 l 1,16,-1
 285 578 l 2,8,9
EndSplineSet
EndChar

StartChar: florin
Encoding: 402 402 187
Width: 504
GlyphClass: 2
Flags: W
LayerCount: 2
Fore
SplineSet
444 505 m 1,0,-1
 421 505 l 1,1,-1
 421 544 l 2,2,3
 421 594 421 594 402 624.5 c 128,-1,4
 383 655 383 655 358 655 c 0,5,6
 320 655 320 655 320 577 c 2,7,-1
 320 300 l 1,8,-1
 405 300 l 1,9,-1
 405 270 l 1,10,-1
 320 270 l 1,11,-1
 320 24 l 2,12,13
 320 -53 320 -53 282.5 -98 c 128,-1,14
 245 -143 245 -143 174 -143 c 0,15,16
 137 -143 137 -143 113.5 -126 c 128,-1,17
 90 -109 90 -109 83 -89 c 1,18,-1
 83 -163 l 1,19,-1
 60 -163 l 1,20,-1
 60 42 l 1,21,-1
 83 42 l 1,22,-1
 83 3 l 2,23,24
 83 -47 83 -47 102 -77.5 c 128,-1,25
 121 -108 121 -108 146 -108 c 0,26,27
 184 -108 184 -108 184 -30 c 2,28,-1
 184 270 l 1,29,-1
 151 270 l 1,30,-1
 151 300 l 1,31,-1
 184 300 l 1,32,-1
 184 523 l 2,33,34
 184 600 184 600 221.5 645 c 128,-1,35
 259 690 259 690 330 690 c 0,36,37
 367 690 367 690 390.5 673 c 128,-1,38
 414 656 414 656 421 636 c 1,39,-1
 421 710 l 1,40,-1
 444 710 l 1,41,-1
 444 505 l 1,0,-1
EndSplineSet
EndChar

StartChar: circumflex
Encoding: 710 710 188
Width: 356
GlyphClass: 2
Flags: W
LayerCount: 2
Fore
SplineSet
117 660 m 1,0,1
 141 700 141 700 179.5 700 c 128,-1,2
 218 700 218 700 239 660 c 2,3,-1
 296 551 l 1,4,-1
 268 533 l 1,5,-1
 178 630 l 1,6,-1
 87 534 l 1,7,-1
 60 551 l 1,8,-1
 117 660 l 1,0,1
EndSplineSet
EndChar

StartChar: caron
Encoding: 711 711 189
Width: 336
GlyphClass: 2
Flags: W
LayerCount: 2
Fore
SplineSet
229 578 m 2,0,1
 208 538 208 538 169.5 538 c 128,-1,2
 131 538 131 538 107 578 c 1,3,-1
 50 687 l 1,4,-1
 77 704 l 1,5,-1
 168 608 l 1,6,-1
 258 705 l 1,7,-1
 286 687 l 1,8,-1
 229 578 l 2,0,1
EndSplineSet
EndChar

StartChar: breve
Encoding: 728 728 190
Width: 356
GlyphClass: 2
Flags: W
LayerCount: 2
Fore
SplineSet
280 576.5 m 128,-1,1
 243 545 243 545 177.5 545 c 128,-1,2
 112 545 112 545 75 576.5 c 128,-1,3
 38 608 38 608 35 665 c 1,4,-1
 100 665 l 1,5,6
 122 604 122 604 179.5 604 c 128,-1,7
 237 604 237 604 255 665 c 1,8,-1
 321 665 l 1,9,0
 317 608 317 608 280 576.5 c 128,-1,1
EndSplineSet
EndChar

StartChar: dotaccent
Encoding: 729 729 191
Width: 238
GlyphClass: 2
Flags: W
LayerCount: 2
Fore
SplineSet
50 622 m 128,-1,1
 50 644 50 644 70.5 659.5 c 128,-1,2
 91 675 91 675 119 675 c 128,-1,3
 147 675 147 675 167.5 659.5 c 128,-1,4
 188 644 188 644 188 622 c 128,-1,5
 188 600 188 600 167.5 584.5 c 128,-1,6
 147 569 147 569 119 569 c 128,-1,7
 91 569 91 569 70.5 584.5 c 128,-1,0
 50 600 50 600 50 622 c 128,-1,1
EndSplineSet
EndChar

StartChar: ring
Encoding: 730 730 192
Width: 256
GlyphClass: 2
Flags: W
LayerCount: 2
Fore
SplineSet
183.5 671 m 128,-1,1
 206 652 206 652 206 622.5 c 128,-1,2
 206 593 206 593 183.5 574.5 c 128,-1,3
 161 556 161 556 128 556 c 128,-1,4
 95 556 95 556 72.5 575 c 128,-1,5
 50 594 50 594 50 623 c 128,-1,6
 50 652 50 652 72.5 671 c 128,-1,7
 95 690 95 690 128 690 c 128,-1,0
 161 690 161 690 183.5 671 c 128,-1,1
157 596.5 m 128,-1,9
 169 607 169 607 169 622.5 c 128,-1,10
 169 638 169 638 157 648.5 c 128,-1,11
 145 659 145 659 128 659 c 128,-1,12
 111 659 111 659 99.5 648.5 c 128,-1,13
 88 638 88 638 88 622.5 c 128,-1,14
 88 607 88 607 99.5 596.5 c 128,-1,15
 111 586 111 586 128 586 c 128,-1,8
 145 586 145 586 157 596.5 c 128,-1,9
EndSplineSet
EndChar

StartChar: ogonek
Encoding: 731 731 193
Width: 260
GlyphClass: 2
Flags: W
LayerCount: 2
Fore
SplineSet
50 0 m 1,0,-1
 151 0 l 1,1,-1
 151 -5 l 2,2,3
 151 -86 151 -86 210 -109 c 1,4,-1
 205 -123 l 1,5,6
 50 -100 50 -100 50 0 c 1,0,-1
EndSplineSet
EndChar

StartChar: tilde
Encoding: 732 732 194
Width: 372
GlyphClass: 2
Flags: W
LayerCount: 2
Fore
SplineSet
301.5 569 m 128,-1,1
 274 542 274 542 245 542 c 128,-1,2
 216 542 216 542 174 566.5 c 128,-1,3
 132 591 132 591 114 591 c 0,4,5
 78 591 78 591 46 553 c 1,6,-1
 31 568 l 1,7,8
 96 652 96 652 154 652 c 0,9,10
 173 652 173 652 208.5 630.5 c 128,-1,11
 244 609 244 609 271 609 c 128,-1,12
 298 609 298 609 325 628 c 1,13,-1
 338 615 l 1,14,0
 329 596 329 596 301.5 569 c 128,-1,1
EndSplineSet
EndChar

StartChar: hungarumlaut
Encoding: 733 733 195
Width: 451
GlyphClass: 2
Flags: W
LayerCount: 2
Fore
SplineSet
143 714 m 2,0,1
 154 734 154 734 176 734 c 128,-1,2
 198 734 198 734 214.5 718 c 128,-1,3
 231 702 231 702 231 684.5 c 128,-1,4
 231 667 231 667 217 653 c 1,5,-1
 71 526 l 1,6,-1
 50 543 l 1,7,-1
 143 714 l 2,0,1
313 714 m 2,8,9
 324 734 324 734 346 734 c 128,-1,10
 368 734 368 734 384.5 718 c 128,-1,11
 401 702 401 702 401 684.5 c 128,-1,12
 401 667 401 667 387 653 c 1,13,-1
 241 526 l 1,14,-1
 220 543 l 1,15,-1
 313 714 l 2,8,9
EndSplineSet
EndChar

StartChar: endash
Encoding: 8211 8211 196
Width: 500
GlyphClass: 2
Flags: W
LayerCount: 2
Fore
SplineSet
500 240 m 1,0,-1
 0 240 l 1,1,-1
 0 300 l 1,2,-1
 500 300 l 1,3,-1
 500 240 l 1,0,-1
EndSplineSet
EndChar

StartChar: emdash
Encoding: 8212 8212 197
Width: 1000
GlyphClass: 2
Flags: W
LayerCount: 2
Fore
SplineSet
1000 240 m 1,0,-1
 0 240 l 1,1,-1
 0 300 l 1,2,-1
 1000 300 l 1,3,-1
 1000 240 l 1,0,-1
EndSplineSet
EndChar

StartChar: quoteleft
Encoding: 8216 8216 198
Width: 217
GlyphClass: 2
Flags: W
LayerCount: 2
Fore
SplineSet
50 480 m 1,0,1
 50 551 50 551 68.5 598 c 128,-1,2
 87 645 87 645 146 699 c 1,3,-1
 177 676 l 1,4,5
 165 661 165 661 158.5 626.5 c 128,-1,6
 152 592 152 592 150 539 c 1,7,-1
 150 480 l 1,8,-1
 50 480 l 1,0,1
EndSplineSet
EndChar

StartChar: quoteright
Encoding: 8217 8217 199
Width: 217
GlyphClass: 2
Flags: W
LayerCount: 2
Fore
SplineSet
167 689 m 1,0,1
 167 618 167 618 148.5 571 c 128,-1,2
 130 524 130 524 71 470 c 1,3,-1
 40 493 l 1,4,5
 52 508 52 508 59 542.5 c 128,-1,6
 66 577 66 577 67 630 c 1,7,-1
 67 689 l 1,8,-1
 167 689 l 1,0,1
EndSplineSet
EndChar

StartChar: quotesinglbase
Encoding: 8218 8218 200
Width: 222
GlyphClass: 2
Flags: W
LayerCount: 2
Fore
SplineSet
172 110 m 1,0,1
 172 40 172 40 150 -10 c 128,-1,2
 128 -60 128 -60 66 -109 c 1,3,-1
 35 -86 l 1,4,5
 47 -71 47 -71 53.5 -36.5 c 128,-1,6
 60 -2 60 -2 62 51 c 1,7,-1
 62 110 l 1,8,-1
 172 110 l 1,0,1
EndSplineSet
EndChar

StartChar: quotedblleft
Encoding: 8220 8220 201
Width: 375
GlyphClass: 2
Flags: W
LayerCount: 2
Fore
SplineSet
208 471 m 1,0,1
 208 542 208 542 226.5 589 c 128,-1,2
 245 636 245 636 304 690 c 1,3,-1
 335 667 l 1,4,5
 323 652 323 652 316.5 617.5 c 128,-1,6
 310 583 310 583 308 530 c 1,7,-1
 308 471 l 1,8,-1
 208 471 l 1,0,1
50 471 m 1,9,10
 50 542 50 542 68.5 589 c 128,-1,11
 87 636 87 636 146 690 c 1,12,-1
 177 667 l 1,13,14
 165 652 165 652 158.5 617.5 c 128,-1,15
 152 583 152 583 150 530 c 1,16,-1
 150 471 l 1,17,-1
 50 471 l 1,9,10
EndSplineSet
EndChar

StartChar: quotedblright
Encoding: 8221 8221 202
Width: 375
GlyphClass: 2
Flags: W
LayerCount: 2
Fore
SplineSet
167 689 m 1,0,1
 167 618 167 618 148.5 571 c 128,-1,2
 130 524 130 524 71 470 c 1,3,-1
 40 493 l 1,4,5
 52 508 52 508 59 542.5 c 128,-1,6
 66 577 66 577 67 630 c 1,7,-1
 67 689 l 1,8,-1
 167 689 l 1,0,1
325 689 m 1,9,10
 325 618 325 618 306.5 571 c 128,-1,11
 288 524 288 524 229 470 c 1,12,-1
 198 493 l 1,13,14
 210 508 210 508 217 542.5 c 128,-1,15
 224 577 224 577 225 630 c 1,16,-1
 225 689 l 1,17,-1
 325 689 l 1,9,10
EndSplineSet
EndChar

StartChar: quotedblbase
Encoding: 8222 8222 203
Width: 392
GlyphClass: 2
Flags: W
LayerCount: 2
Fore
SplineSet
172 110 m 1,0,1
 172 40 172 40 150 -10 c 128,-1,2
 128 -60 128 -60 66 -109 c 1,3,-1
 35 -86 l 1,4,5
 47 -71 47 -71 53.5 -36.5 c 128,-1,6
 60 -2 60 -2 62 51 c 1,7,-1
 62 110 l 1,8,-1
 172 110 l 1,0,1
342 110 m 1,9,10
 342 40 342 40 320 -10 c 128,-1,11
 298 -60 298 -60 236 -109 c 1,12,-1
 205 -86 l 1,13,14
 217 -71 217 -71 223.5 -36.5 c 128,-1,15
 230 -2 230 -2 232 51 c 1,16,-1
 232 110 l 1,17,-1
 342 110 l 1,9,10
EndSplineSet
EndChar

StartChar: dagger
Encoding: 8224 8224 204
Width: 540
GlyphClass: 2
Flags: W
LayerCount: 2
Fore
SplineSet
480 554 m 1,0,-1
 349 554 l 1,1,-1
 349 0 l 1,2,-1
 190 0 l 1,3,-1
 190 554 l 1,4,-1
 60 554 l 1,5,-1
 60 619 l 1,6,-1
 190 619 l 1,7,-1
 190 690 l 1,8,-1
 349 690 l 1,9,-1
 349 619 l 1,10,-1
 480 619 l 1,11,-1
 480 554 l 1,0,-1
EndSplineSet
EndChar

StartChar: daggerdbl
Encoding: 8225 8225 205
Width: 490
GlyphClass: 2
Flags: W
LayerCount: 2
Fore
SplineSet
299 0 m 1,0,-1
 190 0 l 1,1,-1
 190 424 l 1,2,-1
 60 424 l 1,3,-1
 60 489 l 1,4,-1
 190 489 l 1,5,-1
 190 554 l 1,6,-1
 60 554 l 1,7,-1
 60 619 l 1,8,-1
 190 619 l 1,9,-1
 190 690 l 1,10,-1
 299 690 l 1,11,-1
 299 619 l 1,12,-1
 430 619 l 1,13,-1
 430 554 l 1,14,-1
 299 554 l 1,15,-1
 299 489 l 1,16,-1
 430 489 l 1,17,-1
 430 424 l 1,18,-1
 299 424 l 1,19,-1
 299 0 l 1,0,-1
EndSplineSet
EndChar

StartChar: bullet
Encoding: 8226 8226 206
Width: 331
GlyphClass: 2
Flags: W
LayerCount: 2
Fore
SplineSet
271 249 m 128,-1,1
 271 205 271 205 240 174.5 c 128,-1,2
 209 144 209 144 165 144 c 128,-1,3
 121 144 121 144 90.5 174.5 c 128,-1,4
 60 205 60 205 60 249 c 128,-1,5
 60 293 60 293 90.5 324 c 128,-1,6
 121 355 121 355 165 355 c 128,-1,7
 209 355 209 355 240 324 c 128,-1,0
 271 293 271 293 271 249 c 128,-1,1
EndSplineSet
EndChar

StartChar: ellipsis
Encoding: 8230 8230 207
Width: 570
GlyphClass: 2
Flags: W
LayerCount: 2
Fore
SplineSet
50 43 m 128,-1,1
 50 66 50 66 65.5 81 c 128,-1,2
 81 96 81 96 109 96 c 128,-1,3
 137 96 137 96 152.5 81 c 128,-1,4
 168 66 168 66 168 43 c 128,-1,5
 168 20 168 20 152.5 5 c 128,-1,6
 137 -10 137 -10 109 -10 c 128,-1,7
 81 -10 81 -10 65.5 5 c 128,-1,0
 50 20 50 20 50 43 c 128,-1,1
226 43 m 128,-1,9
 226 66 226 66 241.5 81 c 128,-1,10
 257 96 257 96 285 96 c 128,-1,11
 313 96 313 96 328.5 81 c 128,-1,12
 344 66 344 66 344 43 c 128,-1,13
 344 20 344 20 328.5 5 c 128,-1,14
 313 -10 313 -10 285 -10 c 128,-1,15
 257 -10 257 -10 241.5 5 c 128,-1,8
 226 20 226 20 226 43 c 128,-1,9
402 43 m 128,-1,17
 402 66 402 66 417.5 81 c 128,-1,18
 433 96 433 96 461 96 c 128,-1,19
 489 96 489 96 504.5 81 c 128,-1,20
 520 66 520 66 520 43 c 128,-1,21
 520 20 520 20 504.5 5 c 128,-1,22
 489 -10 489 -10 461 -10 c 128,-1,23
 433 -10 433 -10 417.5 5 c 128,-1,16
 402 20 402 20 402 43 c 128,-1,17
EndSplineSet
EndChar

StartChar: perthousand
Encoding: 8240 8240 208
Width: 1321
GlyphClass: 2
Flags: W
LayerCount: 2
Fore
SplineSet
231 -40 m 1,0,-1
 599 730 l 1,1,-1
 711 730 l 1,2,-1
 343 -40 l 1,3,-1
 231 -40 l 1,0,-1
881 146 m 2,4,5
 881 73 881 73 838 31.5 c 128,-1,6
 795 -10 795 -10 708 -10 c 128,-1,7
 621 -10 621 -10 578 31.5 c 128,-1,8
 535 73 535 73 535 146 c 2,9,-1
 535 183 l 2,10,11
 535 256 535 256 578 298 c 128,-1,12
 621 340 621 340 708 340 c 128,-1,13
 795 340 795 340 838 298 c 128,-1,14
 881 256 881 256 881 183 c 2,15,-1
 881 146 l 2,4,5
754 117 m 2,16,-1
 754 212 l 2,17,18
 754 244 754 244 752 262 c 128,-1,19
 750 280 750 280 739 295 c 128,-1,20
 728 310 728 310 703.5 310 c 128,-1,21
 679 310 679 310 670 285 c 128,-1,22
 661 260 661 260 661 212 c 2,23,-1
 661 117 l 2,24,25
 661 86 661 86 663.5 67.5 c 128,-1,26
 666 49 666 49 677 34.5 c 128,-1,27
 688 20 688 20 708 20 c 128,-1,28
 728 20 728 20 739 35 c 128,-1,29
 750 50 750 50 752 67.5 c 128,-1,30
 754 85 754 85 754 117 c 2,16,-1
406 506 m 2,31,32
 406 433 406 433 363 391.5 c 128,-1,33
 320 350 320 350 233 350 c 128,-1,34
 146 350 146 350 103 391.5 c 128,-1,35
 60 433 60 433 60 506 c 2,36,-1
 60 543 l 2,37,38
 60 616 60 616 103 658 c 128,-1,39
 146 700 146 700 233 700 c 128,-1,40
 320 700 320 700 363 658 c 128,-1,41
 406 616 406 616 406 543 c 2,42,-1
 406 506 l 2,31,32
279 477 m 2,43,-1
 279 572 l 2,44,45
 279 604 279 604 277 622 c 128,-1,46
 275 640 275 640 264 655 c 128,-1,47
 253 670 253 670 228.5 670 c 128,-1,48
 204 670 204 670 195 645 c 128,-1,49
 186 620 186 620 186 572 c 2,50,-1
 186 477 l 2,51,52
 186 446 186 446 188.5 427.5 c 128,-1,53
 191 409 191 409 202 394.5 c 128,-1,54
 213 380 213 380 233 380 c 128,-1,55
 253 380 253 380 264 395 c 128,-1,56
 275 410 275 410 277 427.5 c 128,-1,57
 279 445 279 445 279 477 c 2,43,-1
1271 146 m 2,58,59
 1271 73 1271 73 1228 31.5 c 128,-1,60
 1185 -10 1185 -10 1098 -10 c 128,-1,61
 1011 -10 1011 -10 968 31.5 c 128,-1,62
 925 73 925 73 925 146 c 2,63,-1
 925 183 l 2,64,65
 925 256 925 256 968 298 c 128,-1,66
 1011 340 1011 340 1098 340 c 128,-1,67
 1185 340 1185 340 1228 298 c 128,-1,68
 1271 256 1271 256 1271 183 c 2,69,-1
 1271 146 l 2,58,59
1144 117 m 2,70,-1
 1144 212 l 2,71,72
 1144 244 1144 244 1142 262 c 128,-1,73
 1140 280 1140 280 1129 295 c 128,-1,74
 1118 310 1118 310 1093.5 310 c 128,-1,75
 1069 310 1069 310 1060 285 c 128,-1,76
 1051 260 1051 260 1051 212 c 2,77,-1
 1051 117 l 2,78,79
 1051 86 1051 86 1053.5 67.5 c 128,-1,80
 1056 49 1056 49 1067 34.5 c 128,-1,81
 1078 20 1078 20 1098 20 c 128,-1,82
 1118 20 1118 20 1129 35 c 128,-1,83
 1140 50 1140 50 1142 67.5 c 128,-1,84
 1144 85 1144 85 1144 117 c 2,70,-1
EndSplineSet
EndChar

StartChar: guilsinglleft
Encoding: 8249 8249 209
Width: 337
GlyphClass: 2
Flags: W
LayerCount: 2
Fore
SplineSet
276 461 m 128,-1,1
 287 452 287 452 287 448 c 128,-1,2
 287 444 287 444 286 442 c 2,3,-1
 174 300 l 1,4,-1
 283 153 l 2,5,6
 287 148 287 148 287 144 c 128,-1,7
 287 140 287 140 276 130.5 c 128,-1,8
 265 121 265 121 257.5 121 c 128,-1,9
 250 121 250 121 246 125 c 2,10,-1
 55 287 l 2,11,12
 50 292 50 292 50 300 c 128,-1,13
 50 308 50 308 55 311 c 2,14,-1
 245 464 l 2,15,16
 252 470 252 470 258.5 470 c 128,-1,0
 265 470 265 470 276 461 c 128,-1,1
EndSplineSet
EndChar

StartChar: guilsinglright
Encoding: 8250 8250 210
Width: 337
GlyphClass: 2
Flags: W
LayerCount: 2
Fore
SplineSet
51 442 m 2,0,1
 50 444 50 444 50 448 c 128,-1,2
 50 452 50 452 61 461 c 128,-1,3
 72 470 72 470 78.5 470 c 128,-1,4
 85 470 85 470 91 464 c 2,5,-1
 281 311 l 1,6,7
 287 308 287 308 287 300 c 128,-1,8
 287 292 287 292 281 287 c 2,9,-1
 91 125 l 2,10,11
 87 121 87 121 79.5 121 c 128,-1,12
 72 121 72 121 61 130.5 c 128,-1,13
 50 140 50 140 50 144 c 128,-1,14
 50 148 50 148 54 153 c 2,15,-1
 163 300 l 1,16,-1
 51 442 l 2,0,1
EndSplineSet
EndChar

StartChar: fraction
Encoding: 8260 8260 211
Width: 600
GlyphClass: 2
Flags: W
LayerCount: 2
Fore
SplineSet
60 -40 m 1,0,-1
 428 730 l 1,1,-1
 540 730 l 1,2,-1
 172 -40 l 1,3,-1
 60 -40 l 1,0,-1
EndSplineSet
EndChar

StartChar: Euro
Encoding: 8364 8364 212
Width: 701
GlyphClass: 2
Flags: W
LayerCount: 2
Fore
SplineSet
60 373 m 1,0,-1
 60 420 l 1,1,-1
 119 420 l 1,2,-1
 119 436 l 2,3,4
 119 549 119 549 194.5 624.5 c 128,-1,5
 270 700 270 700 392 700 c 0,6,7
 488 700 488 700 564.5 646.5 c 128,-1,8
 641 593 641 593 641 499 c 2,9,-1
 641 486 l 1,10,-1
 505 486 l 1,11,-1
 505 509 l 2,12,13
 505 579 505 579 476 622 c 128,-1,14
 447 665 447 665 391.5 665 c 128,-1,15
 336 665 336 665 307 622 c 128,-1,16
 278 579 278 579 278 509 c 2,17,-1
 278 420 l 1,18,-1
 504 420 l 1,19,-1
 504 373 l 1,20,-1
 278 373 l 1,21,-1
 278 316 l 1,22,-1
 504 316 l 1,23,-1
 504 269 l 1,24,-1
 278 269 l 1,25,-1
 278 182 l 2,26,27
 278 111 278 111 307 68 c 128,-1,28
 336 25 336 25 391.5 25 c 128,-1,29
 447 25 447 25 476 68.5 c 128,-1,30
 505 112 505 112 505 182 c 2,31,-1
 505 204 l 1,32,-1
 641 204 l 1,33,-1
 641 194 l 2,34,35
 641 140 641 140 616 98.5 c 128,-1,36
 591 57 591 57 552 34 c 1,37,38
 473 -10 473 -10 392 -10 c 0,39,40
 270 -10 270 -10 194.5 65.5 c 128,-1,41
 119 141 119 141 119 254 c 2,42,-1
 119 269 l 1,43,-1
 60 269 l 1,44,-1
 60 316 l 1,45,-1
 119 316 l 1,46,-1
 119 373 l 1,47,-1
 60 373 l 1,0,-1
EndSplineSet
EndChar

StartChar: trademark
Encoding: 8482 8482 213
Width: 750
GlyphClass: 2
Flags: W
LayerCount: 2
Fore
SplineSet
389 608 m 1,0,-1
 320 608 l 1,1,-1
 320 617 l 2,2,3
 320 656 320 656 270 680 c 1,4,-1
 270 361 l 1,5,-1
 199 361 l 1,6,-1
 199 681 l 1,7,8
 148 660 148 660 148 616 c 2,9,-1
 148 608 l 1,10,-1
 80 608 l 1,11,-1
 80 616 l 2,12,13
 80 647 80 647 104 667 c 0,14,15
 145 700 145 700 234 700 c 0,16,17
 294 700 294 700 328 687 c 128,-1,18
 362 674 362 674 375.5 657 c 128,-1,19
 389 640 389 640 389 616 c 2,20,-1
 389 608 l 1,0,-1
460 361 m 1,21,-1
 460 524 l 2,22,23
 460 560 460 560 436 560 c 0,24,25
 422 560 422 560 413.5 544.5 c 128,-1,26
 405 529 405 529 405 510 c 2,27,-1
 405 361 l 1,28,-1
 344 361 l 1,29,-1
 344 570 l 1,30,-1
 405 570 l 1,31,-1
 405 545 l 1,32,33
 416 574 416 574 452 574 c 0,34,35
 501 574 501 574 517 532 c 1,36,37
 530 574 530 574 564.5 574 c 128,-1,38
 599 574 599 574 618 555.5 c 128,-1,39
 637 537 637 537 637 504 c 2,40,-1
 637 394 l 2,41,42
 637 379 637 379 646.5 379 c 128,-1,43
 656 379 656 379 661 393 c 1,44,-1
 670 391 l 1,45,-1
 668 382 l 2,46,47
 666 374 666 374 654.5 365 c 128,-1,48
 643 356 643 356 623 356 c 0,49,50
 575 356 575 356 575 400 c 2,51,-1
 575 524 l 2,52,53
 575 541 575 541 568 550.5 c 128,-1,54
 561 560 561 560 549.5 560 c 128,-1,55
 538 560 538 560 529.5 544.5 c 128,-1,56
 521 529 521 529 521 510 c 2,57,-1
 521 361 l 1,58,-1
 460 361 l 1,21,-1
EndSplineSet
EndChar

StartChar: minus
Encoding: 8722 8722 214
Width: 350
GlyphClass: 2
Flags: W
LayerCount: 2
Fore
SplineSet
300 200 m 1,0,-1
 50 200 l 1,1,-1
 50 260 l 1,2,-1
 300 260 l 1,3,-1
 300 200 l 1,0,-1
EndSplineSet
EndChar

StartChar: ff
Encoding: 64256 64256 215
Width: 637
GlyphClass: 2
Flags: W
LayerCount: 2
Fore
SplineSet
637 515 m 1,0,-1
 614 515 l 1,1,-1
 614 554 l 2,2,3
 614 604 614 604 595 634.5 c 128,-1,4
 576 665 576 665 551 665 c 0,5,6
 513 665 513 665 513 587 c 2,7,-1
 513 300 l 1,8,-1
 598 300 l 1,9,-1
 598 270 l 1,10,-1
 513 270 l 1,11,-1
 513 0 l 1,12,-1
 377 0 l 1,13,-1
 377 270 l 1,14,-1
 209 270 l 1,15,-1
 209 0 l 1,16,-1
 73 0 l 1,17,-1
 73 270 l 1,18,-1
 40 270 l 1,19,-1
 40 300 l 1,20,-1
 73 300 l 1,21,-1
 73 533 l 2,22,23
 73 610 73 610 110.5 655 c 128,-1,24
 148 700 148 700 219 700 c 0,25,26
 256 700 256 700 279.5 683 c 128,-1,27
 303 666 303 666 310 646 c 1,28,-1
 310 720 l 1,29,-1
 333 720 l 1,30,-1
 333 515 l 1,31,-1
 310 515 l 1,32,-1
 310 554 l 2,33,34
 310 604 310 604 291 634.5 c 128,-1,35
 272 665 272 665 247 665 c 0,36,37
 209 665 209 665 209 587 c 2,38,-1
 209 300 l 1,39,-1
 377 300 l 1,40,-1
 377 533 l 2,41,42
 377 610 377 610 414.5 655 c 128,-1,43
 452 700 452 700 523 700 c 0,44,45
 560 700 560 700 583.5 683 c 128,-1,46
 607 666 607 666 614 646 c 1,47,-1
 614 720 l 1,48,-1
 637 720 l 1,49,-1
 637 515 l 1,0,-1
EndSplineSet
EndChar

StartChar: fi
Encoding: 64257 64257 216
Width: 572
GlyphClass: 2
Flags: W
LayerCount: 2
Fore
SplineSet
380 545 m 1,0,-1
 358 545 l 1,1,-1
 358 554 l 2,2,3
 358 601 358 601 334 633 c 128,-1,4
 310 665 310 665 278.5 665 c 128,-1,5
 247 665 247 665 228 643.5 c 128,-1,6
 209 622 209 622 209 587 c 2,7,-1
 209 300 l 1,8,-1
 294 300 l 1,9,-1
 294 270 l 1,10,-1
 209 270 l 1,11,-1
 209 0 l 1,12,-1
 73 0 l 1,13,-1
 73 270 l 1,14,-1
 40 270 l 1,15,-1
 40 300 l 1,16,-1
 73 300 l 1,17,-1
 73 533 l 2,18,19
 73 608 73 608 123.5 654 c 128,-1,20
 174 700 174 700 251 700 c 0,21,22
 297 700 297 700 324.5 677.5 c 128,-1,23
 352 655 352 655 358 633 c 1,24,-1
 358 720 l 1,25,-1
 380 720 l 1,26,-1
 380 545 l 1,0,-1
516 40 m 0,27,28
 536 40 536 40 548 72 c 1,29,-1
 567 69 l 1,30,31
 567 59 567 59 559.5 43.5 c 128,-1,32
 552 28 552 28 542 18 c 0,33,34
 516 -10 516 -10 464 -10 c 0,35,36
 357 -10 357 -10 357 89 c 2,37,-1
 357 470 l 1,38,-1
 493 470 l 1,39,-1
 493 74 l 2,40,41
 493 40 493 40 516 40 c 0,27,28
EndSplineSet
EndChar

StartChar: fl
Encoding: 64258 64258 217
Width: 573
GlyphClass: 2
Flags: W
LayerCount: 2
Fore
SplineSet
517 40 m 0,0,1
 537 40 537 40 549 72 c 1,2,-1
 568 69 l 1,3,4
 568 59 568 59 560.5 43.5 c 128,-1,5
 553 28 553 28 543 18 c 0,6,7
 517 -10 517 -10 465 -10 c 0,8,9
 358 -10 358 -10 358 89 c 2,10,-1
 358 554 l 2,11,12
 358 601 358 601 334 633 c 128,-1,13
 310 665 310 665 278.5 665 c 128,-1,14
 247 665 247 665 228 643.5 c 128,-1,15
 209 622 209 622 209 587 c 2,16,-1
 209 300 l 1,17,-1
 294 300 l 1,18,-1
 294 270 l 1,19,-1
 209 270 l 1,20,-1
 209 0 l 1,21,-1
 73 0 l 1,22,-1
 73 270 l 1,23,-1
 40 270 l 1,24,-1
 40 300 l 1,25,-1
 73 300 l 1,26,-1
 73 533 l 2,27,28
 73 608 73 608 123.5 654 c 128,-1,29
 174 700 174 700 251 700 c 0,30,31
 297 700 297 700 324.5 677.5 c 128,-1,32
 352 655 352 655 358 633 c 1,33,-1
 358 690 l 1,34,-1
 494 690 l 1,35,-1
 494 74 l 2,36,37
 494 40 494 40 517 40 c 0,0,1
EndSplineSet
EndChar

StartChar: typerepublic
Encoding: 65540 -1 219
Width: 815
GlyphClass: 2
Flags: W
LayerCount: 2
Fore
SplineSet
735 0 m 1,0,-1
 80 0 l 1,1,-1
 80 658 l 1,2,-1
 735 658 l 1,3,-1
 735 0 l 1,0,-1
668 403 m 1,4,-1
 471 409 l 1,5,-1
 404 595 l 1,6,-1
 337 409 l 1,7,-1
 139 403 l 1,8,-1
 295 282 l 1,9,-1
 240 92 l 1,10,-1
 404 203 l 1,11,-1
 567 92 l 1,12,-1
 512 282 l 1,13,-1
 668 403 l 1,4,-1
EndSplineSet
EndChar

StartChar: W.alt1
Encoding: 65541 -1 220
Width: 851
GlyphClass: 2
Flags: W
LayerCount: 2
Fore
SplineSet
846 690 m 1,0,-1
 674 0 l 1,1,-1
 523 0 l 1,2,-1
 423 425 l 1,3,-1
 317 0 l 1,4,-1
 166 0 l 1,5,-1
 5 690 l 1,6,-1
 165 690 l 1,7,-1
 296 125 l 1,8,-1
 397 535 l 1,9,-1
 362 690 l 1,10,-1
 524 690 l 1,11,-1
 523 686 l 1,12,-1
 653 125 l 1,13,-1
 792 690 l 1,14,-1
 846 690 l 1,0,-1
EndSplineSet
EndChar

StartChar: w.alt1
Encoding: 65542 -1 221
Width: 628
GlyphClass: 2
Flags: W
LayerCount: 2
Fore
SplineSet
623 470 m 1,0,-1
 499 0 l 1,1,-1
 364 0 l 1,2,-1
 312 212 l 1,3,-1
 256 0 l 1,4,-1
 121 0 l 1,5,-1
 5 470 l 1,6,-1
 139 470 l 1,7,-1
 240 62 l 1,8,-1
 296 274 l 1,9,-1
 248 470 l 1,10,-1
 382 470 l 1,11,-1
 483 62 l 1,12,-1
 591 470 l 1,13,-1
 623 470 l 1,0,-1
EndSplineSet
EndChar
